SplineFontDB: 3.2
FontName: RainbowFleshNBP
FullName: RainbowFlesh NBP Regular
FamilyName: RainbowFlesh NBP
Weight: Book
Copyright: Copyright Rainbowflesh 2024
FontLog: "A minor modification font base on Nate Halley Erbos Draco 1st NBP+AAoA-CC-0"
Version: 1.0
ItalicAngle: 0
UnderlinePosition: 77
UnderlineWidth: 51
Ascent: 819
Descent: 205
InvalidEm: 0
sfntRevision: 0x00010000
LayerCount: 2
Layer: 0 1 "Back" 1
Layer: 1 1 "Fore" 0
XUID: [1021 357 194700600 597]
StyleMap: 0x0040
FSType: 4
OS2Version: 2
OS2_WeightWidthSlopeOnly: 0
OS2_UseTypoMetrics: 0
CreationTime: 1349893353
ModificationTime: 1718536594
PfmFamily: 81
TTFWeight: 400
TTFWidth: 5
LineGap: 0
VLineGap: 0
Panose: 0 0 4 0 0 0 0 0 0 0
OS2TypoAscent: 576
OS2TypoAOffset: 0
OS2TypoDescent: 0
OS2TypoDOffset: 0
OS2TypoLinegap: 0
OS2WinAscent: 576
OS2WinAOffset: 0
OS2WinDescent: 0
OS2WinDOffset: 0
HheadAscent: 576
HheadAOffset: 0
HheadDescent: 0
HheadDOffset: 0
OS2SubXSize: 512
OS2SubYSize: 512
OS2SubXOff: 0
OS2SubYOff: 0
OS2SupXSize: 512
OS2SupYSize: 512
OS2SupXOff: 0
OS2SupYOff: 512
OS2StrikeYSize: 51
OS2StrikeYPos: 204
OS2CapHeight: 576
OS2XHeight: 576
OS2Vendor: 'FSTR'
OS2CodePages: 00000001.00000000
OS2UnicodeRanges: 80000001.00000000.00000000.00000000
MarkAttachClasses: 1
DEI: 91125
ShortTable: maxp 16
  1
  0
  102
  88
  22
  0
  0
  2
  0
  0
  0
  0
  0
  0
  0
  0
EndShort
LangName: 1033 "" "" "Regular" "" "" "Version 1.0" "" "" "https://rainbowflesh.github.io" "RainbowFlesh" "ErbosDraco1StNbp minor tweak version, follow SIL Open Font License." "https://rainbowflesh.github.io" "https://rainbowflesh.github.io" "SIL Open Font License (OFL) version 1.1" "https://openfontlicense.org/open-font-license-official-text/" "" "" "" "" "Quidquid latine dictum sit, altum sonatur ABCDEFGHIJKLMNOPQRSTUVWXYZabcdefghijklmnopqrstuvwxyz 1234567890!@#$%^&*()+AH4A`-+AD0A_+-,.<>?/:;+ACIA'{}[]"
Encoding: UnicodeBmp
UnicodeInterp: none
NameList: AGL For New Fonts
DisplaySize: -128
AntiAlias: 1
FitToEm: 0
WinInfo: 45 9 4

StartChar: .notdef
Encoding: 65536 -1 0
Width: 452
GlyphClass: 1
Flags: W
LayerCount: 2
Fore
SplineSet
288 81 m 1,0,-1
 288 173 l 1,1,-1
 196 173 l 1,2,-1
 196 81 l 1,3,-1
 288 81 l 1,0,-1
379 188 m 1,4,-1
 379 280 l 1,5,-1
 196 280 l 1,6,-1
 196 188 l 1,7,-1
 379 188 l 1,4,-1
288 295 m 1,8,-1
 288 387 l 1,9,-1
 196 387 l 1,10,-1
 196 295 l 1,11,-1
 288 295 l 1,8,-1
379 402 m 1,12,-1
 379 493 l 1,13,-1
 288 493 l 2,14,15
 249 493 249 493 223 467 c 0,16,17
 196 440 196 440 196 402 c 1,18,-1
 379 402 l 1,12,-1
0 0 m 1,19,-1
 0 576 l 1,20,-1
 576 576 l 1,21,-1
 576 0 l 1,22,-1
 0 0 l 1,19,-1
EndSplineSet
Validated: 1
EndChar

StartChar: space
Encoding: 32 32 3
Width: 452
GlyphClass: 1
Flags: W
LayerCount: 2
Fore
SplineSet
0 0 m 1,0,-1
 0 576 l 1,1,-1
 448 576 l 1,2,-1
 448 0 l 1,3,-1
 0 0 l 1,0,-1
EndSplineSet
Validated: 1
EndChar

StartChar: exclam
Encoding: 33 33 4
Width: 452
GlyphClass: 1
Flags: W
LayerCount: 2
Fore
SplineSet
249 70 m 1,0,-1
 249 121 l 1,1,-1
 198 121 l 1,2,-1
 198 70 l 1,3,-1
 249 70 l 1,0,-1
249 198 m 1,4,-1
 249 249 l 1,5,-1
 198 249 l 1,6,-1
 198 198 l 1,7,-1
 249 198 l 1,4,-1
249 262 m 1,8,-1
 249 313 l 1,9,-1
 198 313 l 1,10,-1
 198 262 l 1,11,-1
 249 262 l 1,8,-1
249 326 m 1,12,-1
 249 377 l 1,13,-1
 198 377 l 1,14,-1
 198 326 l 1,15,-1
 249 326 l 1,12,-1
249 390 m 1,16,-1
 249 441 l 1,17,-1
 198 441 l 1,18,-1
 198 390 l 1,19,-1
 249 390 l 1,16,-1
249 454 m 1,20,-1
 249 505 l 1,21,-1
 198 505 l 1,22,-1
 198 454 l 1,23,-1
 249 454 l 1,20,-1
0 0 m 1,24,-1
 0 576 l 1,25,-1
 448 576 l 1,26,-1
 448 0 l 1,27,-1
 0 0 l 1,24,-1
EndSplineSet
Validated: 1
EndChar

StartChar: quotedbl
Encoding: 34 34 5
Width: 452
GlyphClass: 1
Flags: W
LayerCount: 2
Fore
SplineSet
185 390 m 1,0,-1
 185 441 l 1,1,-1
 134 441 l 1,2,-1
 134 390 l 1,3,-1
 185 390 l 1,0,-1
313 390 m 1,4,-1
 313 441 l 1,5,-1
 262 441 l 1,6,-1
 262 390 l 1,7,-1
 313 390 l 1,4,-1
185 454 m 1,8,-1
 185 505 l 1,9,-1
 134 505 l 1,10,-1
 134 454 l 1,11,-1
 185 454 l 1,8,-1
313 454 m 1,12,-1
 313 505 l 1,13,-1
 262 505 l 1,14,-1
 262 454 l 1,15,-1
 313 454 l 1,12,-1
0 0 m 1,16,-1
 0 576 l 1,17,-1
 448 576 l 1,18,-1
 448 0 l 1,19,-1
 0 0 l 1,16,-1
EndSplineSet
Validated: 1
EndChar

StartChar: numbersign
Encoding: 35 35 6
Width: 452
GlyphClass: 1
Flags: W
LayerCount: 2
Fore
SplineSet
185 134 m 1,0,-1
 185 185 l 1,1,-1
 134 185 l 1,2,-1
 134 134 l 1,3,-1
 185 134 l 1,0,-1
313 134 m 1,4,-1
 313 185 l 1,5,-1
 262 185 l 1,6,-1
 262 134 l 1,7,-1
 313 134 l 1,4,-1
121 198 m 1,8,-1
 121 249 l 1,9,-1
 70 249 l 1,10,-1
 70 198 l 1,11,-1
 121 198 l 1,8,-1
185 198 m 1,12,-1
 185 249 l 1,13,-1
 134 249 l 1,14,-1
 134 198 l 1,15,-1
 185 198 l 1,12,-1
249 198 m 1,16,-1
 249 249 l 1,17,-1
 198 249 l 1,18,-1
 198 198 l 1,19,-1
 249 198 l 1,16,-1
313 198 m 1,20,-1
 313 249 l 1,21,-1
 262 249 l 1,22,-1
 262 198 l 1,23,-1
 313 198 l 1,20,-1
377 198 m 1,24,-1
 377 249 l 1,25,-1
 326 249 l 1,26,-1
 326 198 l 1,27,-1
 377 198 l 1,24,-1
185 262 m 1,28,-1
 185 313 l 1,29,-1
 134 313 l 1,30,-1
 134 262 l 1,31,-1
 185 262 l 1,28,-1
313 262 m 1,32,-1
 313 313 l 1,33,-1
 262 313 l 1,34,-1
 262 262 l 1,35,-1
 313 262 l 1,32,-1
121 326 m 1,36,-1
 121 377 l 1,37,-1
 70 377 l 1,38,-1
 70 326 l 1,39,-1
 121 326 l 1,36,-1
185 326 m 1,40,-1
 185 377 l 1,41,-1
 134 377 l 1,42,-1
 134 326 l 1,43,-1
 185 326 l 1,40,-1
249 326 m 1,44,-1
 249 377 l 1,45,-1
 198 377 l 1,46,-1
 198 326 l 1,47,-1
 249 326 l 1,44,-1
313 326 m 1,48,-1
 313 377 l 1,49,-1
 262 377 l 1,50,-1
 262 326 l 1,51,-1
 313 326 l 1,48,-1
377 326 m 1,52,-1
 377 377 l 1,53,-1
 326 377 l 1,54,-1
 326 326 l 1,55,-1
 377 326 l 1,52,-1
185 390 m 1,56,-1
 185 441 l 1,57,-1
 134 441 l 1,58,-1
 134 390 l 1,59,-1
 185 390 l 1,56,-1
313 390 m 1,60,-1
 313 441 l 1,61,-1
 262 441 l 1,62,-1
 262 390 l 1,63,-1
 313 390 l 1,60,-1
0 0 m 1,64,-1
 0 576 l 1,65,-1
 448 576 l 1,66,-1
 448 0 l 1,67,-1
 0 0 l 1,64,-1
EndSplineSet
Validated: 1
EndChar

StartChar: dollar
Encoding: 36 36 7
Width: 452
GlyphClass: 1
Flags: W
LayerCount: 2
Fore
SplineSet
249 70 m 1,0,-1
 249 121 l 1,1,-1
 198 121 l 1,2,-1
 198 70 l 1,3,-1
 249 70 l 1,0,-1
121 134 m 1,4,-1
 121 185 l 1,5,-1
 70 185 l 1,6,-1
 70 134 l 1,7,-1
 121 134 l 1,4,-1
185 134 m 1,8,-1
 185 185 l 1,9,-1
 134 185 l 1,10,-1
 134 134 l 1,11,-1
 185 134 l 1,8,-1
249 134 m 1,12,-1
 249 185 l 1,13,-1
 198 185 l 1,14,-1
 198 134 l 1,15,-1
 249 134 l 1,12,-1
313 134 m 1,16,-1
 313 185 l 1,17,-1
 262 185 l 1,18,-1
 262 134 l 1,19,-1
 313 134 l 1,16,-1
249 198 m 1,20,-1
 249 249 l 1,21,-1
 198 249 l 1,22,-1
 198 198 l 1,23,-1
 249 198 l 1,20,-1
377 198 m 1,24,-1
 377 249 l 1,25,-1
 326 249 l 1,26,-1
 326 198 l 1,27,-1
 377 198 l 1,24,-1
185 262 m 1,28,-1
 185 313 l 1,29,-1
 134 313 l 1,30,-1
 134 262 l 1,31,-1
 185 262 l 1,28,-1
249 262 m 1,32,-1
 249 313 l 1,33,-1
 198 313 l 1,34,-1
 198 262 l 1,35,-1
 249 262 l 1,32,-1
313 262 m 1,36,-1
 313 313 l 1,37,-1
 262 313 l 1,38,-1
 262 262 l 1,39,-1
 313 262 l 1,36,-1
121 326 m 1,40,-1
 121 377 l 1,41,-1
 70 377 l 1,42,-1
 70 326 l 1,43,-1
 121 326 l 1,40,-1
249 326 m 1,44,-1
 249 377 l 1,45,-1
 198 377 l 1,46,-1
 198 326 l 1,47,-1
 249 326 l 1,44,-1
185 390 m 1,48,-1
 185 441 l 1,49,-1
 134 441 l 1,50,-1
 134 390 l 1,51,-1
 185 390 l 1,48,-1
249 390 m 1,52,-1
 249 441 l 1,53,-1
 198 441 l 1,54,-1
 198 390 l 1,55,-1
 249 390 l 1,52,-1
313 390 m 1,56,-1
 313 441 l 1,57,-1
 262 441 l 1,58,-1
 262 390 l 1,59,-1
 313 390 l 1,56,-1
377 390 m 1,60,-1
 377 441 l 1,61,-1
 326 441 l 1,62,-1
 326 390 l 1,63,-1
 377 390 l 1,60,-1
249 454 m 1,64,-1
 249 505 l 1,65,-1
 198 505 l 1,66,-1
 198 454 l 1,67,-1
 249 454 l 1,64,-1
0 0 m 1,68,-1
 0 576 l 1,69,-1
 448 576 l 1,70,-1
 448 0 l 1,71,-1
 0 0 l 1,68,-1
EndSplineSet
Validated: 1
EndChar

StartChar: percent
Encoding: 37 37 8
Width: 452
GlyphClass: 1
Flags: W
LayerCount: 2
Fore
SplineSet
121 134 m 1,0,-1
 121 185 l 1,1,-1
 70 185 l 1,2,-1
 70 134 l 1,3,-1
 121 134 l 1,0,-1
313 134 m 1,4,-1
 313 185 l 1,5,-1
 262 185 l 1,6,-1
 262 134 l 1,7,-1
 313 134 l 1,4,-1
377 134 m 1,8,-1
 377 185 l 1,9,-1
 326 185 l 1,10,-1
 326 134 l 1,11,-1
 377 134 l 1,8,-1
185 198 m 1,12,-1
 185 249 l 1,13,-1
 134 249 l 1,14,-1
 134 198 l 1,15,-1
 185 198 l 1,12,-1
313 198 m 1,16,-1
 313 249 l 1,17,-1
 262 249 l 1,18,-1
 262 198 l 1,19,-1
 313 198 l 1,16,-1
377 198 m 1,20,-1
 377 249 l 1,21,-1
 326 249 l 1,22,-1
 326 198 l 1,23,-1
 377 198 l 1,20,-1
249 262 m 1,24,-1
 249 313 l 1,25,-1
 198 313 l 1,26,-1
 198 262 l 1,27,-1
 249 262 l 1,24,-1
121 326 m 1,28,-1
 121 377 l 1,29,-1
 70 377 l 1,30,-1
 70 326 l 1,31,-1
 121 326 l 1,28,-1
185 326 m 1,32,-1
 185 377 l 1,33,-1
 134 377 l 1,34,-1
 134 326 l 1,35,-1
 185 326 l 1,32,-1
313 326 m 1,36,-1
 313 377 l 1,37,-1
 262 377 l 1,38,-1
 262 326 l 1,39,-1
 313 326 l 1,36,-1
121 390 m 1,40,-1
 121 441 l 1,41,-1
 70 441 l 1,42,-1
 70 390 l 1,43,-1
 121 390 l 1,40,-1
185 390 m 1,44,-1
 185 441 l 1,45,-1
 134 441 l 1,46,-1
 134 390 l 1,47,-1
 185 390 l 1,44,-1
377 390 m 1,48,-1
 377 441 l 1,49,-1
 326 441 l 1,50,-1
 326 390 l 1,51,-1
 377 390 l 1,48,-1
0 0 m 1,52,-1
 0 576 l 1,53,-1
 448 576 l 1,54,-1
 448 0 l 1,55,-1
 0 0 l 1,52,-1
EndSplineSet
Validated: 1
EndChar

StartChar: ampersand
Encoding: 38 38 9
Width: 452
GlyphClass: 1
Flags: W
LayerCount: 2
Fore
SplineSet
185 70 m 1,0,-1
 185 121 l 1,1,-1
 134 121 l 1,2,-1
 134 70 l 1,3,-1
 185 70 l 1,0,-1
249 70 m 1,4,-1
 249 121 l 1,5,-1
 198 121 l 1,6,-1
 198 70 l 1,7,-1
 249 70 l 1,4,-1
377 70 m 1,8,-1
 377 121 l 1,9,-1
 326 121 l 1,10,-1
 326 70 l 1,11,-1
 377 70 l 1,8,-1
121 134 m 1,12,-1
 121 185 l 1,13,-1
 70 185 l 1,14,-1
 70 134 l 1,15,-1
 121 134 l 1,12,-1
313 134 m 1,16,-1
 313 185 l 1,17,-1
 262 185 l 1,18,-1
 262 134 l 1,19,-1
 313 134 l 1,16,-1
121 198 m 1,20,-1
 121 249 l 1,21,-1
 70 249 l 1,22,-1
 70 198 l 1,23,-1
 121 198 l 1,20,-1
249 198 m 1,24,-1
 249 249 l 1,25,-1
 198 249 l 1,26,-1
 198 198 l 1,27,-1
 249 198 l 1,24,-1
185 262 m 1,28,-1
 185 313 l 1,29,-1
 134 313 l 1,30,-1
 134 262 l 1,31,-1
 185 262 l 1,28,-1
185 326 m 1,32,-1
 185 377 l 1,33,-1
 134 377 l 1,34,-1
 134 326 l 1,35,-1
 185 326 l 1,32,-1
249 326 m 1,36,-1
 249 377 l 1,37,-1
 198 377 l 1,38,-1
 198 326 l 1,39,-1
 249 326 l 1,36,-1
185 390 m 1,40,-1
 185 441 l 1,41,-1
 134 441 l 1,42,-1
 134 390 l 1,43,-1
 185 390 l 1,40,-1
313 390 m 1,44,-1
 313 441 l 1,45,-1
 262 441 l 1,46,-1
 262 390 l 1,47,-1
 313 390 l 1,44,-1
249 454 m 1,48,-1
 249 505 l 1,49,-1
 198 505 l 1,50,-1
 198 454 l 1,51,-1
 249 454 l 1,48,-1
0 0 m 1,52,-1
 0 576 l 1,53,-1
 448 576 l 1,54,-1
 448 0 l 1,55,-1
 0 0 l 1,52,-1
EndSplineSet
Validated: 1
EndChar

StartChar: quotesingle
Encoding: 39 39 10
Width: 452
GlyphClass: 1
Flags: W
LayerCount: 2
Fore
SplineSet
249 390 m 1,0,-1
 249 441 l 1,1,-1
 198 441 l 1,2,-1
 198 390 l 1,3,-1
 249 390 l 1,0,-1
249 454 m 1,4,-1
 249 505 l 1,5,-1
 198 505 l 1,6,-1
 198 454 l 1,7,-1
 249 454 l 1,4,-1
0 0 m 1,8,-1
 0 576 l 1,9,-1
 448 576 l 1,10,-1
 448 0 l 1,11,-1
 0 0 l 1,8,-1
EndSplineSet
Validated: 1
EndChar

StartChar: parenleft
Encoding: 40 40 11
Width: 452
GlyphClass: 1
Flags: W
LayerCount: 2
Fore
SplineSet
377 70 m 1,0,-1
 377 121 l 1,1,-1
 326 121 l 1,2,-1
 326 70 l 1,3,-1
 377 70 l 1,0,-1
313 134 m 1,4,-1
 313 185 l 1,5,-1
 262 185 l 1,6,-1
 262 134 l 1,7,-1
 313 134 l 1,4,-1
249 198 m 1,8,-1
 249 249 l 1,9,-1
 198 249 l 1,10,-1
 198 198 l 1,11,-1
 249 198 l 1,8,-1
249 262 m 1,12,-1
 249 313 l 1,13,-1
 198 313 l 1,14,-1
 198 262 l 1,15,-1
 249 262 l 1,12,-1
249 326 m 1,16,-1
 249 377 l 1,17,-1
 198 377 l 1,18,-1
 198 326 l 1,19,-1
 249 326 l 1,16,-1
313 390 m 1,20,-1
 313 441 l 1,21,-1
 262 441 l 1,22,-1
 262 390 l 1,23,-1
 313 390 l 1,20,-1
377 454 m 1,24,-1
 377 505 l 1,25,-1
 326 505 l 1,26,-1
 326 454 l 1,27,-1
 377 454 l 1,24,-1
0 0 m 1,28,-1
 0 576 l 1,29,-1
 448 576 l 1,30,-1
 448 0 l 1,31,-1
 0 0 l 1,28,-1
EndSplineSet
Validated: 1
EndChar

StartChar: parenright
Encoding: 41 41 12
Width: 452
GlyphClass: 1
Flags: W
LayerCount: 2
Fore
SplineSet
121 70 m 1,0,-1
 121 121 l 1,1,-1
 70 121 l 1,2,-1
 70 70 l 1,3,-1
 121 70 l 1,0,-1
185 134 m 1,4,-1
 185 185 l 1,5,-1
 134 185 l 1,6,-1
 134 134 l 1,7,-1
 185 134 l 1,4,-1
249 198 m 1,8,-1
 249 249 l 1,9,-1
 198 249 l 1,10,-1
 198 198 l 1,11,-1
 249 198 l 1,8,-1
249 262 m 1,12,-1
 249 313 l 1,13,-1
 198 313 l 1,14,-1
 198 262 l 1,15,-1
 249 262 l 1,12,-1
249 326 m 1,16,-1
 249 377 l 1,17,-1
 198 377 l 1,18,-1
 198 326 l 1,19,-1
 249 326 l 1,16,-1
185 390 m 1,20,-1
 185 441 l 1,21,-1
 134 441 l 1,22,-1
 134 390 l 1,23,-1
 185 390 l 1,20,-1
121 454 m 1,24,-1
 121 505 l 1,25,-1
 70 505 l 1,26,-1
 70 454 l 1,27,-1
 121 454 l 1,24,-1
0 0 m 1,28,-1
 0 576 l 1,29,-1
 448 576 l 1,30,-1
 448 0 l 1,31,-1
 0 0 l 1,28,-1
EndSplineSet
Validated: 1
EndChar

StartChar: asterisk
Encoding: 42 42 13
Width: 452
GlyphClass: 1
Flags: W
LayerCount: 2
Fore
SplineSet
185 326 m 1,0,-1
 185 377 l 1,1,-1
 134 377 l 1,2,-1
 134 326 l 1,3,-1
 185 326 l 1,0,-1
313 326 m 1,4,-1
 313 377 l 1,5,-1
 262 377 l 1,6,-1
 262 326 l 1,7,-1
 313 326 l 1,4,-1
121 390 m 1,8,-1
 121 441 l 1,9,-1
 70 441 l 1,10,-1
 70 390 l 1,11,-1
 121 390 l 1,8,-1
185 390 m 1,12,-1
 185 441 l 1,13,-1
 134 441 l 1,14,-1
 134 390 l 1,15,-1
 185 390 l 1,12,-1
249 390 m 1,16,-1
 249 441 l 1,17,-1
 198 441 l 1,18,-1
 198 390 l 1,19,-1
 249 390 l 1,16,-1
313 390 m 1,20,-1
 313 441 l 1,21,-1
 262 441 l 1,22,-1
 262 390 l 1,23,-1
 313 390 l 1,20,-1
377 390 m 1,24,-1
 377 441 l 1,25,-1
 326 441 l 1,26,-1
 326 390 l 1,27,-1
 377 390 l 1,24,-1
249 454 m 1,28,-1
 249 505 l 1,29,-1
 198 505 l 1,30,-1
 198 454 l 1,31,-1
 249 454 l 1,28,-1
0 0 m 1,32,-1
 0 576 l 1,33,-1
 448 576 l 1,34,-1
 448 0 l 1,35,-1
 0 0 l 1,32,-1
EndSplineSet
Validated: 1
EndChar

StartChar: plus
Encoding: 43 43 14
Width: 452
GlyphClass: 1
Flags: W
LayerCount: 2
Fore
SplineSet
249 134 m 1,0,-1
 249 185 l 1,1,-1
 198 185 l 1,2,-1
 198 134 l 1,3,-1
 249 134 l 1,0,-1
249 198 m 1,4,-1
 249 249 l 1,5,-1
 198 249 l 1,6,-1
 198 198 l 1,7,-1
 249 198 l 1,4,-1
121 262 m 1,8,-1
 121 313 l 1,9,-1
 70 313 l 1,10,-1
 70 262 l 1,11,-1
 121 262 l 1,8,-1
185 262 m 1,12,-1
 185 313 l 1,13,-1
 134 313 l 1,14,-1
 134 262 l 1,15,-1
 185 262 l 1,12,-1
249 262 m 1,16,-1
 249 313 l 1,17,-1
 198 313 l 1,18,-1
 198 262 l 1,19,-1
 249 262 l 1,16,-1
313 262 m 1,20,-1
 313 313 l 1,21,-1
 262 313 l 1,22,-1
 262 262 l 1,23,-1
 313 262 l 1,20,-1
377 262 m 1,24,-1
 377 313 l 1,25,-1
 326 313 l 1,26,-1
 326 262 l 1,27,-1
 377 262 l 1,24,-1
249 326 m 1,28,-1
 249 377 l 1,29,-1
 198 377 l 1,30,-1
 198 326 l 1,31,-1
 249 326 l 1,28,-1
249 390 m 1,32,-1
 249 441 l 1,33,-1
 198 441 l 1,34,-1
 198 390 l 1,35,-1
 249 390 l 1,32,-1
0 0 m 1,36,-1
 0 576 l 1,37,-1
 448 576 l 1,38,-1
 448 0 l 1,39,-1
 0 0 l 1,36,-1
EndSplineSet
Validated: 1
EndChar

StartChar: comma
Encoding: 44 44 15
Width: 452
GlyphClass: 1
Flags: W
LayerCount: 2
Fore
SplineSet
121 70 m 1,0,-1
 121 121 l 1,1,-1
 70 121 l 1,2,-1
 70 70 l 1,3,-1
 121 70 l 1,0,-1
185 134 m 1,4,-1
 185 185 l 1,5,-1
 134 185 l 1,6,-1
 134 134 l 1,7,-1
 185 134 l 1,4,-1
121 198 m 1,8,-1
 121 249 l 1,9,-1
 70 249 l 1,10,-1
 70 198 l 1,11,-1
 121 198 l 1,8,-1
185 198 m 1,12,-1
 185 249 l 1,13,-1
 134 249 l 1,14,-1
 134 198 l 1,15,-1
 185 198 l 1,12,-1
0 0 m 1,16,-1
 0 576 l 1,17,-1
 448 576 l 1,18,-1
 448 0 l 1,19,-1
 0 0 l 1,16,-1
EndSplineSet
Validated: 1
EndChar

StartChar: hyphen
Encoding: 45 45 16
Width: 452
GlyphClass: 1
Flags: W
LayerCount: 2
Fore
SplineSet
121 262 m 1,0,-1
 121 313 l 1,1,-1
 70 313 l 1,2,-1
 70 262 l 1,3,-1
 121 262 l 1,0,-1
185 262 m 1,4,-1
 185 313 l 1,5,-1
 134 313 l 1,6,-1
 134 262 l 1,7,-1
 185 262 l 1,4,-1
249 262 m 1,8,-1
 249 313 l 1,9,-1
 198 313 l 1,10,-1
 198 262 l 1,11,-1
 249 262 l 1,8,-1
313 262 m 1,12,-1
 313 313 l 1,13,-1
 262 313 l 1,14,-1
 262 262 l 1,15,-1
 313 262 l 1,12,-1
377 262 m 1,16,-1
 377 313 l 1,17,-1
 326 313 l 1,18,-1
 326 262 l 1,19,-1
 377 262 l 1,16,-1
0 0 m 1,20,-1
 0 576 l 1,21,-1
 448 576 l 1,22,-1
 448 0 l 1,23,-1
 0 0 l 1,20,-1
EndSplineSet
Validated: 1
EndChar

StartChar: period
Encoding: 46 46 17
Width: 452
GlyphClass: 1
Flags: W
LayerCount: 2
Fore
SplineSet
121 70 m 1,0,-1
 121 121 l 1,1,-1
 70 121 l 1,2,-1
 70 70 l 1,3,-1
 121 70 l 1,0,-1
185 70 m 1,4,-1
 185 121 l 1,5,-1
 134 121 l 1,6,-1
 134 70 l 1,7,-1
 185 70 l 1,4,-1
121 134 m 1,8,-1
 121 185 l 1,9,-1
 70 185 l 1,10,-1
 70 134 l 1,11,-1
 121 134 l 1,8,-1
185 134 m 1,12,-1
 185 185 l 1,13,-1
 134 185 l 1,14,-1
 134 134 l 1,15,-1
 185 134 l 1,12,-1
0 0 m 1,16,-1
 0 576 l 1,17,-1
 448 576 l 1,18,-1
 448 0 l 1,19,-1
 0 0 l 1,16,-1
EndSplineSet
Validated: 1
EndChar

StartChar: slash
Encoding: 47 47 18
Width: 452
GlyphClass: 1
Flags: W
LayerCount: 2
Fore
SplineSet
121 134 m 1,0,-1
 121 185 l 1,1,-1
 70 185 l 1,2,-1
 70 134 l 1,3,-1
 121 134 l 1,0,-1
185 198 m 1,4,-1
 185 249 l 1,5,-1
 134 249 l 1,6,-1
 134 198 l 1,7,-1
 185 198 l 1,4,-1
249 262 m 1,8,-1
 249 313 l 1,9,-1
 198 313 l 1,10,-1
 198 262 l 1,11,-1
 249 262 l 1,8,-1
313 326 m 1,12,-1
 313 377 l 1,13,-1
 262 377 l 1,14,-1
 262 326 l 1,15,-1
 313 326 l 1,12,-1
377 390 m 1,16,-1
 377 441 l 1,17,-1
 326 441 l 1,18,-1
 326 390 l 1,19,-1
 377 390 l 1,16,-1
0 0 m 1,20,-1
 0 576 l 1,21,-1
 448 576 l 1,22,-1
 448 0 l 1,23,-1
 0 0 l 1,20,-1
EndSplineSet
Validated: 1
EndChar

StartChar: zero
Encoding: 48 48 19
Width: 452
GlyphClass: 1
Flags: W
LayerCount: 2
Fore
SplineSet
185 70 m 1,0,-1
 185 121 l 1,1,-1
 134 121 l 1,2,-1
 134 70 l 1,3,-1
 185 70 l 1,0,-1
249 70 m 1,4,-1
 249 121 l 1,5,-1
 198 121 l 1,6,-1
 198 70 l 1,7,-1
 249 70 l 1,4,-1
313 70 m 1,8,-1
 313 121 l 1,9,-1
 262 121 l 1,10,-1
 262 70 l 1,11,-1
 313 70 l 1,8,-1
121 134 m 1,12,-1
 121 185 l 1,13,-1
 70 185 l 1,14,-1
 70 134 l 1,15,-1
 121 134 l 1,12,-1
377 134 m 1,16,-1
 377 185 l 1,17,-1
 326 185 l 1,18,-1
 326 134 l 1,19,-1
 377 134 l 1,16,-1
121 198 m 1,20,-1
 121 249 l 1,21,-1
 70 249 l 1,22,-1
 70 198 l 1,23,-1
 121 198 l 1,20,-1
185 198 m 1,24,-1
 185 249 l 1,25,-1
 134 249 l 1,26,-1
 134 198 l 1,27,-1
 185 198 l 1,24,-1
377 198 m 1,28,-1
 377 249 l 1,29,-1
 326 249 l 1,30,-1
 326 198 l 1,31,-1
 377 198 l 1,28,-1
121 262 m 1,32,-1
 121 313 l 1,33,-1
 70 313 l 1,34,-1
 70 262 l 1,35,-1
 121 262 l 1,32,-1
249 262 m 1,36,-1
 249 313 l 1,37,-1
 198 313 l 1,38,-1
 198 262 l 1,39,-1
 249 262 l 1,36,-1
377 262 m 1,40,-1
 377 313 l 1,41,-1
 326 313 l 1,42,-1
 326 262 l 1,43,-1
 377 262 l 1,40,-1
121 326 m 1,44,-1
 121 377 l 1,45,-1
 70 377 l 1,46,-1
 70 326 l 1,47,-1
 121 326 l 1,44,-1
313 326 m 1,48,-1
 313 377 l 1,49,-1
 262 377 l 1,50,-1
 262 326 l 1,51,-1
 313 326 l 1,48,-1
377 326 m 1,52,-1
 377 377 l 1,53,-1
 326 377 l 1,54,-1
 326 326 l 1,55,-1
 377 326 l 1,52,-1
121 390 m 1,56,-1
 121 441 l 1,57,-1
 70 441 l 1,58,-1
 70 390 l 1,59,-1
 121 390 l 1,56,-1
377 390 m 1,60,-1
 377 441 l 1,61,-1
 326 441 l 1,62,-1
 326 390 l 1,63,-1
 377 390 l 1,60,-1
185 454 m 1,64,-1
 185 505 l 1,65,-1
 134 505 l 1,66,-1
 134 454 l 1,67,-1
 185 454 l 1,64,-1
249 454 m 1,68,-1
 249 505 l 1,69,-1
 198 505 l 1,70,-1
 198 454 l 1,71,-1
 249 454 l 1,68,-1
313 454 m 1,72,-1
 313 505 l 1,73,-1
 262 505 l 1,74,-1
 262 454 l 1,75,-1
 313 454 l 1,72,-1
0 0 m 1,76,-1
 0 576 l 1,77,-1
 448 576 l 1,78,-1
 448 0 l 1,79,-1
 0 0 l 1,76,-1
EndSplineSet
Validated: 1
EndChar

StartChar: one
Encoding: 49 49 20
Width: 452
GlyphClass: 1
Flags: W
LayerCount: 2
Fore
SplineSet
185 70 m 1,0,-1
 185 121 l 1,1,-1
 134 121 l 1,2,-1
 134 70 l 1,3,-1
 185 70 l 1,0,-1
249 70 m 1,4,-1
 249 121 l 1,5,-1
 198 121 l 1,6,-1
 198 70 l 1,7,-1
 249 70 l 1,4,-1
313 70 m 1,8,-1
 313 121 l 1,9,-1
 262 121 l 1,10,-1
 262 70 l 1,11,-1
 313 70 l 1,8,-1
249 134 m 1,12,-1
 249 185 l 1,13,-1
 198 185 l 1,14,-1
 198 134 l 1,15,-1
 249 134 l 1,12,-1
249 198 m 1,16,-1
 249 249 l 1,17,-1
 198 249 l 1,18,-1
 198 198 l 1,19,-1
 249 198 l 1,16,-1
249 262 m 1,20,-1
 249 313 l 1,21,-1
 198 313 l 1,22,-1
 198 262 l 1,23,-1
 249 262 l 1,20,-1
249 326 m 1,24,-1
 249 377 l 1,25,-1
 198 377 l 1,26,-1
 198 326 l 1,27,-1
 249 326 l 1,24,-1
185 390 m 1,28,-1
 185 441 l 1,29,-1
 134 441 l 1,30,-1
 134 390 l 1,31,-1
 185 390 l 1,28,-1
249 390 m 1,32,-1
 249 441 l 1,33,-1
 198 441 l 1,34,-1
 198 390 l 1,35,-1
 249 390 l 1,32,-1
249 454 m 1,36,-1
 249 505 l 1,37,-1
 198 505 l 1,38,-1
 198 454 l 1,39,-1
 249 454 l 1,36,-1
0 0 m 1,40,-1
 0 576 l 1,41,-1
 448 576 l 1,42,-1
 448 0 l 1,43,-1
 0 0 l 1,40,-1
EndSplineSet
Validated: 1
EndChar

StartChar: two
Encoding: 50 50 21
Width: 452
GlyphClass: 1
Flags: W
LayerCount: 2
Fore
SplineSet
121 70 m 1,0,-1
 121 121 l 1,1,-1
 70 121 l 1,2,-1
 70 70 l 1,3,-1
 121 70 l 1,0,-1
185 70 m 1,4,-1
 185 121 l 1,5,-1
 134 121 l 1,6,-1
 134 70 l 1,7,-1
 185 70 l 1,4,-1
249 70 m 1,8,-1
 249 121 l 1,9,-1
 198 121 l 1,10,-1
 198 70 l 1,11,-1
 249 70 l 1,8,-1
313 70 m 1,12,-1
 313 121 l 1,13,-1
 262 121 l 1,14,-1
 262 70 l 1,15,-1
 313 70 l 1,12,-1
377 70 m 1,16,-1
 377 121 l 1,17,-1
 326 121 l 1,18,-1
 326 70 l 1,19,-1
 377 70 l 1,16,-1
121 134 m 1,20,-1
 121 185 l 1,21,-1
 70 185 l 1,22,-1
 70 134 l 1,23,-1
 121 134 l 1,20,-1
185 198 m 1,24,-1
 185 249 l 1,25,-1
 134 249 l 1,26,-1
 134 198 l 1,27,-1
 185 198 l 1,24,-1
249 262 m 1,28,-1
 249 313 l 1,29,-1
 198 313 l 1,30,-1
 198 262 l 1,31,-1
 249 262 l 1,28,-1
313 262 m 1,32,-1
 313 313 l 1,33,-1
 262 313 l 1,34,-1
 262 262 l 1,35,-1
 313 262 l 1,32,-1
377 326 m 1,36,-1
 377 377 l 1,37,-1
 326 377 l 1,38,-1
 326 326 l 1,39,-1
 377 326 l 1,36,-1
121 390 m 1,40,-1
 121 441 l 1,41,-1
 70 441 l 1,42,-1
 70 390 l 1,43,-1
 121 390 l 1,40,-1
377 390 m 1,44,-1
 377 441 l 1,45,-1
 326 441 l 1,46,-1
 326 390 l 1,47,-1
 377 390 l 1,44,-1
185 454 m 1,48,-1
 185 505 l 1,49,-1
 134 505 l 1,50,-1
 134 454 l 1,51,-1
 185 454 l 1,48,-1
249 454 m 1,52,-1
 249 505 l 1,53,-1
 198 505 l 1,54,-1
 198 454 l 1,55,-1
 249 454 l 1,52,-1
313 454 m 1,56,-1
 313 505 l 1,57,-1
 262 505 l 1,58,-1
 262 454 l 1,59,-1
 313 454 l 1,56,-1
0 0 m 1,60,-1
 0 576 l 1,61,-1
 448 576 l 1,62,-1
 448 0 l 1,63,-1
 0 0 l 1,60,-1
EndSplineSet
Validated: 1
EndChar

StartChar: three
Encoding: 51 51 22
Width: 452
GlyphClass: 1
Flags: W
LayerCount: 2
Fore
SplineSet
185 70 m 1,0,-1
 185 121 l 1,1,-1
 134 121 l 1,2,-1
 134 70 l 1,3,-1
 185 70 l 1,0,-1
249 70 m 1,4,-1
 249 121 l 1,5,-1
 198 121 l 1,6,-1
 198 70 l 1,7,-1
 249 70 l 1,4,-1
313 70 m 1,8,-1
 313 121 l 1,9,-1
 262 121 l 1,10,-1
 262 70 l 1,11,-1
 313 70 l 1,8,-1
121 134 m 1,12,-1
 121 185 l 1,13,-1
 70 185 l 1,14,-1
 70 134 l 1,15,-1
 121 134 l 1,12,-1
377 134 m 1,16,-1
 377 185 l 1,17,-1
 326 185 l 1,18,-1
 326 134 l 1,19,-1
 377 134 l 1,16,-1
377 198 m 1,20,-1
 377 249 l 1,21,-1
 326 249 l 1,22,-1
 326 198 l 1,23,-1
 377 198 l 1,20,-1
249 262 m 1,24,-1
 249 313 l 1,25,-1
 198 313 l 1,26,-1
 198 262 l 1,27,-1
 249 262 l 1,24,-1
313 262 m 1,28,-1
 313 313 l 1,29,-1
 262 313 l 1,30,-1
 262 262 l 1,31,-1
 313 262 l 1,28,-1
377 326 m 1,32,-1
 377 377 l 1,33,-1
 326 377 l 1,34,-1
 326 326 l 1,35,-1
 377 326 l 1,32,-1
121 390 m 1,36,-1
 121 441 l 1,37,-1
 70 441 l 1,38,-1
 70 390 l 1,39,-1
 121 390 l 1,36,-1
377 390 m 1,40,-1
 377 441 l 1,41,-1
 326 441 l 1,42,-1
 326 390 l 1,43,-1
 377 390 l 1,40,-1
185 454 m 1,44,-1
 185 505 l 1,45,-1
 134 505 l 1,46,-1
 134 454 l 1,47,-1
 185 454 l 1,44,-1
249 454 m 1,48,-1
 249 505 l 1,49,-1
 198 505 l 1,50,-1
 198 454 l 1,51,-1
 249 454 l 1,48,-1
313 454 m 1,52,-1
 313 505 l 1,53,-1
 262 505 l 1,54,-1
 262 454 l 1,55,-1
 313 454 l 1,52,-1
0 0 m 1,56,-1
 0 576 l 1,57,-1
 448 576 l 1,58,-1
 448 0 l 1,59,-1
 0 0 l 1,56,-1
EndSplineSet
Validated: 1
EndChar

StartChar: four
Encoding: 52 52 23
Width: 452
GlyphClass: 1
Flags: W
LayerCount: 2
Fore
SplineSet
313 70 m 1,0,-1
 313 121 l 1,1,-1
 262 121 l 1,2,-1
 262 70 l 1,3,-1
 313 70 l 1,0,-1
313 134 m 1,4,-1
 313 185 l 1,5,-1
 262 185 l 1,6,-1
 262 134 l 1,7,-1
 313 134 l 1,4,-1
313 198 m 1,8,-1
 313 249 l 1,9,-1
 262 249 l 1,10,-1
 262 198 l 1,11,-1
 313 198 l 1,8,-1
121 262 m 1,12,-1
 121 313 l 1,13,-1
 70 313 l 1,14,-1
 70 262 l 1,15,-1
 121 262 l 1,12,-1
185 262 m 1,16,-1
 185 313 l 1,17,-1
 134 313 l 1,18,-1
 134 262 l 1,19,-1
 185 262 l 1,16,-1
249 262 m 1,20,-1
 249 313 l 1,21,-1
 198 313 l 1,22,-1
 198 262 l 1,23,-1
 249 262 l 1,20,-1
313 262 m 1,24,-1
 313 313 l 1,25,-1
 262 313 l 1,26,-1
 262 262 l 1,27,-1
 313 262 l 1,24,-1
377 262 m 1,28,-1
 377 313 l 1,29,-1
 326 313 l 1,30,-1
 326 262 l 1,31,-1
 377 262 l 1,28,-1
121 326 m 1,32,-1
 121 377 l 1,33,-1
 70 377 l 1,34,-1
 70 326 l 1,35,-1
 121 326 l 1,32,-1
313 326 m 1,36,-1
 313 377 l 1,37,-1
 262 377 l 1,38,-1
 262 326 l 1,39,-1
 313 326 l 1,36,-1
185 390 m 1,40,-1
 185 441 l 1,41,-1
 134 441 l 1,42,-1
 134 390 l 1,43,-1
 185 390 l 1,40,-1
313 390 m 1,44,-1
 313 441 l 1,45,-1
 262 441 l 1,46,-1
 262 390 l 1,47,-1
 313 390 l 1,44,-1
249 454 m 1,48,-1
 249 505 l 1,49,-1
 198 505 l 1,50,-1
 198 454 l 1,51,-1
 249 454 l 1,48,-1
313 454 m 1,52,-1
 313 505 l 1,53,-1
 262 505 l 1,54,-1
 262 454 l 1,55,-1
 313 454 l 1,52,-1
0 0 m 1,56,-1
 0 576 l 1,57,-1
 448 576 l 1,58,-1
 448 0 l 1,59,-1
 0 0 l 1,56,-1
EndSplineSet
Validated: 1
EndChar

StartChar: five
Encoding: 53 53 24
Width: 452
GlyphClass: 1
Flags: W
LayerCount: 2
Fore
SplineSet
121 70 m 1,0,-1
 121 121 l 1,1,-1
 70 121 l 1,2,-1
 70 70 l 1,3,-1
 121 70 l 1,0,-1
185 70 m 1,4,-1
 185 121 l 1,5,-1
 134 121 l 1,6,-1
 134 70 l 1,7,-1
 185 70 l 1,4,-1
249 70 m 1,8,-1
 249 121 l 1,9,-1
 198 121 l 1,10,-1
 198 70 l 1,11,-1
 249 70 l 1,8,-1
313 70 m 1,12,-1
 313 121 l 1,13,-1
 262 121 l 1,14,-1
 262 70 l 1,15,-1
 313 70 l 1,12,-1
377 134 m 1,16,-1
 377 185 l 1,17,-1
 326 185 l 1,18,-1
 326 134 l 1,19,-1
 377 134 l 1,16,-1
377 198 m 1,20,-1
 377 249 l 1,21,-1
 326 249 l 1,22,-1
 326 198 l 1,23,-1
 377 198 l 1,20,-1
121 262 m 1,24,-1
 121 313 l 1,25,-1
 70 313 l 1,26,-1
 70 262 l 1,27,-1
 121 262 l 1,24,-1
185 262 m 1,28,-1
 185 313 l 1,29,-1
 134 313 l 1,30,-1
 134 262 l 1,31,-1
 185 262 l 1,28,-1
249 262 m 1,32,-1
 249 313 l 1,33,-1
 198 313 l 1,34,-1
 198 262 l 1,35,-1
 249 262 l 1,32,-1
313 262 m 1,36,-1
 313 313 l 1,37,-1
 262 313 l 1,38,-1
 262 262 l 1,39,-1
 313 262 l 1,36,-1
121 326 m 1,40,-1
 121 377 l 1,41,-1
 70 377 l 1,42,-1
 70 326 l 1,43,-1
 121 326 l 1,40,-1
121 390 m 1,44,-1
 121 441 l 1,45,-1
 70 441 l 1,46,-1
 70 390 l 1,47,-1
 121 390 l 1,44,-1
121 454 m 1,48,-1
 121 505 l 1,49,-1
 70 505 l 1,50,-1
 70 454 l 1,51,-1
 121 454 l 1,48,-1
185 454 m 1,52,-1
 185 505 l 1,53,-1
 134 505 l 1,54,-1
 134 454 l 1,55,-1
 185 454 l 1,52,-1
249 454 m 1,56,-1
 249 505 l 1,57,-1
 198 505 l 1,58,-1
 198 454 l 1,59,-1
 249 454 l 1,56,-1
313 454 m 1,60,-1
 313 505 l 1,61,-1
 262 505 l 1,62,-1
 262 454 l 1,63,-1
 313 454 l 1,60,-1
377 454 m 1,64,-1
 377 505 l 1,65,-1
 326 505 l 1,66,-1
 326 454 l 1,67,-1
 377 454 l 1,64,-1
0 0 m 1,68,-1
 0 576 l 1,69,-1
 448 576 l 1,70,-1
 448 0 l 1,71,-1
 0 0 l 1,68,-1
EndSplineSet
Validated: 1
EndChar

StartChar: six
Encoding: 54 54 25
Width: 452
GlyphClass: 1
Flags: W
LayerCount: 2
Fore
SplineSet
185 70 m 1,0,-1
 185 121 l 1,1,-1
 134 121 l 1,2,-1
 134 70 l 1,3,-1
 185 70 l 1,0,-1
249 70 m 1,4,-1
 249 121 l 1,5,-1
 198 121 l 1,6,-1
 198 70 l 1,7,-1
 249 70 l 1,4,-1
313 70 m 1,8,-1
 313 121 l 1,9,-1
 262 121 l 1,10,-1
 262 70 l 1,11,-1
 313 70 l 1,8,-1
121 134 m 1,12,-1
 121 185 l 1,13,-1
 70 185 l 1,14,-1
 70 134 l 1,15,-1
 121 134 l 1,12,-1
377 134 m 1,16,-1
 377 185 l 1,17,-1
 326 185 l 1,18,-1
 326 134 l 1,19,-1
 377 134 l 1,16,-1
121 198 m 1,20,-1
 121 249 l 1,21,-1
 70 249 l 1,22,-1
 70 198 l 1,23,-1
 121 198 l 1,20,-1
377 198 m 1,24,-1
 377 249 l 1,25,-1
 326 249 l 1,26,-1
 326 198 l 1,27,-1
 377 198 l 1,24,-1
121 262 m 1,28,-1
 121 313 l 1,29,-1
 70 313 l 1,30,-1
 70 262 l 1,31,-1
 121 262 l 1,28,-1
185 262 m 1,32,-1
 185 313 l 1,33,-1
 134 313 l 1,34,-1
 134 262 l 1,35,-1
 185 262 l 1,32,-1
249 262 m 1,36,-1
 249 313 l 1,37,-1
 198 313 l 1,38,-1
 198 262 l 1,39,-1
 249 262 l 1,36,-1
313 262 m 1,40,-1
 313 313 l 1,41,-1
 262 313 l 1,42,-1
 262 262 l 1,43,-1
 313 262 l 1,40,-1
121 326 m 1,44,-1
 121 377 l 1,45,-1
 70 377 l 1,46,-1
 70 326 l 1,47,-1
 121 326 l 1,44,-1
121 390 m 1,48,-1
 121 441 l 1,49,-1
 70 441 l 1,50,-1
 70 390 l 1,51,-1
 121 390 l 1,48,-1
377 390 m 1,52,-1
 377 441 l 1,53,-1
 326 441 l 1,54,-1
 326 390 l 1,55,-1
 377 390 l 1,52,-1
185 454 m 1,56,-1
 185 505 l 1,57,-1
 134 505 l 1,58,-1
 134 454 l 1,59,-1
 185 454 l 1,56,-1
249 454 m 1,60,-1
 249 505 l 1,61,-1
 198 505 l 1,62,-1
 198 454 l 1,63,-1
 249 454 l 1,60,-1
313 454 m 1,64,-1
 313 505 l 1,65,-1
 262 505 l 1,66,-1
 262 454 l 1,67,-1
 313 454 l 1,64,-1
0 0 m 1,68,-1
 0 576 l 1,69,-1
 448 576 l 1,70,-1
 448 0 l 1,71,-1
 0 0 l 1,68,-1
EndSplineSet
Validated: 1
EndChar

StartChar: seven
Encoding: 55 55 26
Width: 452
GlyphClass: 1
Flags: W
LayerCount: 2
Fore
SplineSet
249 70 m 1,0,-1
 249 121 l 1,1,-1
 198 121 l 1,2,-1
 198 70 l 1,3,-1
 249 70 l 1,0,-1
249 134 m 1,4,-1
 249 185 l 1,5,-1
 198 185 l 1,6,-1
 198 134 l 1,7,-1
 249 134 l 1,4,-1
249 198 m 1,8,-1
 249 249 l 1,9,-1
 198 249 l 1,10,-1
 198 198 l 1,11,-1
 249 198 l 1,8,-1
313 262 m 1,12,-1
 313 313 l 1,13,-1
 262 313 l 1,14,-1
 262 262 l 1,15,-1
 313 262 l 1,12,-1
377 326 m 1,16,-1
 377 377 l 1,17,-1
 326 377 l 1,18,-1
 326 326 l 1,19,-1
 377 326 l 1,16,-1
121 390 m 1,20,-1
 121 441 l 1,21,-1
 70 441 l 1,22,-1
 70 390 l 1,23,-1
 121 390 l 1,20,-1
377 390 m 1,24,-1
 377 441 l 1,25,-1
 326 441 l 1,26,-1
 326 390 l 1,27,-1
 377 390 l 1,24,-1
121 454 m 1,28,-1
 121 505 l 1,29,-1
 70 505 l 1,30,-1
 70 454 l 1,31,-1
 121 454 l 1,28,-1
185 454 m 1,32,-1
 185 505 l 1,33,-1
 134 505 l 1,34,-1
 134 454 l 1,35,-1
 185 454 l 1,32,-1
249 454 m 1,36,-1
 249 505 l 1,37,-1
 198 505 l 1,38,-1
 198 454 l 1,39,-1
 249 454 l 1,36,-1
313 454 m 1,40,-1
 313 505 l 1,41,-1
 262 505 l 1,42,-1
 262 454 l 1,43,-1
 313 454 l 1,40,-1
377 454 m 1,44,-1
 377 505 l 1,45,-1
 326 505 l 1,46,-1
 326 454 l 1,47,-1
 377 454 l 1,44,-1
0 0 m 1,48,-1
 0 576 l 1,49,-1
 448 576 l 1,50,-1
 448 0 l 1,51,-1
 0 0 l 1,48,-1
EndSplineSet
Validated: 1
EndChar

StartChar: eight
Encoding: 56 56 27
Width: 452
GlyphClass: 1
Flags: W
LayerCount: 2
Fore
SplineSet
185 70 m 1,0,-1
 185 121 l 1,1,-1
 134 121 l 1,2,-1
 134 70 l 1,3,-1
 185 70 l 1,0,-1
249 70 m 1,4,-1
 249 121 l 1,5,-1
 198 121 l 1,6,-1
 198 70 l 1,7,-1
 249 70 l 1,4,-1
313 70 m 1,8,-1
 313 121 l 1,9,-1
 262 121 l 1,10,-1
 262 70 l 1,11,-1
 313 70 l 1,8,-1
121 134 m 1,12,-1
 121 185 l 1,13,-1
 70 185 l 1,14,-1
 70 134 l 1,15,-1
 121 134 l 1,12,-1
377 134 m 1,16,-1
 377 185 l 1,17,-1
 326 185 l 1,18,-1
 326 134 l 1,19,-1
 377 134 l 1,16,-1
121 198 m 1,20,-1
 121 249 l 1,21,-1
 70 249 l 1,22,-1
 70 198 l 1,23,-1
 121 198 l 1,20,-1
377 198 m 1,24,-1
 377 249 l 1,25,-1
 326 249 l 1,26,-1
 326 198 l 1,27,-1
 377 198 l 1,24,-1
185 262 m 1,28,-1
 185 313 l 1,29,-1
 134 313 l 1,30,-1
 134 262 l 1,31,-1
 185 262 l 1,28,-1
249 262 m 1,32,-1
 249 313 l 1,33,-1
 198 313 l 1,34,-1
 198 262 l 1,35,-1
 249 262 l 1,32,-1
313 262 m 1,36,-1
 313 313 l 1,37,-1
 262 313 l 1,38,-1
 262 262 l 1,39,-1
 313 262 l 1,36,-1
121 326 m 1,40,-1
 121 377 l 1,41,-1
 70 377 l 1,42,-1
 70 326 l 1,43,-1
 121 326 l 1,40,-1
377 326 m 1,44,-1
 377 377 l 1,45,-1
 326 377 l 1,46,-1
 326 326 l 1,47,-1
 377 326 l 1,44,-1
121 390 m 1,48,-1
 121 441 l 1,49,-1
 70 441 l 1,50,-1
 70 390 l 1,51,-1
 121 390 l 1,48,-1
377 390 m 1,52,-1
 377 441 l 1,53,-1
 326 441 l 1,54,-1
 326 390 l 1,55,-1
 377 390 l 1,52,-1
185 454 m 1,56,-1
 185 505 l 1,57,-1
 134 505 l 1,58,-1
 134 454 l 1,59,-1
 185 454 l 1,56,-1
249 454 m 1,60,-1
 249 505 l 1,61,-1
 198 505 l 1,62,-1
 198 454 l 1,63,-1
 249 454 l 1,60,-1
313 454 m 1,64,-1
 313 505 l 1,65,-1
 262 505 l 1,66,-1
 262 454 l 1,67,-1
 313 454 l 1,64,-1
0 0 m 1,68,-1
 0 576 l 1,69,-1
 448 576 l 1,70,-1
 448 0 l 1,71,-1
 0 0 l 1,68,-1
EndSplineSet
Validated: 1
EndChar

StartChar: nine
Encoding: 57 57 28
Width: 452
GlyphClass: 1
Flags: W
LayerCount: 2
Fore
SplineSet
185 70 m 1,0,-1
 185 121 l 1,1,-1
 134 121 l 1,2,-1
 134 70 l 1,3,-1
 185 70 l 1,0,-1
249 70 m 1,4,-1
 249 121 l 1,5,-1
 198 121 l 1,6,-1
 198 70 l 1,7,-1
 249 70 l 1,4,-1
313 70 m 1,8,-1
 313 121 l 1,9,-1
 262 121 l 1,10,-1
 262 70 l 1,11,-1
 313 70 l 1,8,-1
121 134 m 1,12,-1
 121 185 l 1,13,-1
 70 185 l 1,14,-1
 70 134 l 1,15,-1
 121 134 l 1,12,-1
377 134 m 1,16,-1
 377 185 l 1,17,-1
 326 185 l 1,18,-1
 326 134 l 1,19,-1
 377 134 l 1,16,-1
377 198 m 1,20,-1
 377 249 l 1,21,-1
 326 249 l 1,22,-1
 326 198 l 1,23,-1
 377 198 l 1,20,-1
185 262 m 1,24,-1
 185 313 l 1,25,-1
 134 313 l 1,26,-1
 134 262 l 1,27,-1
 185 262 l 1,24,-1
249 262 m 1,28,-1
 249 313 l 1,29,-1
 198 313 l 1,30,-1
 198 262 l 1,31,-1
 249 262 l 1,28,-1
313 262 m 1,32,-1
 313 313 l 1,33,-1
 262 313 l 1,34,-1
 262 262 l 1,35,-1
 313 262 l 1,32,-1
377 262 m 1,36,-1
 377 313 l 1,37,-1
 326 313 l 1,38,-1
 326 262 l 1,39,-1
 377 262 l 1,36,-1
121 326 m 1,40,-1
 121 377 l 1,41,-1
 70 377 l 1,42,-1
 70 326 l 1,43,-1
 121 326 l 1,40,-1
377 326 m 1,44,-1
 377 377 l 1,45,-1
 326 377 l 1,46,-1
 326 326 l 1,47,-1
 377 326 l 1,44,-1
121 390 m 1,48,-1
 121 441 l 1,49,-1
 70 441 l 1,50,-1
 70 390 l 1,51,-1
 121 390 l 1,48,-1
377 390 m 1,52,-1
 377 441 l 1,53,-1
 326 441 l 1,54,-1
 326 390 l 1,55,-1
 377 390 l 1,52,-1
185 454 m 1,56,-1
 185 505 l 1,57,-1
 134 505 l 1,58,-1
 134 454 l 1,59,-1
 185 454 l 1,56,-1
249 454 m 1,60,-1
 249 505 l 1,61,-1
 198 505 l 1,62,-1
 198 454 l 1,63,-1
 249 454 l 1,60,-1
313 454 m 1,64,-1
 313 505 l 1,65,-1
 262 505 l 1,66,-1
 262 454 l 1,67,-1
 313 454 l 1,64,-1
0 0 m 1,68,-1
 0 576 l 1,69,-1
 448 576 l 1,70,-1
 448 0 l 1,71,-1
 0 0 l 1,68,-1
EndSplineSet
Validated: 1
EndChar

StartChar: colon
Encoding: 58 58 29
Width: 452
GlyphClass: 1
Flags: W
LayerCount: 2
Fore
SplineSet
185 70 m 1,0,-1
 185 121 l 1,1,-1
 134 121 l 1,2,-1
 134 70 l 1,3,-1
 185 70 l 1,0,-1
249 70 m 1,4,-1
 249 121 l 1,5,-1
 198 121 l 1,6,-1
 198 70 l 1,7,-1
 249 70 l 1,4,-1
185 134 m 1,8,-1
 185 185 l 1,9,-1
 134 185 l 1,10,-1
 134 134 l 1,11,-1
 185 134 l 1,8,-1
249 134 m 1,12,-1
 249 185 l 1,13,-1
 198 185 l 1,14,-1
 198 134 l 1,15,-1
 249 134 l 1,12,-1
185 326 m 1,16,-1
 185 377 l 1,17,-1
 134 377 l 1,18,-1
 134 326 l 1,19,-1
 185 326 l 1,16,-1
249 326 m 1,20,-1
 249 377 l 1,21,-1
 198 377 l 1,22,-1
 198 326 l 1,23,-1
 249 326 l 1,20,-1
185 390 m 1,24,-1
 185 441 l 1,25,-1
 134 441 l 1,26,-1
 134 390 l 1,27,-1
 185 390 l 1,24,-1
249 390 m 1,28,-1
 249 441 l 1,29,-1
 198 441 l 1,30,-1
 198 390 l 1,31,-1
 249 390 l 1,28,-1
0 0 m 1,32,-1
 0 576 l 1,33,-1
 448 576 l 1,34,-1
 448 0 l 1,35,-1
 0 0 l 1,32,-1
EndSplineSet
Validated: 1
EndChar

StartChar: semicolon
Encoding: 59 59 30
Width: 452
GlyphClass: 1
Flags: W
LayerCount: 2
Fore
SplineSet
185 70 m 1,0,-1
 185 121 l 1,1,-1
 134 121 l 1,2,-1
 134 70 l 1,3,-1
 185 70 l 1,0,-1
249 134 m 1,4,-1
 249 185 l 1,5,-1
 198 185 l 1,6,-1
 198 134 l 1,7,-1
 249 134 l 1,4,-1
185 198 m 1,8,-1
 185 249 l 1,9,-1
 134 249 l 1,10,-1
 134 198 l 1,11,-1
 185 198 l 1,8,-1
249 198 m 1,12,-1
 249 249 l 1,13,-1
 198 249 l 1,14,-1
 198 198 l 1,15,-1
 249 198 l 1,12,-1
185 326 m 1,16,-1
 185 377 l 1,17,-1
 134 377 l 1,18,-1
 134 326 l 1,19,-1
 185 326 l 1,16,-1
249 326 m 1,20,-1
 249 377 l 1,21,-1
 198 377 l 1,22,-1
 198 326 l 1,23,-1
 249 326 l 1,20,-1
185 390 m 1,24,-1
 185 441 l 1,25,-1
 134 441 l 1,26,-1
 134 390 l 1,27,-1
 185 390 l 1,24,-1
249 390 m 1,28,-1
 249 441 l 1,29,-1
 198 441 l 1,30,-1
 198 390 l 1,31,-1
 249 390 l 1,28,-1
0 0 m 1,32,-1
 0 576 l 1,33,-1
 448 576 l 1,34,-1
 448 0 l 1,35,-1
 0 0 l 1,32,-1
EndSplineSet
Validated: 1
EndChar

StartChar: less
Encoding: 60 60 31
Width: 452
GlyphClass: 1
Flags: W
LayerCount: 2
Fore
SplineSet
377 70 m 1,0,-1
 377 121 l 1,1,-1
 326 121 l 1,2,-1
 326 70 l 1,3,-1
 377 70 l 1,0,-1
313 134 m 1,4,-1
 313 185 l 1,5,-1
 262 185 l 1,6,-1
 262 134 l 1,7,-1
 313 134 l 1,4,-1
249 198 m 1,8,-1
 249 249 l 1,9,-1
 198 249 l 1,10,-1
 198 198 l 1,11,-1
 249 198 l 1,8,-1
185 262 m 1,12,-1
 185 313 l 1,13,-1
 134 313 l 1,14,-1
 134 262 l 1,15,-1
 185 262 l 1,12,-1
249 326 m 1,16,-1
 249 377 l 1,17,-1
 198 377 l 1,18,-1
 198 326 l 1,19,-1
 249 326 l 1,16,-1
313 390 m 1,20,-1
 313 441 l 1,21,-1
 262 441 l 1,22,-1
 262 390 l 1,23,-1
 313 390 l 1,20,-1
377 454 m 1,24,-1
 377 505 l 1,25,-1
 326 505 l 1,26,-1
 326 454 l 1,27,-1
 377 454 l 1,24,-1
0 0 m 1,28,-1
 0 576 l 1,29,-1
 448 576 l 1,30,-1
 448 0 l 1,31,-1
 0 0 l 1,28,-1
EndSplineSet
Validated: 1
EndChar

StartChar: equal
Encoding: 61 61 32
Width: 452
GlyphClass: 1
Flags: W
LayerCount: 2
Fore
SplineSet
121 134 m 1,0,-1
 121 185 l 1,1,-1
 70 185 l 1,2,-1
 70 134 l 1,3,-1
 121 134 l 1,0,-1
185 134 m 1,4,-1
 185 185 l 1,5,-1
 134 185 l 1,6,-1
 134 134 l 1,7,-1
 185 134 l 1,4,-1
249 134 m 1,8,-1
 249 185 l 1,9,-1
 198 185 l 1,10,-1
 198 134 l 1,11,-1
 249 134 l 1,8,-1
313 134 m 1,12,-1
 313 185 l 1,13,-1
 262 185 l 1,14,-1
 262 134 l 1,15,-1
 313 134 l 1,12,-1
377 134 m 1,16,-1
 377 185 l 1,17,-1
 326 185 l 1,18,-1
 326 134 l 1,19,-1
 377 134 l 1,16,-1
121 326 m 1,20,-1
 121 377 l 1,21,-1
 70 377 l 1,22,-1
 70 326 l 1,23,-1
 121 326 l 1,20,-1
185 326 m 1,24,-1
 185 377 l 1,25,-1
 134 377 l 1,26,-1
 134 326 l 1,27,-1
 185 326 l 1,24,-1
249 326 m 1,28,-1
 249 377 l 1,29,-1
 198 377 l 1,30,-1
 198 326 l 1,31,-1
 249 326 l 1,28,-1
313 326 m 1,32,-1
 313 377 l 1,33,-1
 262 377 l 1,34,-1
 262 326 l 1,35,-1
 313 326 l 1,32,-1
377 326 m 1,36,-1
 377 377 l 1,37,-1
 326 377 l 1,38,-1
 326 326 l 1,39,-1
 377 326 l 1,36,-1
0 0 m 1,40,-1
 0 576 l 1,41,-1
 448 576 l 1,42,-1
 448 0 l 1,43,-1
 0 0 l 1,40,-1
EndSplineSet
Validated: 1
EndChar

StartChar: greater
Encoding: 62 62 33
Width: 452
GlyphClass: 1
Flags: W
LayerCount: 2
Fore
SplineSet
121 70 m 1,0,-1
 121 121 l 1,1,-1
 70 121 l 1,2,-1
 70 70 l 1,3,-1
 121 70 l 1,0,-1
185 134 m 1,4,-1
 185 185 l 1,5,-1
 134 185 l 1,6,-1
 134 134 l 1,7,-1
 185 134 l 1,4,-1
249 198 m 1,8,-1
 249 249 l 1,9,-1
 198 249 l 1,10,-1
 198 198 l 1,11,-1
 249 198 l 1,8,-1
313 262 m 1,12,-1
 313 313 l 1,13,-1
 262 313 l 1,14,-1
 262 262 l 1,15,-1
 313 262 l 1,12,-1
249 326 m 1,16,-1
 249 377 l 1,17,-1
 198 377 l 1,18,-1
 198 326 l 1,19,-1
 249 326 l 1,16,-1
185 390 m 1,20,-1
 185 441 l 1,21,-1
 134 441 l 1,22,-1
 134 390 l 1,23,-1
 185 390 l 1,20,-1
121 454 m 1,24,-1
 121 505 l 1,25,-1
 70 505 l 1,26,-1
 70 454 l 1,27,-1
 121 454 l 1,24,-1
0 0 m 1,28,-1
 0 576 l 1,29,-1
 448 576 l 1,30,-1
 448 0 l 1,31,-1
 0 0 l 1,28,-1
EndSplineSet
Validated: 1
EndChar

StartChar: question
Encoding: 63 63 34
Width: 452
GlyphClass: 1
Flags: W
LayerCount: 2
Fore
SplineSet
249 70 m 1,0,-1
 249 121 l 1,1,-1
 198 121 l 1,2,-1
 198 70 l 1,3,-1
 249 70 l 1,0,-1
249 198 m 1,4,-1
 249 249 l 1,5,-1
 198 249 l 1,6,-1
 198 198 l 1,7,-1
 249 198 l 1,4,-1
249 262 m 1,8,-1
 249 313 l 1,9,-1
 198 313 l 1,10,-1
 198 262 l 1,11,-1
 249 262 l 1,8,-1
313 262 m 1,12,-1
 313 313 l 1,13,-1
 262 313 l 1,14,-1
 262 262 l 1,15,-1
 313 262 l 1,12,-1
377 326 m 1,16,-1
 377 377 l 1,17,-1
 326 377 l 1,18,-1
 326 326 l 1,19,-1
 377 326 l 1,16,-1
121 390 m 1,20,-1
 121 441 l 1,21,-1
 70 441 l 1,22,-1
 70 390 l 1,23,-1
 121 390 l 1,20,-1
377 390 m 1,24,-1
 377 441 l 1,25,-1
 326 441 l 1,26,-1
 326 390 l 1,27,-1
 377 390 l 1,24,-1
185 454 m 1,28,-1
 185 505 l 1,29,-1
 134 505 l 1,30,-1
 134 454 l 1,31,-1
 185 454 l 1,28,-1
249 454 m 1,32,-1
 249 505 l 1,33,-1
 198 505 l 1,34,-1
 198 454 l 1,35,-1
 249 454 l 1,32,-1
313 454 m 1,36,-1
 313 505 l 1,37,-1
 262 505 l 1,38,-1
 262 454 l 1,39,-1
 313 454 l 1,36,-1
0 0 m 1,40,-1
 0 576 l 1,41,-1
 448 576 l 1,42,-1
 448 0 l 1,43,-1
 0 0 l 1,40,-1
EndSplineSet
Validated: 1
EndChar

StartChar: at
Encoding: 64 64 35
Width: 452
GlyphClass: 1
Flags: W
LayerCount: 2
Fore
SplineSet
185 70 m 1,0,-1
 185 121 l 1,1,-1
 134 121 l 1,2,-1
 134 70 l 1,3,-1
 185 70 l 1,0,-1
249 70 m 1,4,-1
 249 121 l 1,5,-1
 198 121 l 1,6,-1
 198 70 l 1,7,-1
 249 70 l 1,4,-1
313 70 m 1,8,-1
 313 121 l 1,9,-1
 262 121 l 1,10,-1
 262 70 l 1,11,-1
 313 70 l 1,8,-1
377 70 m 1,12,-1
 377 121 l 1,13,-1
 326 121 l 1,14,-1
 326 70 l 1,15,-1
 377 70 l 1,12,-1
121 134 m 1,16,-1
 121 185 l 1,17,-1
 70 185 l 1,18,-1
 70 134 l 1,19,-1
 121 134 l 1,16,-1
121 198 m 1,20,-1
 121 249 l 1,21,-1
 70 249 l 1,22,-1
 70 198 l 1,23,-1
 121 198 l 1,20,-1
249 198 m 1,24,-1
 249 249 l 1,25,-1
 198 249 l 1,26,-1
 198 198 l 1,27,-1
 249 198 l 1,24,-1
313 198 m 1,28,-1
 313 249 l 1,29,-1
 262 249 l 1,30,-1
 262 198 l 1,31,-1
 313 198 l 1,28,-1
377 198 m 1,32,-1
 377 249 l 1,33,-1
 326 249 l 1,34,-1
 326 198 l 1,35,-1
 377 198 l 1,32,-1
121 262 m 1,36,-1
 121 313 l 1,37,-1
 70 313 l 1,38,-1
 70 262 l 1,39,-1
 121 262 l 1,36,-1
249 262 m 1,40,-1
 249 313 l 1,41,-1
 198 313 l 1,42,-1
 198 262 l 1,43,-1
 249 262 l 1,40,-1
377 262 m 1,44,-1
 377 313 l 1,45,-1
 326 313 l 1,46,-1
 326 262 l 1,47,-1
 377 262 l 1,44,-1
121 326 m 1,48,-1
 121 377 l 1,49,-1
 70 377 l 1,50,-1
 70 326 l 1,51,-1
 121 326 l 1,48,-1
249 326 m 1,52,-1
 249 377 l 1,53,-1
 198 377 l 1,54,-1
 198 326 l 1,55,-1
 249 326 l 1,52,-1
313 326 m 1,56,-1
 313 377 l 1,57,-1
 262 377 l 1,58,-1
 262 326 l 1,59,-1
 313 326 l 1,56,-1
377 326 m 1,60,-1
 377 377 l 1,61,-1
 326 377 l 1,62,-1
 326 326 l 1,63,-1
 377 326 l 1,60,-1
121 390 m 1,64,-1
 121 441 l 1,65,-1
 70 441 l 1,66,-1
 70 390 l 1,67,-1
 121 390 l 1,64,-1
377 390 m 1,68,-1
 377 441 l 1,69,-1
 326 441 l 1,70,-1
 326 390 l 1,71,-1
 377 390 l 1,68,-1
185 454 m 1,72,-1
 185 505 l 1,73,-1
 134 505 l 1,74,-1
 134 454 l 1,75,-1
 185 454 l 1,72,-1
249 454 m 1,76,-1
 249 505 l 1,77,-1
 198 505 l 1,78,-1
 198 454 l 1,79,-1
 249 454 l 1,76,-1
313 454 m 1,80,-1
 313 505 l 1,81,-1
 262 505 l 1,82,-1
 262 454 l 1,83,-1
 313 454 l 1,80,-1
0 0 m 1,84,-1
 0 576 l 1,85,-1
 448 576 l 1,86,-1
 448 0 l 1,87,-1
 0 0 l 1,84,-1
EndSplineSet
Validated: 1
EndChar

StartChar: A
Encoding: 65 65 36
Width: 452
GlyphClass: 1
Flags: W
LayerCount: 2
Fore
SplineSet
121 70 m 1,0,-1
 121 121 l 1,1,-1
 70 121 l 1,2,-1
 70 70 l 1,3,-1
 121 70 l 1,0,-1
377 70 m 1,4,-1
 377 121 l 1,5,-1
 326 121 l 1,6,-1
 326 70 l 1,7,-1
 377 70 l 1,4,-1
121 134 m 1,8,-1
 121 185 l 1,9,-1
 70 185 l 1,10,-1
 70 134 l 1,11,-1
 121 134 l 1,8,-1
377 134 m 1,12,-1
 377 185 l 1,13,-1
 326 185 l 1,14,-1
 326 134 l 1,15,-1
 377 134 l 1,12,-1
121 198 m 1,16,-1
 121 249 l 1,17,-1
 70 249 l 1,18,-1
 70 198 l 1,19,-1
 121 198 l 1,16,-1
377 198 m 1,20,-1
 377 249 l 1,21,-1
 326 249 l 1,22,-1
 326 198 l 1,23,-1
 377 198 l 1,20,-1
121 262 m 1,24,-1
 121 313 l 1,25,-1
 70 313 l 1,26,-1
 70 262 l 1,27,-1
 121 262 l 1,24,-1
185 262 m 1,28,-1
 185 313 l 1,29,-1
 134 313 l 1,30,-1
 134 262 l 1,31,-1
 185 262 l 1,28,-1
249 262 m 1,32,-1
 249 313 l 1,33,-1
 198 313 l 1,34,-1
 198 262 l 1,35,-1
 249 262 l 1,32,-1
313 262 m 1,36,-1
 313 313 l 1,37,-1
 262 313 l 1,38,-1
 262 262 l 1,39,-1
 313 262 l 1,36,-1
377 262 m 1,40,-1
 377 313 l 1,41,-1
 326 313 l 1,42,-1
 326 262 l 1,43,-1
 377 262 l 1,40,-1
121 326 m 1,44,-1
 121 377 l 1,45,-1
 70 377 l 1,46,-1
 70 326 l 1,47,-1
 121 326 l 1,44,-1
377 326 m 1,48,-1
 377 377 l 1,49,-1
 326 377 l 1,50,-1
 326 326 l 1,51,-1
 377 326 l 1,48,-1
185 390 m 1,52,-1
 185 441 l 1,53,-1
 134 441 l 1,54,-1
 134 390 l 1,55,-1
 185 390 l 1,52,-1
313 390 m 1,56,-1
 313 441 l 1,57,-1
 262 441 l 1,58,-1
 262 390 l 1,59,-1
 313 390 l 1,56,-1
249 454 m 1,60,-1
 249 505 l 1,61,-1
 198 505 l 1,62,-1
 198 454 l 1,63,-1
 249 454 l 1,60,-1
0 0 m 1,64,-1
 0 576 l 1,65,-1
 448 576 l 1,66,-1
 448 0 l 1,67,-1
 0 0 l 1,64,-1
EndSplineSet
Validated: 1
EndChar

StartChar: B
Encoding: 66 66 37
Width: 452
GlyphClass: 1
Flags: W
LayerCount: 2
Fore
SplineSet
121 70 m 1,0,-1
 121 121 l 1,1,-1
 70 121 l 1,2,-1
 70 70 l 1,3,-1
 121 70 l 1,0,-1
185 70 m 1,4,-1
 185 121 l 1,5,-1
 134 121 l 1,6,-1
 134 70 l 1,7,-1
 185 70 l 1,4,-1
249 70 m 1,8,-1
 249 121 l 1,9,-1
 198 121 l 1,10,-1
 198 70 l 1,11,-1
 249 70 l 1,8,-1
313 70 m 1,12,-1
 313 121 l 1,13,-1
 262 121 l 1,14,-1
 262 70 l 1,15,-1
 313 70 l 1,12,-1
121 134 m 1,16,-1
 121 185 l 1,17,-1
 70 185 l 1,18,-1
 70 134 l 1,19,-1
 121 134 l 1,16,-1
377 134 m 1,20,-1
 377 185 l 1,21,-1
 326 185 l 1,22,-1
 326 134 l 1,23,-1
 377 134 l 1,20,-1
121 198 m 1,24,-1
 121 249 l 1,25,-1
 70 249 l 1,26,-1
 70 198 l 1,27,-1
 121 198 l 1,24,-1
377 198 m 1,28,-1
 377 249 l 1,29,-1
 326 249 l 1,30,-1
 326 198 l 1,31,-1
 377 198 l 1,28,-1
121 262 m 1,32,-1
 121 313 l 1,33,-1
 70 313 l 1,34,-1
 70 262 l 1,35,-1
 121 262 l 1,32,-1
185 262 m 1,36,-1
 185 313 l 1,37,-1
 134 313 l 1,38,-1
 134 262 l 1,39,-1
 185 262 l 1,36,-1
249 262 m 1,40,-1
 249 313 l 1,41,-1
 198 313 l 1,42,-1
 198 262 l 1,43,-1
 249 262 l 1,40,-1
313 262 m 1,44,-1
 313 313 l 1,45,-1
 262 313 l 1,46,-1
 262 262 l 1,47,-1
 313 262 l 1,44,-1
121 326 m 1,48,-1
 121 377 l 1,49,-1
 70 377 l 1,50,-1
 70 326 l 1,51,-1
 121 326 l 1,48,-1
377 326 m 1,52,-1
 377 377 l 1,53,-1
 326 377 l 1,54,-1
 326 326 l 1,55,-1
 377 326 l 1,52,-1
121 390 m 1,56,-1
 121 441 l 1,57,-1
 70 441 l 1,58,-1
 70 390 l 1,59,-1
 121 390 l 1,56,-1
377 390 m 1,60,-1
 377 441 l 1,61,-1
 326 441 l 1,62,-1
 326 390 l 1,63,-1
 377 390 l 1,60,-1
121 454 m 1,64,-1
 121 505 l 1,65,-1
 70 505 l 1,66,-1
 70 454 l 1,67,-1
 121 454 l 1,64,-1
185 454 m 1,68,-1
 185 505 l 1,69,-1
 134 505 l 1,70,-1
 134 454 l 1,71,-1
 185 454 l 1,68,-1
249 454 m 1,72,-1
 249 505 l 1,73,-1
 198 505 l 1,74,-1
 198 454 l 1,75,-1
 249 454 l 1,72,-1
313 454 m 1,76,-1
 313 505 l 1,77,-1
 262 505 l 1,78,-1
 262 454 l 1,79,-1
 313 454 l 1,76,-1
0 0 m 1,80,-1
 0 576 l 1,81,-1
 448 576 l 1,82,-1
 448 0 l 1,83,-1
 0 0 l 1,80,-1
EndSplineSet
Validated: 1
EndChar

StartChar: C
Encoding: 67 67 38
Width: 452
GlyphClass: 1
Flags: W
LayerCount: 2
Fore
SplineSet
185 70 m 1,0,-1
 185 121 l 1,1,-1
 134 121 l 1,2,-1
 134 70 l 1,3,-1
 185 70 l 1,0,-1
249 70 m 1,4,-1
 249 121 l 1,5,-1
 198 121 l 1,6,-1
 198 70 l 1,7,-1
 249 70 l 1,4,-1
313 70 m 1,8,-1
 313 121 l 1,9,-1
 262 121 l 1,10,-1
 262 70 l 1,11,-1
 313 70 l 1,8,-1
121 134 m 1,12,-1
 121 185 l 1,13,-1
 70 185 l 1,14,-1
 70 134 l 1,15,-1
 121 134 l 1,12,-1
377 134 m 1,16,-1
 377 185 l 1,17,-1
 326 185 l 1,18,-1
 326 134 l 1,19,-1
 377 134 l 1,16,-1
121 198 m 1,20,-1
 121 249 l 1,21,-1
 70 249 l 1,22,-1
 70 198 l 1,23,-1
 121 198 l 1,20,-1
121 262 m 1,24,-1
 121 313 l 1,25,-1
 70 313 l 1,26,-1
 70 262 l 1,27,-1
 121 262 l 1,24,-1
121 326 m 1,28,-1
 121 377 l 1,29,-1
 70 377 l 1,30,-1
 70 326 l 1,31,-1
 121 326 l 1,28,-1
121 390 m 1,32,-1
 121 441 l 1,33,-1
 70 441 l 1,34,-1
 70 390 l 1,35,-1
 121 390 l 1,32,-1
377 390 m 1,36,-1
 377 441 l 1,37,-1
 326 441 l 1,38,-1
 326 390 l 1,39,-1
 377 390 l 1,36,-1
185 454 m 1,40,-1
 185 505 l 1,41,-1
 134 505 l 1,42,-1
 134 454 l 1,43,-1
 185 454 l 1,40,-1
249 454 m 1,44,-1
 249 505 l 1,45,-1
 198 505 l 1,46,-1
 198 454 l 1,47,-1
 249 454 l 1,44,-1
313 454 m 1,48,-1
 313 505 l 1,49,-1
 262 505 l 1,50,-1
 262 454 l 1,51,-1
 313 454 l 1,48,-1
0 0 m 1,52,-1
 0 576 l 1,53,-1
 448 576 l 1,54,-1
 448 0 l 1,55,-1
 0 0 l 1,52,-1
EndSplineSet
Validated: 1
EndChar

StartChar: D
Encoding: 68 68 39
Width: 452
GlyphClass: 1
Flags: W
LayerCount: 2
Fore
SplineSet
121 70 m 1,0,-1
 121 121 l 1,1,-1
 70 121 l 1,2,-1
 70 70 l 1,3,-1
 121 70 l 1,0,-1
185 70 m 1,4,-1
 185 121 l 1,5,-1
 134 121 l 1,6,-1
 134 70 l 1,7,-1
 185 70 l 1,4,-1
249 70 m 1,8,-1
 249 121 l 1,9,-1
 198 121 l 1,10,-1
 198 70 l 1,11,-1
 249 70 l 1,8,-1
121 134 m 1,12,-1
 121 185 l 1,13,-1
 70 185 l 1,14,-1
 70 134 l 1,15,-1
 121 134 l 1,12,-1
313 134 m 1,16,-1
 313 185 l 1,17,-1
 262 185 l 1,18,-1
 262 134 l 1,19,-1
 313 134 l 1,16,-1
121 198 m 1,20,-1
 121 249 l 1,21,-1
 70 249 l 1,22,-1
 70 198 l 1,23,-1
 121 198 l 1,20,-1
377 198 m 1,24,-1
 377 249 l 1,25,-1
 326 249 l 1,26,-1
 326 198 l 1,27,-1
 377 198 l 1,24,-1
121 262 m 1,28,-1
 121 313 l 1,29,-1
 70 313 l 1,30,-1
 70 262 l 1,31,-1
 121 262 l 1,28,-1
377 262 m 1,32,-1
 377 313 l 1,33,-1
 326 313 l 1,34,-1
 326 262 l 1,35,-1
 377 262 l 1,32,-1
121 326 m 1,36,-1
 121 377 l 1,37,-1
 70 377 l 1,38,-1
 70 326 l 1,39,-1
 121 326 l 1,36,-1
377 326 m 1,40,-1
 377 377 l 1,41,-1
 326 377 l 1,42,-1
 326 326 l 1,43,-1
 377 326 l 1,40,-1
121 390 m 1,44,-1
 121 441 l 1,45,-1
 70 441 l 1,46,-1
 70 390 l 1,47,-1
 121 390 l 1,44,-1
313 390 m 1,48,-1
 313 441 l 1,49,-1
 262 441 l 1,50,-1
 262 390 l 1,51,-1
 313 390 l 1,48,-1
121 454 m 1,52,-1
 121 505 l 1,53,-1
 70 505 l 1,54,-1
 70 454 l 1,55,-1
 121 454 l 1,52,-1
185 454 m 1,56,-1
 185 505 l 1,57,-1
 134 505 l 1,58,-1
 134 454 l 1,59,-1
 185 454 l 1,56,-1
249 454 m 1,60,-1
 249 505 l 1,61,-1
 198 505 l 1,62,-1
 198 454 l 1,63,-1
 249 454 l 1,60,-1
0 0 m 1,64,-1
 0 576 l 1,65,-1
 448 576 l 1,66,-1
 448 0 l 1,67,-1
 0 0 l 1,64,-1
EndSplineSet
Validated: 1
EndChar

StartChar: E
Encoding: 69 69 40
Width: 452
GlyphClass: 1
Flags: W
LayerCount: 2
Fore
SplineSet
313 262 m 5,0,-1
 313 313 l 5,1,-1
 262 313 l 1,2,-1
 262 262 l 1,3,-1
 313 262 l 5,0,-1
121 70 m 1,4,-1
 121 121 l 1,5,-1
 70 121 l 1,6,-1
 70 70 l 1,7,-1
 121 70 l 1,4,-1
185 70 m 1,8,-1
 185 121 l 1,9,-1
 134 121 l 1,10,-1
 134 70 l 1,11,-1
 185 70 l 1,8,-1
249 70 m 1,12,-1
 249 121 l 1,13,-1
 198 121 l 1,14,-1
 198 70 l 1,15,-1
 249 70 l 1,12,-1
313 70 m 1,16,-1
 313 121 l 1,17,-1
 262 121 l 1,18,-1
 262 70 l 1,19,-1
 313 70 l 1,16,-1
377 70 m 1,20,-1
 377 121 l 1,21,-1
 326 121 l 1,22,-1
 326 70 l 1,23,-1
 377 70 l 1,20,-1
121 134 m 1,24,-1
 121 185 l 1,25,-1
 70 185 l 1,26,-1
 70 134 l 1,27,-1
 121 134 l 1,24,-1
121 198 m 1,28,-1
 121 249 l 1,29,-1
 70 249 l 1,30,-1
 70 198 l 1,31,-1
 121 198 l 1,28,-1
121 262 m 1,32,-1
 121 313 l 1,33,-1
 70 313 l 1,34,-1
 70 262 l 1,35,-1
 121 262 l 1,32,-1
185 262 m 1,36,-1
 185 313 l 1,37,-1
 134 313 l 1,38,-1
 134 262 l 1,39,-1
 185 262 l 1,36,-1
249 262 m 1,40,-1
 249 313 l 1,41,-1
 198 313 l 1,42,-1
 198 262 l 1,43,-1
 249 262 l 1,40,-1
121 326 m 1,44,-1
 121 377 l 1,45,-1
 70 377 l 1,46,-1
 70 326 l 1,47,-1
 121 326 l 1,44,-1
121 390 m 1,48,-1
 121 441 l 1,49,-1
 70 441 l 1,50,-1
 70 390 l 1,51,-1
 121 390 l 1,48,-1
121 454 m 1,52,-1
 121 505 l 1,53,-1
 70 505 l 1,54,-1
 70 454 l 1,55,-1
 121 454 l 1,52,-1
185 454 m 1,56,-1
 185 505 l 1,57,-1
 134 505 l 1,58,-1
 134 454 l 1,59,-1
 185 454 l 1,56,-1
249 454 m 1,60,-1
 249 505 l 1,61,-1
 198 505 l 1,62,-1
 198 454 l 1,63,-1
 249 454 l 1,60,-1
313 454 m 1,64,-1
 313 505 l 1,65,-1
 262 505 l 1,66,-1
 262 454 l 1,67,-1
 313 454 l 1,64,-1
377 454 m 1,68,-1
 377 505 l 1,69,-1
 326 505 l 1,70,-1
 326 454 l 1,71,-1
 377 454 l 1,68,-1
0 0 m 1,72,-1
 0 576 l 1,73,-1
 448 576 l 1,74,-1
 448 0 l 1,75,-1
 0 0 l 1,72,-1
EndSplineSet
Validated: 1
EndChar

StartChar: F
Encoding: 70 70 41
Width: 452
GlyphClass: 1
Flags: W
LayerCount: 2
Fore
SplineSet
313 262 m 5,0,-1
 313 313 l 5,1,-1
 262 313 l 1,2,-1
 262 262 l 1,3,-1
 313 262 l 5,0,-1
121 70 m 1,4,-1
 121 121 l 1,5,-1
 70 121 l 1,6,-1
 70 70 l 1,7,-1
 121 70 l 1,4,-1
121 134 m 1,8,-1
 121 185 l 1,9,-1
 70 185 l 1,10,-1
 70 134 l 1,11,-1
 121 134 l 1,8,-1
121 198 m 1,12,-1
 121 249 l 1,13,-1
 70 249 l 1,14,-1
 70 198 l 1,15,-1
 121 198 l 1,12,-1
121 262 m 1,16,-1
 121 313 l 1,17,-1
 70 313 l 1,18,-1
 70 262 l 1,19,-1
 121 262 l 1,16,-1
185 262 m 1,20,-1
 185 313 l 1,21,-1
 134 313 l 1,22,-1
 134 262 l 1,23,-1
 185 262 l 1,20,-1
249 262 m 1,24,-1
 249 313 l 1,25,-1
 198 313 l 1,26,-1
 198 262 l 1,27,-1
 249 262 l 1,24,-1
121 326 m 1,28,-1
 121 377 l 1,29,-1
 70 377 l 1,30,-1
 70 326 l 1,31,-1
 121 326 l 1,28,-1
121 390 m 1,32,-1
 121 441 l 1,33,-1
 70 441 l 1,34,-1
 70 390 l 1,35,-1
 121 390 l 1,32,-1
121 454 m 1,36,-1
 121 505 l 1,37,-1
 70 505 l 1,38,-1
 70 454 l 1,39,-1
 121 454 l 1,36,-1
185 454 m 1,40,-1
 185 505 l 1,41,-1
 134 505 l 1,42,-1
 134 454 l 1,43,-1
 185 454 l 1,40,-1
249 454 m 1,44,-1
 249 505 l 1,45,-1
 198 505 l 1,46,-1
 198 454 l 1,47,-1
 249 454 l 1,44,-1
313 454 m 1,48,-1
 313 505 l 1,49,-1
 262 505 l 1,50,-1
 262 454 l 1,51,-1
 313 454 l 1,48,-1
377 454 m 1,52,-1
 377 505 l 1,53,-1
 326 505 l 1,54,-1
 326 454 l 1,55,-1
 377 454 l 1,52,-1
0 0 m 1,56,-1
 0 576 l 1,57,-1
 448 576 l 1,58,-1
 448 0 l 1,59,-1
 0 0 l 1,56,-1
EndSplineSet
Validated: 1
EndChar

StartChar: G
Encoding: 71 71 42
Width: 452
GlyphClass: 1
Flags: W
LayerCount: 2
Fore
SplineSet
185 70 m 1,0,-1
 185 121 l 1,1,-1
 134 121 l 1,2,-1
 134 70 l 1,3,-1
 185 70 l 1,0,-1
249 70 m 1,4,-1
 249 121 l 1,5,-1
 198 121 l 1,6,-1
 198 70 l 1,7,-1
 249 70 l 1,4,-1
313 70 m 1,8,-1
 313 121 l 1,9,-1
 262 121 l 1,10,-1
 262 70 l 1,11,-1
 313 70 l 1,8,-1
377 70 m 1,12,-1
 377 121 l 1,13,-1
 326 121 l 1,14,-1
 326 70 l 1,15,-1
 377 70 l 1,12,-1
121 134 m 1,16,-1
 121 185 l 1,17,-1
 70 185 l 1,18,-1
 70 134 l 1,19,-1
 121 134 l 1,16,-1
377 134 m 1,20,-1
 377 185 l 1,21,-1
 326 185 l 1,22,-1
 326 134 l 1,23,-1
 377 134 l 1,20,-1
121 198 m 1,24,-1
 121 249 l 1,25,-1
 70 249 l 1,26,-1
 70 198 l 1,27,-1
 121 198 l 1,24,-1
377 198 m 1,28,-1
 377 249 l 1,29,-1
 326 249 l 1,30,-1
 326 198 l 1,31,-1
 377 198 l 1,28,-1
121 262 m 1,32,-1
 121 313 l 1,33,-1
 70 313 l 1,34,-1
 70 262 l 1,35,-1
 121 262 l 1,32,-1
249 262 m 1,36,-1
 249 313 l 1,37,-1
 198 313 l 1,38,-1
 198 262 l 1,39,-1
 249 262 l 1,36,-1
313 262 m 1,40,-1
 313 313 l 1,41,-1
 262 313 l 1,42,-1
 262 262 l 1,43,-1
 313 262 l 1,40,-1
377 262 m 1,44,-1
 377 313 l 1,45,-1
 326 313 l 1,46,-1
 326 262 l 1,47,-1
 377 262 l 1,44,-1
121 326 m 1,48,-1
 121 377 l 1,49,-1
 70 377 l 1,50,-1
 70 326 l 1,51,-1
 121 326 l 1,48,-1
121 390 m 1,52,-1
 121 441 l 1,53,-1
 70 441 l 1,54,-1
 70 390 l 1,55,-1
 121 390 l 1,52,-1
377 390 m 1,56,-1
 377 441 l 1,57,-1
 326 441 l 1,58,-1
 326 390 l 1,59,-1
 377 390 l 1,56,-1
185 454 m 1,60,-1
 185 505 l 1,61,-1
 134 505 l 1,62,-1
 134 454 l 1,63,-1
 185 454 l 1,60,-1
249 454 m 1,64,-1
 249 505 l 1,65,-1
 198 505 l 1,66,-1
 198 454 l 1,67,-1
 249 454 l 1,64,-1
313 454 m 1,68,-1
 313 505 l 1,69,-1
 262 505 l 1,70,-1
 262 454 l 1,71,-1
 313 454 l 1,68,-1
0 0 m 1,72,-1
 0 576 l 1,73,-1
 448 576 l 1,74,-1
 448 0 l 1,75,-1
 0 0 l 1,72,-1
EndSplineSet
Validated: 1
EndChar

StartChar: H
Encoding: 72 72 43
Width: 452
GlyphClass: 1
Flags: W
LayerCount: 2
Fore
SplineSet
121 70 m 1,0,-1
 121 121 l 1,1,-1
 70 121 l 1,2,-1
 70 70 l 1,3,-1
 121 70 l 1,0,-1
377 70 m 1,4,-1
 377 121 l 1,5,-1
 326 121 l 1,6,-1
 326 70 l 1,7,-1
 377 70 l 1,4,-1
121 134 m 1,8,-1
 121 185 l 1,9,-1
 70 185 l 1,10,-1
 70 134 l 1,11,-1
 121 134 l 1,8,-1
377 134 m 1,12,-1
 377 185 l 1,13,-1
 326 185 l 1,14,-1
 326 134 l 1,15,-1
 377 134 l 1,12,-1
121 198 m 1,16,-1
 121 249 l 1,17,-1
 70 249 l 1,18,-1
 70 198 l 1,19,-1
 121 198 l 1,16,-1
377 198 m 1,20,-1
 377 249 l 1,21,-1
 326 249 l 1,22,-1
 326 198 l 1,23,-1
 377 198 l 1,20,-1
121 262 m 1,24,-1
 121 313 l 1,25,-1
 70 313 l 1,26,-1
 70 262 l 1,27,-1
 121 262 l 1,24,-1
185 262 m 1,28,-1
 185 313 l 1,29,-1
 134 313 l 1,30,-1
 134 262 l 1,31,-1
 185 262 l 1,28,-1
249 262 m 1,32,-1
 249 313 l 1,33,-1
 198 313 l 1,34,-1
 198 262 l 1,35,-1
 249 262 l 1,32,-1
313 262 m 1,36,-1
 313 313 l 1,37,-1
 262 313 l 1,38,-1
 262 262 l 1,39,-1
 313 262 l 1,36,-1
377 262 m 1,40,-1
 377 313 l 1,41,-1
 326 313 l 1,42,-1
 326 262 l 1,43,-1
 377 262 l 1,40,-1
121 326 m 1,44,-1
 121 377 l 1,45,-1
 70 377 l 1,46,-1
 70 326 l 1,47,-1
 121 326 l 1,44,-1
377 326 m 1,48,-1
 377 377 l 1,49,-1
 326 377 l 1,50,-1
 326 326 l 1,51,-1
 377 326 l 1,48,-1
121 390 m 1,52,-1
 121 441 l 1,53,-1
 70 441 l 1,54,-1
 70 390 l 1,55,-1
 121 390 l 1,52,-1
377 390 m 1,56,-1
 377 441 l 1,57,-1
 326 441 l 1,58,-1
 326 390 l 1,59,-1
 377 390 l 1,56,-1
121 454 m 1,60,-1
 121 505 l 1,61,-1
 70 505 l 1,62,-1
 70 454 l 1,63,-1
 121 454 l 1,60,-1
377 454 m 1,64,-1
 377 505 l 1,65,-1
 326 505 l 1,66,-1
 326 454 l 1,67,-1
 377 454 l 1,64,-1
0 0 m 1,68,-1
 0 576 l 1,69,-1
 448 576 l 1,70,-1
 448 0 l 1,71,-1
 0 0 l 1,68,-1
EndSplineSet
Validated: 1
EndChar

StartChar: I
Encoding: 73 73 44
Width: 452
GlyphClass: 1
Flags: W
LayerCount: 2
Fore
SplineSet
185 70 m 1,0,-1
 185 121 l 1,1,-1
 134 121 l 1,2,-1
 134 70 l 1,3,-1
 185 70 l 1,0,-1
249 70 m 1,4,-1
 249 121 l 1,5,-1
 198 121 l 1,6,-1
 198 70 l 1,7,-1
 249 70 l 1,4,-1
313 70 m 1,8,-1
 313 121 l 1,9,-1
 262 121 l 1,10,-1
 262 70 l 1,11,-1
 313 70 l 1,8,-1
249 134 m 1,12,-1
 249 185 l 1,13,-1
 198 185 l 1,14,-1
 198 134 l 1,15,-1
 249 134 l 1,12,-1
249 198 m 1,16,-1
 249 249 l 1,17,-1
 198 249 l 1,18,-1
 198 198 l 1,19,-1
 249 198 l 1,16,-1
249 262 m 1,20,-1
 249 313 l 1,21,-1
 198 313 l 1,22,-1
 198 262 l 1,23,-1
 249 262 l 1,20,-1
249 326 m 1,24,-1
 249 377 l 1,25,-1
 198 377 l 1,26,-1
 198 326 l 1,27,-1
 249 326 l 1,24,-1
249 390 m 1,28,-1
 249 441 l 1,29,-1
 198 441 l 1,30,-1
 198 390 l 1,31,-1
 249 390 l 1,28,-1
185 454 m 1,32,-1
 185 505 l 1,33,-1
 134 505 l 1,34,-1
 134 454 l 1,35,-1
 185 454 l 1,32,-1
249 454 m 1,36,-1
 249 505 l 1,37,-1
 198 505 l 1,38,-1
 198 454 l 1,39,-1
 249 454 l 1,36,-1
313 454 m 1,40,-1
 313 505 l 1,41,-1
 262 505 l 1,42,-1
 262 454 l 1,43,-1
 313 454 l 1,40,-1
0 0 m 1,44,-1
 0 576 l 1,45,-1
 448 576 l 1,46,-1
 448 0 l 1,47,-1
 0 0 l 1,44,-1
EndSplineSet
Validated: 1
EndChar

StartChar: J
Encoding: 74 74 45
Width: 452
GlyphClass: 1
Flags: W
LayerCount: 2
Fore
SplineSet
185 70 m 1,0,-1
 185 121 l 1,1,-1
 134 121 l 1,2,-1
 134 70 l 1,3,-1
 185 70 l 1,0,-1
249 70 m 1,4,-1
 249 121 l 1,5,-1
 198 121 l 1,6,-1
 198 70 l 1,7,-1
 249 70 l 1,4,-1
313 70 m 1,8,-1
 313 121 l 1,9,-1
 262 121 l 1,10,-1
 262 70 l 1,11,-1
 313 70 l 1,8,-1
121 134 m 1,12,-1
 121 185 l 1,13,-1
 70 185 l 1,14,-1
 70 134 l 1,15,-1
 121 134 l 1,12,-1
377 134 m 1,16,-1
 377 185 l 1,17,-1
 326 185 l 1,18,-1
 326 134 l 1,19,-1
 377 134 l 1,16,-1
121 198 m 1,20,-1
 121 249 l 1,21,-1
 70 249 l 1,22,-1
 70 198 l 1,23,-1
 121 198 l 1,20,-1
377 198 m 1,24,-1
 377 249 l 1,25,-1
 326 249 l 1,26,-1
 326 198 l 1,27,-1
 377 198 l 1,24,-1
377 262 m 1,28,-1
 377 313 l 1,29,-1
 326 313 l 1,30,-1
 326 262 l 1,31,-1
 377 262 l 1,28,-1
377 326 m 1,32,-1
 377 377 l 1,33,-1
 326 377 l 1,34,-1
 326 326 l 1,35,-1
 377 326 l 1,32,-1
377 390 m 1,36,-1
 377 441 l 1,37,-1
 326 441 l 1,38,-1
 326 390 l 1,39,-1
 377 390 l 1,36,-1
377 454 m 1,40,-1
 377 505 l 1,41,-1
 326 505 l 1,42,-1
 326 454 l 1,43,-1
 377 454 l 1,40,-1
0 0 m 1,44,-1
 0 576 l 1,45,-1
 448 576 l 1,46,-1
 448 0 l 1,47,-1
 0 0 l 1,44,-1
EndSplineSet
Validated: 1
EndChar

StartChar: K
Encoding: 75 75 46
Width: 452
GlyphClass: 1
Flags: W
LayerCount: 2
Fore
SplineSet
121 70 m 1,0,-1
 121 121 l 1,1,-1
 70 121 l 1,2,-1
 70 70 l 1,3,-1
 121 70 l 1,0,-1
377 70 m 1,4,-1
 377 121 l 1,5,-1
 326 121 l 1,6,-1
 326 70 l 1,7,-1
 377 70 l 1,4,-1
121 134 m 1,8,-1
 121 185 l 1,9,-1
 70 185 l 1,10,-1
 70 134 l 1,11,-1
 121 134 l 1,8,-1
377 134 m 1,12,-1
 377 185 l 1,13,-1
 326 185 l 1,14,-1
 326 134 l 1,15,-1
 377 134 l 1,12,-1
121 198 m 1,16,-1
 121 249 l 1,17,-1
 70 249 l 1,18,-1
 70 198 l 1,19,-1
 121 198 l 1,16,-1
313 198 m 1,20,-1
 313 249 l 1,21,-1
 262 249 l 1,22,-1
 262 198 l 1,23,-1
 313 198 l 1,20,-1
121 262 m 1,24,-1
 121 313 l 1,25,-1
 70 313 l 1,26,-1
 70 262 l 1,27,-1
 121 262 l 1,24,-1
185 262 m 1,28,-1
 185 313 l 1,29,-1
 134 313 l 1,30,-1
 134 262 l 1,31,-1
 185 262 l 1,28,-1
249 262 m 1,32,-1
 249 313 l 1,33,-1
 198 313 l 1,34,-1
 198 262 l 1,35,-1
 249 262 l 1,32,-1
121 326 m 1,36,-1
 121 377 l 1,37,-1
 70 377 l 1,38,-1
 70 326 l 1,39,-1
 121 326 l 1,36,-1
249 326 m 1,40,-1
 249 377 l 1,41,-1
 198 377 l 1,42,-1
 198 326 l 1,43,-1
 249 326 l 1,40,-1
121 390 m 1,44,-1
 121 441 l 1,45,-1
 70 441 l 1,46,-1
 70 390 l 1,47,-1
 121 390 l 1,44,-1
313 390 m 1,48,-1
 313 441 l 1,49,-1
 262 441 l 1,50,-1
 262 390 l 1,51,-1
 313 390 l 1,48,-1
121 454 m 1,52,-1
 121 505 l 1,53,-1
 70 505 l 1,54,-1
 70 454 l 1,55,-1
 121 454 l 1,52,-1
377 454 m 1,56,-1
 377 505 l 1,57,-1
 326 505 l 1,58,-1
 326 454 l 1,59,-1
 377 454 l 1,56,-1
0 0 m 1,60,-1
 0 576 l 1,61,-1
 448 576 l 1,62,-1
 448 0 l 1,63,-1
 0 0 l 1,60,-1
EndSplineSet
Validated: 1
EndChar

StartChar: L
Encoding: 76 76 47
Width: 452
GlyphClass: 1
Flags: W
LayerCount: 2
Fore
SplineSet
121 70 m 1,0,-1
 121 121 l 1,1,-1
 70 121 l 1,2,-1
 70 70 l 1,3,-1
 121 70 l 1,0,-1
185 70 m 1,4,-1
 185 121 l 1,5,-1
 134 121 l 1,6,-1
 134 70 l 1,7,-1
 185 70 l 1,4,-1
249 70 m 1,8,-1
 249 121 l 1,9,-1
 198 121 l 1,10,-1
 198 70 l 1,11,-1
 249 70 l 1,8,-1
313 70 m 1,12,-1
 313 121 l 1,13,-1
 262 121 l 1,14,-1
 262 70 l 1,15,-1
 313 70 l 1,12,-1
377 70 m 1,16,-1
 377 121 l 1,17,-1
 326 121 l 1,18,-1
 326 70 l 1,19,-1
 377 70 l 1,16,-1
121 134 m 1,20,-1
 121 185 l 1,21,-1
 70 185 l 1,22,-1
 70 134 l 1,23,-1
 121 134 l 1,20,-1
121 198 m 1,24,-1
 121 249 l 1,25,-1
 70 249 l 1,26,-1
 70 198 l 1,27,-1
 121 198 l 1,24,-1
121 262 m 1,28,-1
 121 313 l 1,29,-1
 70 313 l 1,30,-1
 70 262 l 1,31,-1
 121 262 l 1,28,-1
121 326 m 1,32,-1
 121 377 l 1,33,-1
 70 377 l 1,34,-1
 70 326 l 1,35,-1
 121 326 l 1,32,-1
121 390 m 1,36,-1
 121 441 l 1,37,-1
 70 441 l 1,38,-1
 70 390 l 1,39,-1
 121 390 l 1,36,-1
121 454 m 1,40,-1
 121 505 l 1,41,-1
 70 505 l 1,42,-1
 70 454 l 1,43,-1
 121 454 l 1,40,-1
0 0 m 1,44,-1
 0 576 l 1,45,-1
 448 576 l 1,46,-1
 448 0 l 1,47,-1
 0 0 l 1,44,-1
EndSplineSet
Validated: 1
EndChar

StartChar: M
Encoding: 77 77 48
Width: 452
GlyphClass: 1
Flags: W
LayerCount: 2
Fore
SplineSet
121 70 m 1,0,-1
 121 121 l 1,1,-1
 70 121 l 1,2,-1
 70 70 l 1,3,-1
 121 70 l 1,0,-1
377 70 m 1,4,-1
 377 121 l 1,5,-1
 326 121 l 1,6,-1
 326 70 l 1,7,-1
 377 70 l 1,4,-1
121 134 m 1,8,-1
 121 185 l 1,9,-1
 70 185 l 1,10,-1
 70 134 l 1,11,-1
 121 134 l 1,8,-1
377 134 m 1,12,-1
 377 185 l 1,13,-1
 326 185 l 1,14,-1
 326 134 l 1,15,-1
 377 134 l 1,12,-1
121 198 m 1,16,-1
 121 249 l 1,17,-1
 70 249 l 1,18,-1
 70 198 l 1,19,-1
 121 198 l 1,16,-1
377 198 m 1,20,-1
 377 249 l 1,21,-1
 326 249 l 1,22,-1
 326 198 l 1,23,-1
 377 198 l 1,20,-1
121 262 m 1,24,-1
 121 313 l 1,25,-1
 70 313 l 1,26,-1
 70 262 l 1,27,-1
 121 262 l 1,24,-1
377 262 m 1,28,-1
 377 313 l 1,29,-1
 326 313 l 1,30,-1
 326 262 l 1,31,-1
 377 262 l 1,28,-1
121 326 m 1,32,-1
 121 377 l 1,33,-1
 70 377 l 1,34,-1
 70 326 l 1,35,-1
 121 326 l 1,32,-1
249 326 m 1,36,-1
 249 377 l 1,37,-1
 198 377 l 1,38,-1
 198 326 l 1,39,-1
 249 326 l 1,36,-1
377 326 m 1,40,-1
 377 377 l 1,41,-1
 326 377 l 1,42,-1
 326 326 l 1,43,-1
 377 326 l 1,40,-1
121 390 m 1,44,-1
 121 441 l 1,45,-1
 70 441 l 1,46,-1
 70 390 l 1,47,-1
 121 390 l 1,44,-1
185 390 m 1,48,-1
 185 441 l 1,49,-1
 134 441 l 1,50,-1
 134 390 l 1,51,-1
 185 390 l 1,48,-1
313 390 m 1,52,-1
 313 441 l 1,53,-1
 262 441 l 1,54,-1
 262 390 l 1,55,-1
 313 390 l 1,52,-1
377 390 m 1,56,-1
 377 441 l 1,57,-1
 326 441 l 1,58,-1
 326 390 l 1,59,-1
 377 390 l 1,56,-1
121 454 m 1,60,-1
 121 505 l 1,61,-1
 70 505 l 1,62,-1
 70 454 l 1,63,-1
 121 454 l 1,60,-1
377 454 m 1,64,-1
 377 505 l 1,65,-1
 326 505 l 1,66,-1
 326 454 l 1,67,-1
 377 454 l 1,64,-1
0 0 m 1,68,-1
 0 576 l 1,69,-1
 448 576 l 1,70,-1
 448 0 l 1,71,-1
 0 0 l 1,68,-1
EndSplineSet
Validated: 1
EndChar

StartChar: N
Encoding: 78 78 49
Width: 452
GlyphClass: 1
Flags: W
LayerCount: 2
Fore
SplineSet
121 70 m 1,0,-1
 121 121 l 1,1,-1
 70 121 l 1,2,-1
 70 70 l 1,3,-1
 121 70 l 1,0,-1
377 70 m 1,4,-1
 377 121 l 1,5,-1
 326 121 l 1,6,-1
 326 70 l 1,7,-1
 377 70 l 1,4,-1
121 134 m 1,8,-1
 121 185 l 1,9,-1
 70 185 l 1,10,-1
 70 134 l 1,11,-1
 121 134 l 1,8,-1
377 134 m 1,12,-1
 377 185 l 1,13,-1
 326 185 l 1,14,-1
 326 134 l 1,15,-1
 377 134 l 1,12,-1
121 198 m 1,16,-1
 121 249 l 1,17,-1
 70 249 l 1,18,-1
 70 198 l 1,19,-1
 121 198 l 1,16,-1
377 198 m 1,20,-1
 377 249 l 1,21,-1
 326 249 l 1,22,-1
 326 198 l 1,23,-1
 377 198 l 1,20,-1
121 262 m 1,24,-1
 121 313 l 1,25,-1
 70 313 l 1,26,-1
 70 262 l 1,27,-1
 121 262 l 1,24,-1
313 262 m 1,28,-1
 313 313 l 1,29,-1
 262 313 l 1,30,-1
 262 262 l 1,31,-1
 313 262 l 1,28,-1
377 262 m 1,32,-1
 377 313 l 1,33,-1
 326 313 l 1,34,-1
 326 262 l 1,35,-1
 377 262 l 1,32,-1
121 326 m 1,36,-1
 121 377 l 1,37,-1
 70 377 l 1,38,-1
 70 326 l 1,39,-1
 121 326 l 1,36,-1
249 326 m 1,40,-1
 249 377 l 1,41,-1
 198 377 l 1,42,-1
 198 326 l 1,43,-1
 249 326 l 1,40,-1
377 326 m 1,44,-1
 377 377 l 1,45,-1
 326 377 l 1,46,-1
 326 326 l 1,47,-1
 377 326 l 1,44,-1
121 390 m 1,48,-1
 121 441 l 1,49,-1
 70 441 l 1,50,-1
 70 390 l 1,51,-1
 121 390 l 1,48,-1
185 390 m 1,52,-1
 185 441 l 1,53,-1
 134 441 l 1,54,-1
 134 390 l 1,55,-1
 185 390 l 1,52,-1
377 390 m 1,56,-1
 377 441 l 1,57,-1
 326 441 l 1,58,-1
 326 390 l 1,59,-1
 377 390 l 1,56,-1
121 454 m 1,60,-1
 121 505 l 1,61,-1
 70 505 l 1,62,-1
 70 454 l 1,63,-1
 121 454 l 1,60,-1
377 454 m 1,64,-1
 377 505 l 1,65,-1
 326 505 l 1,66,-1
 326 454 l 1,67,-1
 377 454 l 1,64,-1
0 0 m 1,68,-1
 0 576 l 1,69,-1
 448 576 l 1,70,-1
 448 0 l 1,71,-1
 0 0 l 1,68,-1
EndSplineSet
Validated: 1
EndChar

StartChar: O
Encoding: 79 79 50
Width: 452
GlyphClass: 1
Flags: W
LayerCount: 2
Fore
SplineSet
185 70 m 1,0,-1
 185 121 l 1,1,-1
 134 121 l 1,2,-1
 134 70 l 1,3,-1
 185 70 l 1,0,-1
249 70 m 1,4,-1
 249 121 l 1,5,-1
 198 121 l 1,6,-1
 198 70 l 1,7,-1
 249 70 l 1,4,-1
313 70 m 1,8,-1
 313 121 l 1,9,-1
 262 121 l 1,10,-1
 262 70 l 1,11,-1
 313 70 l 1,8,-1
121 134 m 1,12,-1
 121 185 l 1,13,-1
 70 185 l 1,14,-1
 70 134 l 1,15,-1
 121 134 l 1,12,-1
377 134 m 1,16,-1
 377 185 l 1,17,-1
 326 185 l 1,18,-1
 326 134 l 1,19,-1
 377 134 l 1,16,-1
121 198 m 1,20,-1
 121 249 l 1,21,-1
 70 249 l 1,22,-1
 70 198 l 1,23,-1
 121 198 l 1,20,-1
377 198 m 1,24,-1
 377 249 l 1,25,-1
 326 249 l 1,26,-1
 326 198 l 1,27,-1
 377 198 l 1,24,-1
121 262 m 1,28,-1
 121 313 l 1,29,-1
 70 313 l 1,30,-1
 70 262 l 1,31,-1
 121 262 l 1,28,-1
377 262 m 1,32,-1
 377 313 l 1,33,-1
 326 313 l 1,34,-1
 326 262 l 1,35,-1
 377 262 l 1,32,-1
121 326 m 1,36,-1
 121 377 l 1,37,-1
 70 377 l 1,38,-1
 70 326 l 1,39,-1
 121 326 l 1,36,-1
377 326 m 1,40,-1
 377 377 l 1,41,-1
 326 377 l 1,42,-1
 326 326 l 1,43,-1
 377 326 l 1,40,-1
121 390 m 1,44,-1
 121 441 l 1,45,-1
 70 441 l 1,46,-1
 70 390 l 1,47,-1
 121 390 l 1,44,-1
377 390 m 1,48,-1
 377 441 l 1,49,-1
 326 441 l 1,50,-1
 326 390 l 1,51,-1
 377 390 l 1,48,-1
185 454 m 1,52,-1
 185 505 l 1,53,-1
 134 505 l 1,54,-1
 134 454 l 1,55,-1
 185 454 l 1,52,-1
249 454 m 1,56,-1
 249 505 l 1,57,-1
 198 505 l 1,58,-1
 198 454 l 1,59,-1
 249 454 l 1,56,-1
313 454 m 1,60,-1
 313 505 l 1,61,-1
 262 505 l 1,62,-1
 262 454 l 1,63,-1
 313 454 l 1,60,-1
0 0 m 1,64,-1
 0 576 l 1,65,-1
 448 576 l 1,66,-1
 448 0 l 1,67,-1
 0 0 l 1,64,-1
EndSplineSet
Validated: 1
EndChar

StartChar: P
Encoding: 80 80 51
Width: 452
GlyphClass: 1
Flags: W
LayerCount: 2
Fore
SplineSet
121 70 m 1,0,-1
 121 121 l 1,1,-1
 70 121 l 1,2,-1
 70 70 l 1,3,-1
 121 70 l 1,0,-1
121 134 m 1,4,-1
 121 185 l 1,5,-1
 70 185 l 1,6,-1
 70 134 l 1,7,-1
 121 134 l 1,4,-1
121 198 m 1,8,-1
 121 249 l 1,9,-1
 70 249 l 1,10,-1
 70 198 l 1,11,-1
 121 198 l 1,8,-1
121 262 m 1,12,-1
 121 313 l 1,13,-1
 70 313 l 1,14,-1
 70 262 l 1,15,-1
 121 262 l 1,12,-1
185 262 m 1,16,-1
 185 313 l 1,17,-1
 134 313 l 1,18,-1
 134 262 l 1,19,-1
 185 262 l 1,16,-1
249 262 m 1,20,-1
 249 313 l 1,21,-1
 198 313 l 1,22,-1
 198 262 l 1,23,-1
 249 262 l 1,20,-1
313 262 m 1,24,-1
 313 313 l 1,25,-1
 262 313 l 1,26,-1
 262 262 l 1,27,-1
 313 262 l 1,24,-1
121 326 m 1,28,-1
 121 377 l 1,29,-1
 70 377 l 1,30,-1
 70 326 l 1,31,-1
 121 326 l 1,28,-1
377 326 m 1,32,-1
 377 377 l 1,33,-1
 326 377 l 1,34,-1
 326 326 l 1,35,-1
 377 326 l 1,32,-1
121 390 m 1,36,-1
 121 441 l 1,37,-1
 70 441 l 1,38,-1
 70 390 l 1,39,-1
 121 390 l 1,36,-1
377 390 m 1,40,-1
 377 441 l 1,41,-1
 326 441 l 1,42,-1
 326 390 l 1,43,-1
 377 390 l 1,40,-1
121 454 m 1,44,-1
 121 505 l 1,45,-1
 70 505 l 1,46,-1
 70 454 l 1,47,-1
 121 454 l 1,44,-1
185 454 m 1,48,-1
 185 505 l 1,49,-1
 134 505 l 1,50,-1
 134 454 l 1,51,-1
 185 454 l 1,48,-1
249 454 m 1,52,-1
 249 505 l 1,53,-1
 198 505 l 1,54,-1
 198 454 l 1,55,-1
 249 454 l 1,52,-1
313 454 m 1,56,-1
 313 505 l 1,57,-1
 262 505 l 1,58,-1
 262 454 l 1,59,-1
 313 454 l 1,56,-1
0 0 m 1,60,-1
 0 576 l 1,61,-1
 448 576 l 1,62,-1
 448 0 l 1,63,-1
 0 0 l 1,60,-1
EndSplineSet
Validated: 1
EndChar

StartChar: Q
Encoding: 81 81 52
Width: 452
GlyphClass: 1
Flags: W
LayerCount: 2
Fore
SplineSet
185 70 m 1,0,-1
 185 121 l 1,1,-1
 134 121 l 1,2,-1
 134 70 l 1,3,-1
 185 70 l 1,0,-1
249 70 m 1,4,-1
 249 121 l 1,5,-1
 198 121 l 1,6,-1
 198 70 l 1,7,-1
 249 70 l 1,4,-1
313 70 m 1,8,-1
 313 121 l 1,9,-1
 262 121 l 1,10,-1
 262 70 l 1,11,-1
 313 70 l 1,8,-1
377 70 m 1,12,-1
 377 121 l 1,13,-1
 326 121 l 1,14,-1
 326 70 l 1,15,-1
 377 70 l 1,12,-1
121 134 m 1,16,-1
 121 185 l 1,17,-1
 70 185 l 1,18,-1
 70 134 l 1,19,-1
 121 134 l 1,16,-1
313 134 m 1,20,-1
 313 185 l 1,21,-1
 262 185 l 1,22,-1
 262 134 l 1,23,-1
 313 134 l 1,20,-1
377 134 m 1,24,-1
 377 185 l 1,25,-1
 326 185 l 1,26,-1
 326 134 l 1,27,-1
 377 134 l 1,24,-1
121 198 m 1,28,-1
 121 249 l 1,29,-1
 70 249 l 1,30,-1
 70 198 l 1,31,-1
 121 198 l 1,28,-1
249 198 m 1,32,-1
 249 249 l 1,33,-1
 198 249 l 1,34,-1
 198 198 l 1,35,-1
 249 198 l 1,32,-1
377 198 m 1,36,-1
 377 249 l 1,37,-1
 326 249 l 1,38,-1
 326 198 l 1,39,-1
 377 198 l 1,36,-1
121 262 m 1,40,-1
 121 313 l 1,41,-1
 70 313 l 1,42,-1
 70 262 l 1,43,-1
 121 262 l 1,40,-1
377 262 m 1,44,-1
 377 313 l 1,45,-1
 326 313 l 1,46,-1
 326 262 l 1,47,-1
 377 262 l 1,44,-1
121 326 m 1,48,-1
 121 377 l 1,49,-1
 70 377 l 1,50,-1
 70 326 l 1,51,-1
 121 326 l 1,48,-1
377 326 m 1,52,-1
 377 377 l 1,53,-1
 326 377 l 1,54,-1
 326 326 l 1,55,-1
 377 326 l 1,52,-1
121 390 m 1,56,-1
 121 441 l 1,57,-1
 70 441 l 1,58,-1
 70 390 l 1,59,-1
 121 390 l 1,56,-1
377 390 m 1,60,-1
 377 441 l 1,61,-1
 326 441 l 1,62,-1
 326 390 l 1,63,-1
 377 390 l 1,60,-1
185 454 m 1,64,-1
 185 505 l 1,65,-1
 134 505 l 1,66,-1
 134 454 l 1,67,-1
 185 454 l 1,64,-1
249 454 m 1,68,-1
 249 505 l 1,69,-1
 198 505 l 1,70,-1
 198 454 l 1,71,-1
 249 454 l 1,68,-1
313 454 m 1,72,-1
 313 505 l 1,73,-1
 262 505 l 1,74,-1
 262 454 l 1,75,-1
 313 454 l 1,72,-1
0 0 m 1,76,-1
 0 576 l 1,77,-1
 448 576 l 1,78,-1
 448 0 l 1,79,-1
 0 0 l 1,76,-1
EndSplineSet
Validated: 1
EndChar

StartChar: R
Encoding: 82 82 53
Width: 452
GlyphClass: 1
Flags: W
LayerCount: 2
Fore
SplineSet
121 70 m 1,0,-1
 121 121 l 1,1,-1
 70 121 l 1,2,-1
 70 70 l 1,3,-1
 121 70 l 1,0,-1
377 70 m 1,4,-1
 377 121 l 1,5,-1
 326 121 l 1,6,-1
 326 70 l 1,7,-1
 377 70 l 1,4,-1
121 134 m 1,8,-1
 121 185 l 1,9,-1
 70 185 l 1,10,-1
 70 134 l 1,11,-1
 121 134 l 1,8,-1
377 134 m 1,12,-1
 377 185 l 1,13,-1
 326 185 l 1,14,-1
 326 134 l 1,15,-1
 377 134 l 1,12,-1
121 198 m 1,16,-1
 121 249 l 1,17,-1
 70 249 l 1,18,-1
 70 198 l 1,19,-1
 121 198 l 1,16,-1
377 198 m 1,20,-1
 377 249 l 1,21,-1
 326 249 l 1,22,-1
 326 198 l 1,23,-1
 377 198 l 1,20,-1
121 262 m 1,24,-1
 121 313 l 1,25,-1
 70 313 l 1,26,-1
 70 262 l 1,27,-1
 121 262 l 1,24,-1
185 262 m 1,28,-1
 185 313 l 1,29,-1
 134 313 l 1,30,-1
 134 262 l 1,31,-1
 185 262 l 1,28,-1
249 262 m 1,32,-1
 249 313 l 1,33,-1
 198 313 l 1,34,-1
 198 262 l 1,35,-1
 249 262 l 1,32,-1
313 262 m 1,36,-1
 313 313 l 1,37,-1
 262 313 l 1,38,-1
 262 262 l 1,39,-1
 313 262 l 1,36,-1
121 326 m 1,40,-1
 121 377 l 1,41,-1
 70 377 l 1,42,-1
 70 326 l 1,43,-1
 121 326 l 1,40,-1
377 326 m 1,44,-1
 377 377 l 1,45,-1
 326 377 l 1,46,-1
 326 326 l 1,47,-1
 377 326 l 1,44,-1
121 390 m 1,48,-1
 121 441 l 1,49,-1
 70 441 l 1,50,-1
 70 390 l 1,51,-1
 121 390 l 1,48,-1
377 390 m 1,52,-1
 377 441 l 1,53,-1
 326 441 l 1,54,-1
 326 390 l 1,55,-1
 377 390 l 1,52,-1
121 454 m 1,56,-1
 121 505 l 1,57,-1
 70 505 l 1,58,-1
 70 454 l 1,59,-1
 121 454 l 1,56,-1
185 454 m 1,60,-1
 185 505 l 1,61,-1
 134 505 l 1,62,-1
 134 454 l 1,63,-1
 185 454 l 1,60,-1
249 454 m 1,64,-1
 249 505 l 1,65,-1
 198 505 l 1,66,-1
 198 454 l 1,67,-1
 249 454 l 1,64,-1
313 454 m 1,68,-1
 313 505 l 1,69,-1
 262 505 l 1,70,-1
 262 454 l 1,71,-1
 313 454 l 1,68,-1
0 0 m 1,72,-1
 0 576 l 1,73,-1
 448 576 l 1,74,-1
 448 0 l 1,75,-1
 0 0 l 1,72,-1
EndSplineSet
Validated: 1
EndChar

StartChar: S
Encoding: 83 83 54
Width: 452
GlyphClass: 1
Flags: W
LayerCount: 2
Fore
SplineSet
185 70 m 1,0,-1
 185 121 l 1,1,-1
 134 121 l 1,2,-1
 134 70 l 1,3,-1
 185 70 l 1,0,-1
249 70 m 1,4,-1
 249 121 l 1,5,-1
 198 121 l 1,6,-1
 198 70 l 1,7,-1
 249 70 l 1,4,-1
313 70 m 1,8,-1
 313 121 l 1,9,-1
 262 121 l 1,10,-1
 262 70 l 1,11,-1
 313 70 l 1,8,-1
121 134 m 1,12,-1
 121 185 l 1,13,-1
 70 185 l 1,14,-1
 70 134 l 1,15,-1
 121 134 l 1,12,-1
377 134 m 1,16,-1
 377 185 l 1,17,-1
 326 185 l 1,18,-1
 326 134 l 1,19,-1
 377 134 l 1,16,-1
377 198 m 1,20,-1
 377 249 l 1,21,-1
 326 249 l 1,22,-1
 326 198 l 1,23,-1
 377 198 l 1,20,-1
185 262 m 1,24,-1
 185 313 l 1,25,-1
 134 313 l 1,26,-1
 134 262 l 1,27,-1
 185 262 l 1,24,-1
249 262 m 1,28,-1
 249 313 l 1,29,-1
 198 313 l 1,30,-1
 198 262 l 1,31,-1
 249 262 l 1,28,-1
313 262 m 1,32,-1
 313 313 l 1,33,-1
 262 313 l 1,34,-1
 262 262 l 1,35,-1
 313 262 l 1,32,-1
121 326 m 1,36,-1
 121 377 l 1,37,-1
 70 377 l 1,38,-1
 70 326 l 1,39,-1
 121 326 l 1,36,-1
121 390 m 1,40,-1
 121 441 l 1,41,-1
 70 441 l 1,42,-1
 70 390 l 1,43,-1
 121 390 l 1,40,-1
377 390 m 1,44,-1
 377 441 l 1,45,-1
 326 441 l 1,46,-1
 326 390 l 1,47,-1
 377 390 l 1,44,-1
185 454 m 1,48,-1
 185 505 l 1,49,-1
 134 505 l 1,50,-1
 134 454 l 1,51,-1
 185 454 l 1,48,-1
249 454 m 1,52,-1
 249 505 l 1,53,-1
 198 505 l 1,54,-1
 198 454 l 1,55,-1
 249 454 l 1,52,-1
313 454 m 1,56,-1
 313 505 l 1,57,-1
 262 505 l 1,58,-1
 262 454 l 1,59,-1
 313 454 l 1,56,-1
0 0 m 1,60,-1
 0 576 l 1,61,-1
 448 576 l 1,62,-1
 448 0 l 1,63,-1
 0 0 l 1,60,-1
EndSplineSet
Validated: 1
EndChar

StartChar: T
Encoding: 84 84 55
Width: 452
GlyphClass: 1
Flags: W
LayerCount: 2
Fore
SplineSet
249 70 m 1,0,-1
 249 121 l 1,1,-1
 198 121 l 1,2,-1
 198 70 l 1,3,-1
 249 70 l 1,0,-1
249 134 m 1,4,-1
 249 185 l 1,5,-1
 198 185 l 1,6,-1
 198 134 l 1,7,-1
 249 134 l 1,4,-1
249 198 m 1,8,-1
 249 249 l 1,9,-1
 198 249 l 1,10,-1
 198 198 l 1,11,-1
 249 198 l 1,8,-1
249 262 m 1,12,-1
 249 313 l 1,13,-1
 198 313 l 1,14,-1
 198 262 l 1,15,-1
 249 262 l 1,12,-1
249 326 m 1,16,-1
 249 377 l 1,17,-1
 198 377 l 1,18,-1
 198 326 l 1,19,-1
 249 326 l 1,16,-1
249 390 m 1,20,-1
 249 441 l 1,21,-1
 198 441 l 1,22,-1
 198 390 l 1,23,-1
 249 390 l 1,20,-1
121 454 m 1,24,-1
 121 505 l 1,25,-1
 70 505 l 1,26,-1
 70 454 l 1,27,-1
 121 454 l 1,24,-1
185 454 m 1,28,-1
 185 505 l 1,29,-1
 134 505 l 1,30,-1
 134 454 l 1,31,-1
 185 454 l 1,28,-1
249 454 m 1,32,-1
 249 505 l 1,33,-1
 198 505 l 1,34,-1
 198 454 l 1,35,-1
 249 454 l 1,32,-1
313 454 m 1,36,-1
 313 505 l 1,37,-1
 262 505 l 1,38,-1
 262 454 l 1,39,-1
 313 454 l 1,36,-1
377 454 m 1,40,-1
 377 505 l 1,41,-1
 326 505 l 1,42,-1
 326 454 l 1,43,-1
 377 454 l 1,40,-1
0 0 m 1,44,-1
 0 576 l 1,45,-1
 448 576 l 1,46,-1
 448 0 l 1,47,-1
 0 0 l 1,44,-1
EndSplineSet
Validated: 1
EndChar

StartChar: U
Encoding: 85 85 56
Width: 452
GlyphClass: 1
Flags: W
LayerCount: 2
Fore
SplineSet
185 70 m 1,0,-1
 185 121 l 1,1,-1
 134 121 l 1,2,-1
 134 70 l 1,3,-1
 185 70 l 1,0,-1
249 70 m 1,4,-1
 249 121 l 1,5,-1
 198 121 l 1,6,-1
 198 70 l 1,7,-1
 249 70 l 1,4,-1
313 70 m 1,8,-1
 313 121 l 1,9,-1
 262 121 l 1,10,-1
 262 70 l 1,11,-1
 313 70 l 1,8,-1
121 134 m 1,12,-1
 121 185 l 1,13,-1
 70 185 l 1,14,-1
 70 134 l 1,15,-1
 121 134 l 1,12,-1
377 134 m 1,16,-1
 377 185 l 1,17,-1
 326 185 l 1,18,-1
 326 134 l 1,19,-1
 377 134 l 1,16,-1
121 198 m 1,20,-1
 121 249 l 1,21,-1
 70 249 l 1,22,-1
 70 198 l 1,23,-1
 121 198 l 1,20,-1
377 198 m 1,24,-1
 377 249 l 1,25,-1
 326 249 l 1,26,-1
 326 198 l 1,27,-1
 377 198 l 1,24,-1
121 262 m 1,28,-1
 121 313 l 1,29,-1
 70 313 l 1,30,-1
 70 262 l 1,31,-1
 121 262 l 1,28,-1
377 262 m 1,32,-1
 377 313 l 1,33,-1
 326 313 l 1,34,-1
 326 262 l 1,35,-1
 377 262 l 1,32,-1
121 326 m 1,36,-1
 121 377 l 1,37,-1
 70 377 l 1,38,-1
 70 326 l 1,39,-1
 121 326 l 1,36,-1
377 326 m 1,40,-1
 377 377 l 1,41,-1
 326 377 l 1,42,-1
 326 326 l 1,43,-1
 377 326 l 1,40,-1
121 390 m 1,44,-1
 121 441 l 1,45,-1
 70 441 l 1,46,-1
 70 390 l 1,47,-1
 121 390 l 1,44,-1
377 390 m 1,48,-1
 377 441 l 1,49,-1
 326 441 l 1,50,-1
 326 390 l 1,51,-1
 377 390 l 1,48,-1
121 454 m 1,52,-1
 121 505 l 1,53,-1
 70 505 l 1,54,-1
 70 454 l 1,55,-1
 121 454 l 1,52,-1
377 454 m 1,56,-1
 377 505 l 1,57,-1
 326 505 l 1,58,-1
 326 454 l 1,59,-1
 377 454 l 1,56,-1
0 0 m 1,60,-1
 0 576 l 1,61,-1
 448 576 l 1,62,-1
 448 0 l 1,63,-1
 0 0 l 1,60,-1
EndSplineSet
Validated: 1
EndChar

StartChar: V
Encoding: 86 86 57
Width: 452
GlyphClass: 1
Flags: W
LayerCount: 2
Fore
SplineSet
249 70 m 1,0,-1
 249 121 l 1,1,-1
 198 121 l 1,2,-1
 198 70 l 1,3,-1
 249 70 l 1,0,-1
185 134 m 1,4,-1
 185 185 l 1,5,-1
 134 185 l 1,6,-1
 134 134 l 1,7,-1
 185 134 l 1,4,-1
313 134 m 1,8,-1
 313 185 l 1,9,-1
 262 185 l 1,10,-1
 262 134 l 1,11,-1
 313 134 l 1,8,-1
121 198 m 1,12,-1
 121 249 l 1,13,-1
 70 249 l 1,14,-1
 70 198 l 1,15,-1
 121 198 l 1,12,-1
377 198 m 1,16,-1
 377 249 l 1,17,-1
 326 249 l 1,18,-1
 326 198 l 1,19,-1
 377 198 l 1,16,-1
121 262 m 1,20,-1
 121 313 l 1,21,-1
 70 313 l 1,22,-1
 70 262 l 1,23,-1
 121 262 l 1,20,-1
377 262 m 1,24,-1
 377 313 l 1,25,-1
 326 313 l 1,26,-1
 326 262 l 1,27,-1
 377 262 l 1,24,-1
121 326 m 1,28,-1
 121 377 l 1,29,-1
 70 377 l 1,30,-1
 70 326 l 1,31,-1
 121 326 l 1,28,-1
377 326 m 1,32,-1
 377 377 l 1,33,-1
 326 377 l 1,34,-1
 326 326 l 1,35,-1
 377 326 l 1,32,-1
121 390 m 1,36,-1
 121 441 l 1,37,-1
 70 441 l 1,38,-1
 70 390 l 1,39,-1
 121 390 l 1,36,-1
377 390 m 1,40,-1
 377 441 l 1,41,-1
 326 441 l 1,42,-1
 326 390 l 1,43,-1
 377 390 l 1,40,-1
121 454 m 1,44,-1
 121 505 l 1,45,-1
 70 505 l 1,46,-1
 70 454 l 1,47,-1
 121 454 l 1,44,-1
377 454 m 1,48,-1
 377 505 l 1,49,-1
 326 505 l 1,50,-1
 326 454 l 1,51,-1
 377 454 l 1,48,-1
0 0 m 1,52,-1
 0 576 l 1,53,-1
 448 576 l 1,54,-1
 448 0 l 1,55,-1
 0 0 l 1,52,-1
EndSplineSet
Validated: 1
EndChar

StartChar: W
Encoding: 87 87 58
Width: 452
GlyphClass: 1
Flags: W
LayerCount: 2
Fore
SplineSet
121 70 m 1,0,-1
 121 121 l 1,1,-1
 70 121 l 1,2,-1
 70 70 l 1,3,-1
 121 70 l 1,0,-1
185 70 m 1,4,-1
 185 121 l 1,5,-1
 134 121 l 1,6,-1
 134 70 l 1,7,-1
 185 70 l 1,4,-1
313 70 m 1,8,-1
 313 121 l 1,9,-1
 262 121 l 1,10,-1
 262 70 l 1,11,-1
 313 70 l 1,8,-1
377 70 m 1,12,-1
 377 121 l 1,13,-1
 326 121 l 1,14,-1
 326 70 l 1,15,-1
 377 70 l 1,12,-1
121 134 m 1,16,-1
 121 185 l 1,17,-1
 70 185 l 1,18,-1
 70 134 l 1,19,-1
 121 134 l 1,16,-1
249 134 m 1,20,-1
 249 185 l 1,21,-1
 198 185 l 1,22,-1
 198 134 l 1,23,-1
 249 134 l 1,20,-1
377 134 m 1,24,-1
 377 185 l 1,25,-1
 326 185 l 1,26,-1
 326 134 l 1,27,-1
 377 134 l 1,24,-1
121 198 m 1,28,-1
 121 249 l 1,29,-1
 70 249 l 1,30,-1
 70 198 l 1,31,-1
 121 198 l 1,28,-1
249 198 m 1,32,-1
 249 249 l 1,33,-1
 198 249 l 1,34,-1
 198 198 l 1,35,-1
 249 198 l 1,32,-1
377 198 m 1,36,-1
 377 249 l 1,37,-1
 326 249 l 1,38,-1
 326 198 l 1,39,-1
 377 198 l 1,36,-1
121 262 m 1,40,-1
 121 313 l 1,41,-1
 70 313 l 1,42,-1
 70 262 l 1,43,-1
 121 262 l 1,40,-1
249 262 m 1,44,-1
 249 313 l 1,45,-1
 198 313 l 1,46,-1
 198 262 l 1,47,-1
 249 262 l 1,44,-1
377 262 m 1,48,-1
 377 313 l 1,49,-1
 326 313 l 1,50,-1
 326 262 l 1,51,-1
 377 262 l 1,48,-1
121 326 m 1,52,-1
 121 377 l 1,53,-1
 70 377 l 1,54,-1
 70 326 l 1,55,-1
 121 326 l 1,52,-1
377 326 m 1,56,-1
 377 377 l 1,57,-1
 326 377 l 1,58,-1
 326 326 l 1,59,-1
 377 326 l 1,56,-1
121 390 m 1,60,-1
 121 441 l 1,61,-1
 70 441 l 1,62,-1
 70 390 l 1,63,-1
 121 390 l 1,60,-1
377 390 m 1,64,-1
 377 441 l 1,65,-1
 326 441 l 1,66,-1
 326 390 l 1,67,-1
 377 390 l 1,64,-1
121 454 m 1,68,-1
 121 505 l 1,69,-1
 70 505 l 1,70,-1
 70 454 l 1,71,-1
 121 454 l 1,68,-1
377 454 m 1,72,-1
 377 505 l 1,73,-1
 326 505 l 1,74,-1
 326 454 l 1,75,-1
 377 454 l 1,72,-1
0 0 m 1,76,-1
 0 576 l 1,77,-1
 448 576 l 1,78,-1
 448 0 l 1,79,-1
 0 0 l 1,76,-1
EndSplineSet
Validated: 1
EndChar

StartChar: X
Encoding: 88 88 59
Width: 452
GlyphClass: 1
Flags: W
LayerCount: 2
Fore
SplineSet
121 70 m 1,0,-1
 121 121 l 1,1,-1
 70 121 l 1,2,-1
 70 70 l 1,3,-1
 121 70 l 1,0,-1
377 70 m 1,4,-1
 377 121 l 1,5,-1
 326 121 l 1,6,-1
 326 70 l 1,7,-1
 377 70 l 1,4,-1
121 134 m 1,8,-1
 121 185 l 1,9,-1
 70 185 l 1,10,-1
 70 134 l 1,11,-1
 121 134 l 1,8,-1
377 134 m 1,12,-1
 377 185 l 1,13,-1
 326 185 l 1,14,-1
 326 134 l 1,15,-1
 377 134 l 1,12,-1
185 198 m 1,16,-1
 185 249 l 1,17,-1
 134 249 l 1,18,-1
 134 198 l 1,19,-1
 185 198 l 1,16,-1
313 198 m 1,20,-1
 313 249 l 1,21,-1
 262 249 l 1,22,-1
 262 198 l 1,23,-1
 313 198 l 1,20,-1
249 262 m 1,24,-1
 249 313 l 1,25,-1
 198 313 l 1,26,-1
 198 262 l 1,27,-1
 249 262 l 1,24,-1
185 326 m 1,28,-1
 185 377 l 1,29,-1
 134 377 l 1,30,-1
 134 326 l 1,31,-1
 185 326 l 1,28,-1
313 326 m 1,32,-1
 313 377 l 1,33,-1
 262 377 l 1,34,-1
 262 326 l 1,35,-1
 313 326 l 1,32,-1
121 390 m 1,36,-1
 121 441 l 1,37,-1
 70 441 l 1,38,-1
 70 390 l 1,39,-1
 121 390 l 1,36,-1
377 390 m 1,40,-1
 377 441 l 1,41,-1
 326 441 l 1,42,-1
 326 390 l 1,43,-1
 377 390 l 1,40,-1
121 454 m 1,44,-1
 121 505 l 1,45,-1
 70 505 l 1,46,-1
 70 454 l 1,47,-1
 121 454 l 1,44,-1
377 454 m 1,48,-1
 377 505 l 1,49,-1
 326 505 l 1,50,-1
 326 454 l 1,51,-1
 377 454 l 1,48,-1
0 0 m 1,52,-1
 0 576 l 1,53,-1
 448 576 l 1,54,-1
 448 0 l 1,55,-1
 0 0 l 1,52,-1
EndSplineSet
Validated: 1
EndChar

StartChar: Y
Encoding: 89 89 60
Width: 452
GlyphClass: 1
Flags: W
LayerCount: 2
Fore
SplineSet
249 70 m 1,0,-1
 249 121 l 1,1,-1
 198 121 l 1,2,-1
 198 70 l 1,3,-1
 249 70 l 1,0,-1
249 134 m 1,4,-1
 249 185 l 1,5,-1
 198 185 l 1,6,-1
 198 134 l 1,7,-1
 249 134 l 1,4,-1
249 198 m 1,8,-1
 249 249 l 1,9,-1
 198 249 l 1,10,-1
 198 198 l 1,11,-1
 249 198 l 1,8,-1
249 262 m 1,12,-1
 249 313 l 1,13,-1
 198 313 l 1,14,-1
 198 262 l 1,15,-1
 249 262 l 1,12,-1
185 326 m 1,16,-1
 185 377 l 1,17,-1
 134 377 l 1,18,-1
 134 326 l 1,19,-1
 185 326 l 1,16,-1
313 326 m 1,20,-1
 313 377 l 1,21,-1
 262 377 l 1,22,-1
 262 326 l 1,23,-1
 313 326 l 1,20,-1
121 390 m 1,24,-1
 121 441 l 1,25,-1
 70 441 l 1,26,-1
 70 390 l 1,27,-1
 121 390 l 1,24,-1
377 390 m 1,28,-1
 377 441 l 1,29,-1
 326 441 l 1,30,-1
 326 390 l 1,31,-1
 377 390 l 1,28,-1
121 454 m 1,32,-1
 121 505 l 1,33,-1
 70 505 l 1,34,-1
 70 454 l 1,35,-1
 121 454 l 1,32,-1
377 454 m 1,36,-1
 377 505 l 1,37,-1
 326 505 l 1,38,-1
 326 454 l 1,39,-1
 377 454 l 1,36,-1
0 0 m 1,40,-1
 0 576 l 1,41,-1
 448 576 l 1,42,-1
 448 0 l 1,43,-1
 0 0 l 1,40,-1
EndSplineSet
Validated: 1
EndChar

StartChar: Z
Encoding: 90 90 61
Width: 452
GlyphClass: 1
Flags: W
LayerCount: 2
Fore
SplineSet
121 70 m 1,0,-1
 121 121 l 1,1,-1
 70 121 l 1,2,-1
 70 70 l 1,3,-1
 121 70 l 1,0,-1
185 70 m 1,4,-1
 185 121 l 1,5,-1
 134 121 l 1,6,-1
 134 70 l 1,7,-1
 185 70 l 1,4,-1
249 70 m 1,8,-1
 249 121 l 1,9,-1
 198 121 l 1,10,-1
 198 70 l 1,11,-1
 249 70 l 1,8,-1
313 70 m 1,12,-1
 313 121 l 1,13,-1
 262 121 l 1,14,-1
 262 70 l 1,15,-1
 313 70 l 1,12,-1
377 70 m 1,16,-1
 377 121 l 1,17,-1
 326 121 l 1,18,-1
 326 70 l 1,19,-1
 377 70 l 1,16,-1
121 134 m 1,20,-1
 121 185 l 1,21,-1
 70 185 l 1,22,-1
 70 134 l 1,23,-1
 121 134 l 1,20,-1
185 198 m 1,24,-1
 185 249 l 1,25,-1
 134 249 l 1,26,-1
 134 198 l 1,27,-1
 185 198 l 1,24,-1
249 262 m 1,28,-1
 249 313 l 1,29,-1
 198 313 l 1,30,-1
 198 262 l 1,31,-1
 249 262 l 1,28,-1
313 326 m 1,32,-1
 313 377 l 1,33,-1
 262 377 l 1,34,-1
 262 326 l 1,35,-1
 313 326 l 1,32,-1
377 390 m 1,36,-1
 377 441 l 1,37,-1
 326 441 l 1,38,-1
 326 390 l 1,39,-1
 377 390 l 1,36,-1
121 454 m 1,40,-1
 121 505 l 1,41,-1
 70 505 l 1,42,-1
 70 454 l 1,43,-1
 121 454 l 1,40,-1
185 454 m 1,44,-1
 185 505 l 1,45,-1
 134 505 l 1,46,-1
 134 454 l 1,47,-1
 185 454 l 1,44,-1
249 454 m 1,48,-1
 249 505 l 1,49,-1
 198 505 l 1,50,-1
 198 454 l 1,51,-1
 249 454 l 1,48,-1
313 454 m 1,52,-1
 313 505 l 1,53,-1
 262 505 l 1,54,-1
 262 454 l 1,55,-1
 313 454 l 1,52,-1
377 454 m 1,56,-1
 377 505 l 1,57,-1
 326 505 l 1,58,-1
 326 454 l 1,59,-1
 377 454 l 1,56,-1
0 0 m 1,60,-1
 0 576 l 1,61,-1
 448 576 l 1,62,-1
 448 0 l 1,63,-1
 0 0 l 1,60,-1
EndSplineSet
Validated: 1
EndChar

StartChar: bracketleft
Encoding: 91 91 62
Width: 452
GlyphClass: 1
Flags: W
LayerCount: 2
Fore
SplineSet
249 70 m 1,0,-1
 249 121 l 1,1,-1
 198 121 l 1,2,-1
 198 70 l 1,3,-1
 249 70 l 1,0,-1
313 70 m 1,4,-1
 313 121 l 1,5,-1
 262 121 l 1,6,-1
 262 70 l 1,7,-1
 313 70 l 1,4,-1
377 70 m 1,8,-1
 377 121 l 1,9,-1
 326 121 l 1,10,-1
 326 70 l 1,11,-1
 377 70 l 1,8,-1
249 134 m 1,12,-1
 249 185 l 1,13,-1
 198 185 l 1,14,-1
 198 134 l 1,15,-1
 249 134 l 1,12,-1
249 198 m 1,16,-1
 249 249 l 1,17,-1
 198 249 l 1,18,-1
 198 198 l 1,19,-1
 249 198 l 1,16,-1
249 262 m 1,20,-1
 249 313 l 1,21,-1
 198 313 l 1,22,-1
 198 262 l 1,23,-1
 249 262 l 1,20,-1
249 326 m 1,24,-1
 249 377 l 1,25,-1
 198 377 l 1,26,-1
 198 326 l 1,27,-1
 249 326 l 1,24,-1
249 390 m 1,28,-1
 249 441 l 1,29,-1
 198 441 l 1,30,-1
 198 390 l 1,31,-1
 249 390 l 1,28,-1
249 454 m 1,32,-1
 249 505 l 1,33,-1
 198 505 l 1,34,-1
 198 454 l 1,35,-1
 249 454 l 1,32,-1
313 454 m 1,36,-1
 313 505 l 1,37,-1
 262 505 l 1,38,-1
 262 454 l 1,39,-1
 313 454 l 1,36,-1
377 454 m 1,40,-1
 377 505 l 1,41,-1
 326 505 l 1,42,-1
 326 454 l 1,43,-1
 377 454 l 1,40,-1
0 0 m 1,44,-1
 0 576 l 1,45,-1
 448 576 l 1,46,-1
 448 0 l 1,47,-1
 0 0 l 1,44,-1
EndSplineSet
Validated: 1
EndChar

StartChar: backslash
Encoding: 92 92 63
Width: 452
GlyphClass: 1
Flags: W
LayerCount: 2
Fore
SplineSet
377 134 m 1,0,-1
 377 185 l 1,1,-1
 326 185 l 1,2,-1
 326 134 l 1,3,-1
 377 134 l 1,0,-1
313 198 m 1,4,-1
 313 249 l 1,5,-1
 262 249 l 1,6,-1
 262 198 l 1,7,-1
 313 198 l 1,4,-1
249 262 m 1,8,-1
 249 313 l 1,9,-1
 198 313 l 1,10,-1
 198 262 l 1,11,-1
 249 262 l 1,8,-1
185 326 m 1,12,-1
 185 377 l 1,13,-1
 134 377 l 1,14,-1
 134 326 l 1,15,-1
 185 326 l 1,12,-1
121 390 m 1,16,-1
 121 441 l 1,17,-1
 70 441 l 1,18,-1
 70 390 l 1,19,-1
 121 390 l 1,16,-1
0 0 m 1,20,-1
 0 576 l 1,21,-1
 448 576 l 1,22,-1
 448 0 l 1,23,-1
 0 0 l 1,20,-1
EndSplineSet
Validated: 1
EndChar

StartChar: bracketright
Encoding: 93 93 64
Width: 452
GlyphClass: 1
Flags: W
LayerCount: 2
Fore
SplineSet
121 70 m 1,0,-1
 121 121 l 1,1,-1
 70 121 l 1,2,-1
 70 70 l 1,3,-1
 121 70 l 1,0,-1
185 70 m 1,4,-1
 185 121 l 1,5,-1
 134 121 l 1,6,-1
 134 70 l 1,7,-1
 185 70 l 1,4,-1
249 70 m 1,8,-1
 249 121 l 1,9,-1
 198 121 l 1,10,-1
 198 70 l 1,11,-1
 249 70 l 1,8,-1
249 134 m 1,12,-1
 249 185 l 1,13,-1
 198 185 l 1,14,-1
 198 134 l 1,15,-1
 249 134 l 1,12,-1
249 198 m 1,16,-1
 249 249 l 1,17,-1
 198 249 l 1,18,-1
 198 198 l 1,19,-1
 249 198 l 1,16,-1
249 262 m 1,20,-1
 249 313 l 1,21,-1
 198 313 l 1,22,-1
 198 262 l 1,23,-1
 249 262 l 1,20,-1
249 326 m 1,24,-1
 249 377 l 1,25,-1
 198 377 l 1,26,-1
 198 326 l 1,27,-1
 249 326 l 1,24,-1
249 390 m 1,28,-1
 249 441 l 1,29,-1
 198 441 l 1,30,-1
 198 390 l 1,31,-1
 249 390 l 1,28,-1
121 454 m 1,32,-1
 121 505 l 1,33,-1
 70 505 l 1,34,-1
 70 454 l 1,35,-1
 121 454 l 1,32,-1
185 454 m 1,36,-1
 185 505 l 1,37,-1
 134 505 l 1,38,-1
 134 454 l 1,39,-1
 185 454 l 1,36,-1
249 454 m 1,40,-1
 249 505 l 1,41,-1
 198 505 l 1,42,-1
 198 454 l 1,43,-1
 249 454 l 1,40,-1
0 0 m 1,44,-1
 0 576 l 1,45,-1
 448 576 l 1,46,-1
 448 0 l 1,47,-1
 0 0 l 1,44,-1
EndSplineSet
Validated: 1
EndChar

StartChar: asciicircum
Encoding: 94 94 65
Width: 452
GlyphClass: 1
Flags: W
LayerCount: 2
Fore
SplineSet
121 326 m 1,0,-1
 121 377 l 1,1,-1
 70 377 l 1,2,-1
 70 326 l 1,3,-1
 121 326 l 1,0,-1
377 326 m 1,4,-1
 377 377 l 1,5,-1
 326 377 l 1,6,-1
 326 326 l 1,7,-1
 377 326 l 1,4,-1
185 390 m 1,8,-1
 185 441 l 1,9,-1
 134 441 l 1,10,-1
 134 390 l 1,11,-1
 185 390 l 1,8,-1
313 390 m 1,12,-1
 313 441 l 1,13,-1
 262 441 l 1,14,-1
 262 390 l 1,15,-1
 313 390 l 1,12,-1
249 454 m 1,16,-1
 249 505 l 1,17,-1
 198 505 l 1,18,-1
 198 454 l 1,19,-1
 249 454 l 1,16,-1
0 0 m 1,20,-1
 0 576 l 1,21,-1
 448 576 l 1,22,-1
 448 0 l 1,23,-1
 0 0 l 1,20,-1
EndSplineSet
Validated: 1
EndChar

StartChar: underscore
Encoding: 95 95 66
Width: 452
GlyphClass: 1
Flags: W
LayerCount: 2
Fore
SplineSet
121 70 m 1,0,-1
 121 121 l 1,1,-1
 70 121 l 1,2,-1
 70 70 l 1,3,-1
 121 70 l 1,0,-1
185 70 m 1,4,-1
 185 121 l 1,5,-1
 134 121 l 1,6,-1
 134 70 l 1,7,-1
 185 70 l 1,4,-1
249 70 m 1,8,-1
 249 121 l 1,9,-1
 198 121 l 1,10,-1
 198 70 l 1,11,-1
 249 70 l 1,8,-1
313 70 m 1,12,-1
 313 121 l 1,13,-1
 262 121 l 1,14,-1
 262 70 l 1,15,-1
 313 70 l 1,12,-1
377 70 m 1,16,-1
 377 121 l 1,17,-1
 326 121 l 1,18,-1
 326 70 l 1,19,-1
 377 70 l 1,16,-1
0 0 m 1,20,-1
 0 576 l 1,21,-1
 448 576 l 1,22,-1
 448 0 l 1,23,-1
 0 0 l 1,20,-1
EndSplineSet
Validated: 1
EndChar

StartChar: grave
Encoding: 96 96 67
Width: 452
GlyphClass: 1
Flags: W
LayerCount: 2
Fore
SplineSet
249 390 m 1,0,-1
 249 441 l 1,1,-1
 198 441 l 1,2,-1
 198 390 l 1,3,-1
 249 390 l 1,0,-1
185 454 m 1,4,-1
 185 505 l 1,5,-1
 134 505 l 1,6,-1
 134 454 l 1,7,-1
 185 454 l 1,4,-1
0 0 m 1,8,-1
 0 576 l 1,9,-1
 448 576 l 1,10,-1
 448 0 l 1,11,-1
 0 0 l 1,8,-1
EndSplineSet
Validated: 1
EndChar

StartChar: a
Encoding: 97 97 68
Width: 452
GlyphClass: 1
Flags: W
LayerCount: 2
Fore
SplineSet
185 70 m 1,0,-1
 185 121 l 1,1,-1
 134 121 l 1,2,-1
 134 70 l 1,3,-1
 185 70 l 1,0,-1
249 70 m 1,4,-1
 249 121 l 1,5,-1
 198 121 l 1,6,-1
 198 70 l 1,7,-1
 249 70 l 1,4,-1
313 70 m 1,8,-1
 313 121 l 1,9,-1
 262 121 l 1,10,-1
 262 70 l 1,11,-1
 313 70 l 1,8,-1
377 70 m 1,12,-1
 377 121 l 1,13,-1
 326 121 l 1,14,-1
 326 70 l 1,15,-1
 377 70 l 1,12,-1
121 134 m 1,16,-1
 121 185 l 1,17,-1
 70 185 l 1,18,-1
 70 134 l 1,19,-1
 121 134 l 1,16,-1
377 134 m 1,20,-1
 377 185 l 1,21,-1
 326 185 l 1,22,-1
 326 134 l 1,23,-1
 377 134 l 1,20,-1
185 198 m 1,24,-1
 185 249 l 1,25,-1
 134 249 l 1,26,-1
 134 198 l 1,27,-1
 185 198 l 1,24,-1
249 198 m 1,28,-1
 249 249 l 1,29,-1
 198 249 l 1,30,-1
 198 198 l 1,31,-1
 249 198 l 1,28,-1
313 198 m 1,32,-1
 313 249 l 1,33,-1
 262 249 l 1,34,-1
 262 198 l 1,35,-1
 313 198 l 1,32,-1
377 198 m 1,36,-1
 377 249 l 1,37,-1
 326 249 l 1,38,-1
 326 198 l 1,39,-1
 377 198 l 1,36,-1
377 262 m 1,40,-1
 377 313 l 1,41,-1
 326 313 l 1,42,-1
 326 262 l 1,43,-1
 377 262 l 1,40,-1
185 326 m 1,44,-1
 185 377 l 1,45,-1
 134 377 l 1,46,-1
 134 326 l 1,47,-1
 185 326 l 1,44,-1
249 326 m 1,48,-1
 249 377 l 1,49,-1
 198 377 l 1,50,-1
 198 326 l 1,51,-1
 249 326 l 1,48,-1
313 326 m 1,52,-1
 313 377 l 1,53,-1
 262 377 l 1,54,-1
 262 326 l 1,55,-1
 313 326 l 1,52,-1
0 0 m 1,56,-1
 0 576 l 1,57,-1
 448 576 l 1,58,-1
 448 0 l 1,59,-1
 0 0 l 1,56,-1
EndSplineSet
Validated: 1
EndChar

StartChar: b
Encoding: 98 98 69
Width: 452
GlyphClass: 1
Flags: W
LayerCount: 2
Fore
SplineSet
121 70 m 1,0,-1
 121 121 l 1,1,-1
 70 121 l 1,2,-1
 70 70 l 1,3,-1
 121 70 l 1,0,-1
185 70 m 1,4,-1
 185 121 l 1,5,-1
 134 121 l 1,6,-1
 134 70 l 1,7,-1
 185 70 l 1,4,-1
249 70 m 1,8,-1
 249 121 l 1,9,-1
 198 121 l 1,10,-1
 198 70 l 1,11,-1
 249 70 l 1,8,-1
313 70 m 1,12,-1
 313 121 l 1,13,-1
 262 121 l 1,14,-1
 262 70 l 1,15,-1
 313 70 l 1,12,-1
121 134 m 1,16,-1
 121 185 l 1,17,-1
 70 185 l 1,18,-1
 70 134 l 1,19,-1
 121 134 l 1,16,-1
377 134 m 1,20,-1
 377 185 l 1,21,-1
 326 185 l 1,22,-1
 326 134 l 1,23,-1
 377 134 l 1,20,-1
121 198 m 1,24,-1
 121 249 l 1,25,-1
 70 249 l 1,26,-1
 70 198 l 1,27,-1
 121 198 l 1,24,-1
377 198 m 1,28,-1
 377 249 l 1,29,-1
 326 249 l 1,30,-1
 326 198 l 1,31,-1
 377 198 l 1,28,-1
121 262 m 1,32,-1
 121 313 l 1,33,-1
 70 313 l 1,34,-1
 70 262 l 1,35,-1
 121 262 l 1,32,-1
377 262 m 1,36,-1
 377 313 l 1,37,-1
 326 313 l 1,38,-1
 326 262 l 1,39,-1
 377 262 l 1,36,-1
121 326 m 1,40,-1
 121 377 l 1,41,-1
 70 377 l 1,42,-1
 70 326 l 1,43,-1
 121 326 l 1,40,-1
185 326 m 1,44,-1
 185 377 l 1,45,-1
 134 377 l 1,46,-1
 134 326 l 1,47,-1
 185 326 l 1,44,-1
249 326 m 1,48,-1
 249 377 l 1,49,-1
 198 377 l 1,50,-1
 198 326 l 1,51,-1
 249 326 l 1,48,-1
313 326 m 1,52,-1
 313 377 l 1,53,-1
 262 377 l 1,54,-1
 262 326 l 1,55,-1
 313 326 l 1,52,-1
121 390 m 1,56,-1
 121 441 l 1,57,-1
 70 441 l 1,58,-1
 70 390 l 1,59,-1
 121 390 l 1,56,-1
121 454 m 1,60,-1
 121 505 l 1,61,-1
 70 505 l 1,62,-1
 70 454 l 1,63,-1
 121 454 l 1,60,-1
0 0 m 1,64,-1
 0 576 l 1,65,-1
 448 576 l 1,66,-1
 448 0 l 1,67,-1
 0 0 l 1,64,-1
EndSplineSet
Validated: 1
EndChar

StartChar: c
Encoding: 99 99 70
Width: 452
GlyphClass: 1
Flags: W
LayerCount: 2
Fore
SplineSet
185 70 m 1,0,-1
 185 121 l 1,1,-1
 134 121 l 1,2,-1
 134 70 l 1,3,-1
 185 70 l 1,0,-1
249 70 m 1,4,-1
 249 121 l 1,5,-1
 198 121 l 1,6,-1
 198 70 l 1,7,-1
 249 70 l 1,4,-1
313 70 m 1,8,-1
 313 121 l 1,9,-1
 262 121 l 1,10,-1
 262 70 l 1,11,-1
 313 70 l 1,8,-1
121 134 m 1,12,-1
 121 185 l 1,13,-1
 70 185 l 1,14,-1
 70 134 l 1,15,-1
 121 134 l 1,12,-1
121 198 m 1,16,-1
 121 249 l 1,17,-1
 70 249 l 1,18,-1
 70 198 l 1,19,-1
 121 198 l 1,16,-1
121 262 m 1,20,-1
 121 313 l 1,21,-1
 70 313 l 1,22,-1
 70 262 l 1,23,-1
 121 262 l 1,20,-1
377 262 m 1,24,-1
 377 313 l 1,25,-1
 326 313 l 1,26,-1
 326 262 l 1,27,-1
 377 262 l 1,24,-1
185 326 m 1,28,-1
 185 377 l 1,29,-1
 134 377 l 1,30,-1
 134 326 l 1,31,-1
 185 326 l 1,28,-1
249 326 m 1,32,-1
 249 377 l 1,33,-1
 198 377 l 1,34,-1
 198 326 l 1,35,-1
 249 326 l 1,32,-1
313 326 m 1,36,-1
 313 377 l 1,37,-1
 262 377 l 1,38,-1
 262 326 l 1,39,-1
 313 326 l 1,36,-1
0 0 m 1,40,-1
 0 576 l 1,41,-1
 448 576 l 1,42,-1
 448 0 l 1,43,-1
 0 0 l 1,40,-1
EndSplineSet
Validated: 1
EndChar

StartChar: d
Encoding: 100 100 71
Width: 452
GlyphClass: 1
Flags: W
LayerCount: 2
Fore
SplineSet
185 70 m 1,0,-1
 185 121 l 1,1,-1
 134 121 l 1,2,-1
 134 70 l 1,3,-1
 185 70 l 1,0,-1
249 70 m 1,4,-1
 249 121 l 1,5,-1
 198 121 l 1,6,-1
 198 70 l 1,7,-1
 249 70 l 1,4,-1
313 70 m 1,8,-1
 313 121 l 1,9,-1
 262 121 l 1,10,-1
 262 70 l 1,11,-1
 313 70 l 1,8,-1
377 70 m 1,12,-1
 377 121 l 1,13,-1
 326 121 l 1,14,-1
 326 70 l 1,15,-1
 377 70 l 1,12,-1
121 134 m 1,16,-1
 121 185 l 1,17,-1
 70 185 l 1,18,-1
 70 134 l 1,19,-1
 121 134 l 1,16,-1
377 134 m 1,20,-1
 377 185 l 1,21,-1
 326 185 l 1,22,-1
 326 134 l 1,23,-1
 377 134 l 1,20,-1
121 198 m 1,24,-1
 121 249 l 1,25,-1
 70 249 l 1,26,-1
 70 198 l 1,27,-1
 121 198 l 1,24,-1
377 198 m 1,28,-1
 377 249 l 1,29,-1
 326 249 l 1,30,-1
 326 198 l 1,31,-1
 377 198 l 1,28,-1
121 262 m 1,32,-1
 121 313 l 1,33,-1
 70 313 l 1,34,-1
 70 262 l 1,35,-1
 121 262 l 1,32,-1
377 262 m 1,36,-1
 377 313 l 1,37,-1
 326 313 l 1,38,-1
 326 262 l 1,39,-1
 377 262 l 1,36,-1
185 326 m 1,40,-1
 185 377 l 1,41,-1
 134 377 l 1,42,-1
 134 326 l 1,43,-1
 185 326 l 1,40,-1
249 326 m 1,44,-1
 249 377 l 1,45,-1
 198 377 l 1,46,-1
 198 326 l 1,47,-1
 249 326 l 1,44,-1
313 326 m 1,48,-1
 313 377 l 1,49,-1
 262 377 l 1,50,-1
 262 326 l 1,51,-1
 313 326 l 1,48,-1
377 326 m 1,52,-1
 377 377 l 1,53,-1
 326 377 l 1,54,-1
 326 326 l 1,55,-1
 377 326 l 1,52,-1
377 390 m 1,56,-1
 377 441 l 1,57,-1
 326 441 l 1,58,-1
 326 390 l 1,59,-1
 377 390 l 1,56,-1
377 454 m 1,60,-1
 377 505 l 1,61,-1
 326 505 l 1,62,-1
 326 454 l 1,63,-1
 377 454 l 1,60,-1
0 0 m 1,64,-1
 0 576 l 1,65,-1
 448 576 l 1,66,-1
 448 0 l 1,67,-1
 0 0 l 1,64,-1
EndSplineSet
Validated: 1
EndChar

StartChar: e
Encoding: 101 101 72
Width: 452
GlyphClass: 1
Flags: W
LayerCount: 2
Fore
SplineSet
185 70 m 1,0,-1
 185 121 l 1,1,-1
 134 121 l 1,2,-1
 134 70 l 1,3,-1
 185 70 l 1,0,-1
249 70 m 1,4,-1
 249 121 l 1,5,-1
 198 121 l 1,6,-1
 198 70 l 1,7,-1
 249 70 l 1,4,-1
313 70 m 1,8,-1
 313 121 l 1,9,-1
 262 121 l 1,10,-1
 262 70 l 1,11,-1
 313 70 l 1,8,-1
121 134 m 1,12,-1
 121 185 l 1,13,-1
 70 185 l 1,14,-1
 70 134 l 1,15,-1
 121 134 l 1,12,-1
121 198 m 1,16,-1
 121 249 l 1,17,-1
 70 249 l 1,18,-1
 70 198 l 1,19,-1
 121 198 l 1,16,-1
185 198 m 1,20,-1
 185 249 l 1,21,-1
 134 249 l 1,22,-1
 134 198 l 1,23,-1
 185 198 l 1,20,-1
249 198 m 1,24,-1
 249 249 l 1,25,-1
 198 249 l 1,26,-1
 198 198 l 1,27,-1
 249 198 l 1,24,-1
313 198 m 1,28,-1
 313 249 l 1,29,-1
 262 249 l 1,30,-1
 262 198 l 1,31,-1
 313 198 l 1,28,-1
377 198 m 1,32,-1
 377 249 l 1,33,-1
 326 249 l 1,34,-1
 326 198 l 1,35,-1
 377 198 l 1,32,-1
121 262 m 1,36,-1
 121 313 l 1,37,-1
 70 313 l 1,38,-1
 70 262 l 1,39,-1
 121 262 l 1,36,-1
377 262 m 1,40,-1
 377 313 l 1,41,-1
 326 313 l 1,42,-1
 326 262 l 1,43,-1
 377 262 l 1,40,-1
185 326 m 1,44,-1
 185 377 l 1,45,-1
 134 377 l 1,46,-1
 134 326 l 1,47,-1
 185 326 l 1,44,-1
249 326 m 1,48,-1
 249 377 l 1,49,-1
 198 377 l 1,50,-1
 198 326 l 1,51,-1
 249 326 l 1,48,-1
313 326 m 1,52,-1
 313 377 l 1,53,-1
 262 377 l 1,54,-1
 262 326 l 1,55,-1
 313 326 l 1,52,-1
0 0 m 1,56,-1
 0 576 l 1,57,-1
 448 576 l 1,58,-1
 448 0 l 1,59,-1
 0 0 l 1,56,-1
EndSplineSet
Validated: 1
EndChar

StartChar: f
Encoding: 102 102 73
Width: 452
GlyphClass: 1
Flags: W
LayerCount: 2
Fore
SplineSet
185 70 m 1,0,-1
 185 121 l 1,1,-1
 134 121 l 1,2,-1
 134 70 l 1,3,-1
 185 70 l 1,0,-1
185 134 m 1,4,-1
 185 185 l 1,5,-1
 134 185 l 1,6,-1
 134 134 l 1,7,-1
 185 134 l 1,4,-1
185 198 m 1,8,-1
 185 249 l 1,9,-1
 134 249 l 1,10,-1
 134 198 l 1,11,-1
 185 198 l 1,8,-1
121 262 m 1,12,-1
 121 313 l 1,13,-1
 70 313 l 1,14,-1
 70 262 l 1,15,-1
 121 262 l 1,12,-1
185 262 m 1,16,-1
 185 313 l 1,17,-1
 134 313 l 1,18,-1
 134 262 l 1,19,-1
 185 262 l 1,16,-1
249 262 m 1,20,-1
 249 313 l 1,21,-1
 198 313 l 1,22,-1
 198 262 l 1,23,-1
 249 262 l 1,20,-1
313 262 m 1,24,-1
 313 313 l 1,25,-1
 262 313 l 1,26,-1
 262 262 l 1,27,-1
 313 262 l 1,24,-1
185 326 m 1,28,-1
 185 377 l 1,29,-1
 134 377 l 1,30,-1
 134 326 l 1,31,-1
 185 326 l 1,28,-1
185 390 m 1,32,-1
 185 441 l 1,33,-1
 134 441 l 1,34,-1
 134 390 l 1,35,-1
 185 390 l 1,32,-1
377 390 m 1,36,-1
 377 441 l 1,37,-1
 326 441 l 1,38,-1
 326 390 l 1,39,-1
 377 390 l 1,36,-1
249 454 m 1,40,-1
 249 505 l 1,41,-1
 198 505 l 1,42,-1
 198 454 l 1,43,-1
 249 454 l 1,40,-1
313 454 m 1,44,-1
 313 505 l 1,45,-1
 262 505 l 1,46,-1
 262 454 l 1,47,-1
 313 454 l 1,44,-1
0 0 m 1,48,-1
 0 576 l 1,49,-1
 448 576 l 1,50,-1
 448 0 l 1,51,-1
 0 0 l 1,48,-1
EndSplineSet
Validated: 1
EndChar

StartChar: g
Encoding: 103 103 74
Width: 452
GlyphClass: 1
Flags: W
LayerCount: 2
Fore
SplineSet
121 70 m 1,0,-1
 121 121 l 1,1,-1
 70 121 l 1,2,-1
 70 70 l 1,3,-1
 121 70 l 1,0,-1
185 70 m 1,4,-1
 185 121 l 1,5,-1
 134 121 l 1,6,-1
 134 70 l 1,7,-1
 185 70 l 1,4,-1
249 70 m 1,8,-1
 249 121 l 1,9,-1
 198 121 l 1,10,-1
 198 70 l 1,11,-1
 249 70 l 1,8,-1
313 70 m 1,12,-1
 313 121 l 1,13,-1
 262 121 l 1,14,-1
 262 70 l 1,15,-1
 313 70 l 1,12,-1
377 134 m 1,16,-1
 377 185 l 1,17,-1
 326 185 l 1,18,-1
 326 134 l 1,19,-1
 377 134 l 1,16,-1
185 198 m 1,20,-1
 185 249 l 1,21,-1
 134 249 l 1,22,-1
 134 198 l 1,23,-1
 185 198 l 1,20,-1
249 198 m 1,24,-1
 249 249 l 1,25,-1
 198 249 l 1,26,-1
 198 198 l 1,27,-1
 249 198 l 1,24,-1
313 198 m 1,28,-1
 313 249 l 1,29,-1
 262 249 l 1,30,-1
 262 198 l 1,31,-1
 313 198 l 1,28,-1
377 198 m 1,32,-1
 377 249 l 1,33,-1
 326 249 l 1,34,-1
 326 198 l 1,35,-1
 377 198 l 1,32,-1
121 262 m 1,36,-1
 121 313 l 1,37,-1
 70 313 l 1,38,-1
 70 262 l 1,39,-1
 121 262 l 1,36,-1
377 262 m 1,40,-1
 377 313 l 1,41,-1
 326 313 l 1,42,-1
 326 262 l 1,43,-1
 377 262 l 1,40,-1
185 326 m 1,44,-1
 185 377 l 1,45,-1
 134 377 l 1,46,-1
 134 326 l 1,47,-1
 185 326 l 1,44,-1
249 326 m 1,48,-1
 249 377 l 1,49,-1
 198 377 l 1,50,-1
 198 326 l 1,51,-1
 249 326 l 1,48,-1
313 326 m 1,52,-1
 313 377 l 1,53,-1
 262 377 l 1,54,-1
 262 326 l 1,55,-1
 313 326 l 1,52,-1
0 0 m 1,56,-1
 0 576 l 1,57,-1
 448 576 l 1,58,-1
 448 0 l 1,59,-1
 0 0 l 1,56,-1
EndSplineSet
Validated: 1
EndChar

StartChar: h
Encoding: 104 104 75
Width: 452
GlyphClass: 1
Flags: W
LayerCount: 2
Fore
SplineSet
121 70 m 1,0,-1
 121 121 l 1,1,-1
 70 121 l 1,2,-1
 70 70 l 1,3,-1
 121 70 l 1,0,-1
377 70 m 1,4,-1
 377 121 l 1,5,-1
 326 121 l 1,6,-1
 326 70 l 1,7,-1
 377 70 l 1,4,-1
121 134 m 1,8,-1
 121 185 l 1,9,-1
 70 185 l 1,10,-1
 70 134 l 1,11,-1
 121 134 l 1,8,-1
377 134 m 1,12,-1
 377 185 l 1,13,-1
 326 185 l 1,14,-1
 326 134 l 1,15,-1
 377 134 l 1,12,-1
121 198 m 1,16,-1
 121 249 l 1,17,-1
 70 249 l 1,18,-1
 70 198 l 1,19,-1
 121 198 l 1,16,-1
377 198 m 1,20,-1
 377 249 l 1,21,-1
 326 249 l 1,22,-1
 326 198 l 1,23,-1
 377 198 l 1,20,-1
121 262 m 1,24,-1
 121 313 l 1,25,-1
 70 313 l 1,26,-1
 70 262 l 1,27,-1
 121 262 l 1,24,-1
185 262 m 1,28,-1
 185 313 l 1,29,-1
 134 313 l 1,30,-1
 134 262 l 1,31,-1
 185 262 l 1,28,-1
249 262 m 1,32,-1
 249 313 l 1,33,-1
 198 313 l 1,34,-1
 198 262 l 1,35,-1
 249 262 l 1,32,-1
313 262 m 1,36,-1
 313 313 l 1,37,-1
 262 313 l 1,38,-1
 262 262 l 1,39,-1
 313 262 l 1,36,-1
121 326 m 1,40,-1
 121 377 l 1,41,-1
 70 377 l 1,42,-1
 70 326 l 1,43,-1
 121 326 l 1,40,-1
121 390 m 1,44,-1
 121 441 l 1,45,-1
 70 441 l 1,46,-1
 70 390 l 1,47,-1
 121 390 l 1,44,-1
121 454 m 1,48,-1
 121 505 l 1,49,-1
 70 505 l 1,50,-1
 70 454 l 1,51,-1
 121 454 l 1,48,-1
0 0 m 1,52,-1
 0 576 l 1,53,-1
 448 576 l 1,54,-1
 448 0 l 1,55,-1
 0 0 l 1,52,-1
EndSplineSet
Validated: 1
EndChar

StartChar: i
Encoding: 105 105 76
Width: 452
GlyphClass: 1
Flags: W
LayerCount: 2
Fore
SplineSet
185 70 m 1,0,-1
 185 121 l 1,1,-1
 134 121 l 1,2,-1
 134 70 l 1,3,-1
 185 70 l 1,0,-1
249 70 m 1,4,-1
 249 121 l 1,5,-1
 198 121 l 1,6,-1
 198 70 l 1,7,-1
 249 70 l 1,4,-1
313 70 m 1,8,-1
 313 121 l 1,9,-1
 262 121 l 1,10,-1
 262 70 l 1,11,-1
 313 70 l 1,8,-1
249 134 m 1,12,-1
 249 185 l 1,13,-1
 198 185 l 1,14,-1
 198 134 l 1,15,-1
 249 134 l 1,12,-1
249 198 m 1,16,-1
 249 249 l 1,17,-1
 198 249 l 1,18,-1
 198 198 l 1,19,-1
 249 198 l 1,16,-1
185 262 m 1,20,-1
 185 313 l 1,21,-1
 134 313 l 1,22,-1
 134 262 l 1,23,-1
 185 262 l 1,20,-1
249 262 m 1,24,-1
 249 313 l 1,25,-1
 198 313 l 1,26,-1
 198 262 l 1,27,-1
 249 262 l 1,24,-1
249 390 m 1,28,-1
 249 441 l 1,29,-1
 198 441 l 1,30,-1
 198 390 l 1,31,-1
 249 390 l 1,28,-1
0 0 m 1,32,-1
 0 576 l 1,33,-1
 448 576 l 1,34,-1
 448 0 l 1,35,-1
 0 0 l 1,32,-1
EndSplineSet
Validated: 1
EndChar

StartChar: j
Encoding: 106 106 77
Width: 452
GlyphClass: 1
Flags: W
LayerCount: 2
Fore
SplineSet
185 70 m 1,0,-1
 185 121 l 1,1,-1
 134 121 l 1,2,-1
 134 70 l 1,3,-1
 185 70 l 1,0,-1
249 70 m 1,4,-1
 249 121 l 1,5,-1
 198 121 l 1,6,-1
 198 70 l 1,7,-1
 249 70 l 1,4,-1
313 70 m 1,8,-1
 313 121 l 1,9,-1
 262 121 l 1,10,-1
 262 70 l 1,11,-1
 313 70 l 1,8,-1
121 134 m 1,12,-1
 121 185 l 1,13,-1
 70 185 l 1,14,-1
 70 134 l 1,15,-1
 121 134 l 1,12,-1
377 134 m 1,16,-1
 377 185 l 1,17,-1
 326 185 l 1,18,-1
 326 134 l 1,19,-1
 377 134 l 1,16,-1
377 198 m 1,20,-1
 377 249 l 1,21,-1
 326 249 l 1,22,-1
 326 198 l 1,23,-1
 377 198 l 1,20,-1
377 262 m 1,24,-1
 377 313 l 1,25,-1
 326 313 l 1,26,-1
 326 262 l 1,27,-1
 377 262 l 1,24,-1
313 326 m 1,28,-1
 313 377 l 1,29,-1
 262 377 l 1,30,-1
 262 326 l 1,31,-1
 313 326 l 1,28,-1
377 326 m 1,32,-1
 377 377 l 1,33,-1
 326 377 l 1,34,-1
 326 326 l 1,35,-1
 377 326 l 1,32,-1
377 454 m 1,36,-1
 377 505 l 1,37,-1
 326 505 l 1,38,-1
 326 454 l 1,39,-1
 377 454 l 1,36,-1
0 0 m 1,40,-1
 0 576 l 1,41,-1
 448 576 l 1,42,-1
 448 0 l 1,43,-1
 0 0 l 1,40,-1
EndSplineSet
Validated: 1
EndChar

StartChar: k
Encoding: 107 107 78
Width: 452
GlyphClass: 1
Flags: W
LayerCount: 2
Fore
SplineSet
121 70 m 1,0,-1
 121 121 l 1,1,-1
 70 121 l 1,2,-1
 70 70 l 1,3,-1
 121 70 l 1,0,-1
313 70 m 1,4,-1
 313 121 l 1,5,-1
 262 121 l 1,6,-1
 262 70 l 1,7,-1
 313 70 l 1,4,-1
121 134 m 1,8,-1
 121 185 l 1,9,-1
 70 185 l 1,10,-1
 70 134 l 1,11,-1
 121 134 l 1,8,-1
249 134 m 1,12,-1
 249 185 l 1,13,-1
 198 185 l 1,14,-1
 198 134 l 1,15,-1
 249 134 l 1,12,-1
121 198 m 1,16,-1
 121 249 l 1,17,-1
 70 249 l 1,18,-1
 70 198 l 1,19,-1
 121 198 l 1,16,-1
185 198 m 1,20,-1
 185 249 l 1,21,-1
 134 249 l 1,22,-1
 134 198 l 1,23,-1
 185 198 l 1,20,-1
121 262 m 1,24,-1
 121 313 l 1,25,-1
 70 313 l 1,26,-1
 70 262 l 1,27,-1
 121 262 l 1,24,-1
249 262 m 1,28,-1
 249 313 l 1,29,-1
 198 313 l 1,30,-1
 198 262 l 1,31,-1
 249 262 l 1,28,-1
121 326 m 1,32,-1
 121 377 l 1,33,-1
 70 377 l 1,34,-1
 70 326 l 1,35,-1
 121 326 l 1,32,-1
313 326 m 1,36,-1
 313 377 l 1,37,-1
 262 377 l 1,38,-1
 262 326 l 1,39,-1
 313 326 l 1,36,-1
121 390 m 1,40,-1
 121 441 l 1,41,-1
 70 441 l 1,42,-1
 70 390 l 1,43,-1
 121 390 l 1,40,-1
121 454 m 1,44,-1
 121 505 l 1,45,-1
 70 505 l 1,46,-1
 70 454 l 1,47,-1
 121 454 l 1,44,-1
0 0 m 1,48,-1
 0 576 l 1,49,-1
 448 576 l 1,50,-1
 448 0 l 1,51,-1
 0 0 l 1,48,-1
EndSplineSet
Validated: 1
EndChar

StartChar: l
Encoding: 108 108 79
Width: 452
GlyphClass: 1
Flags: W
LayerCount: 2
Fore
SplineSet
249 70 m 1,0,-1
 249 121 l 1,1,-1
 198 121 l 1,2,-1
 198 70 l 1,3,-1
 249 70 l 1,0,-1
313 70 m 1,4,-1
 313 121 l 1,5,-1
 262 121 l 1,6,-1
 262 70 l 1,7,-1
 313 70 l 1,4,-1
185 134 m 1,8,-1
 185 185 l 1,9,-1
 134 185 l 1,10,-1
 134 134 l 1,11,-1
 185 134 l 1,8,-1
185 198 m 1,12,-1
 185 249 l 1,13,-1
 134 249 l 1,14,-1
 134 198 l 1,15,-1
 185 198 l 1,12,-1
185 262 m 1,16,-1
 185 313 l 1,17,-1
 134 313 l 1,18,-1
 134 262 l 1,19,-1
 185 262 l 1,16,-1
185 326 m 1,20,-1
 185 377 l 1,21,-1
 134 377 l 1,22,-1
 134 326 l 1,23,-1
 185 326 l 1,20,-1
185 390 m 1,24,-1
 185 441 l 1,25,-1
 134 441 l 1,26,-1
 134 390 l 1,27,-1
 185 390 l 1,24,-1
185 454 m 1,28,-1
 185 505 l 1,29,-1
 134 505 l 1,30,-1
 134 454 l 1,31,-1
 185 454 l 1,28,-1
0 0 m 1,32,-1
 0 576 l 1,33,-1
 448 576 l 1,34,-1
 448 0 l 1,35,-1
 0 0 l 1,32,-1
EndSplineSet
Validated: 1
EndChar

StartChar: m
Encoding: 109 109 80
Width: 452
GlyphClass: 1
Flags: W
LayerCount: 2
Fore
SplineSet
121 70 m 1,0,-1
 121 121 l 1,1,-1
 70 121 l 1,2,-1
 70 70 l 1,3,-1
 121 70 l 1,0,-1
377 70 m 1,4,-1
 377 121 l 1,5,-1
 326 121 l 1,6,-1
 326 70 l 1,7,-1
 377 70 l 1,4,-1
121 134 m 1,8,-1
 121 185 l 1,9,-1
 70 185 l 1,10,-1
 70 134 l 1,11,-1
 121 134 l 1,8,-1
249 134 m 1,12,-1
 249 185 l 1,13,-1
 198 185 l 1,14,-1
 198 134 l 1,15,-1
 249 134 l 1,12,-1
377 134 m 1,16,-1
 377 185 l 1,17,-1
 326 185 l 1,18,-1
 326 134 l 1,19,-1
 377 134 l 1,16,-1
121 198 m 1,20,-1
 121 249 l 1,21,-1
 70 249 l 1,22,-1
 70 198 l 1,23,-1
 121 198 l 1,20,-1
249 198 m 1,24,-1
 249 249 l 1,25,-1
 198 249 l 1,26,-1
 198 198 l 1,27,-1
 249 198 l 1,24,-1
377 198 m 1,28,-1
 377 249 l 1,29,-1
 326 249 l 1,30,-1
 326 198 l 1,31,-1
 377 198 l 1,28,-1
121 262 m 1,32,-1
 121 313 l 1,33,-1
 70 313 l 1,34,-1
 70 262 l 1,35,-1
 121 262 l 1,32,-1
249 262 m 1,36,-1
 249 313 l 1,37,-1
 198 313 l 1,38,-1
 198 262 l 1,39,-1
 249 262 l 1,36,-1
377 262 m 1,40,-1
 377 313 l 1,41,-1
 326 313 l 1,42,-1
 326 262 l 1,43,-1
 377 262 l 1,40,-1
121 326 m 1,44,-1
 121 377 l 1,45,-1
 70 377 l 1,46,-1
 70 326 l 1,47,-1
 121 326 l 1,44,-1
185 326 m 1,48,-1
 185 377 l 1,49,-1
 134 377 l 1,50,-1
 134 326 l 1,51,-1
 185 326 l 1,48,-1
313 326 m 1,52,-1
 313 377 l 1,53,-1
 262 377 l 1,54,-1
 262 326 l 1,55,-1
 313 326 l 1,52,-1
0 0 m 1,56,-1
 0 576 l 1,57,-1
 448 576 l 1,58,-1
 448 0 l 1,59,-1
 0 0 l 1,56,-1
EndSplineSet
Validated: 1
EndChar

StartChar: n
Encoding: 110 110 81
Width: 452
GlyphClass: 1
Flags: W
LayerCount: 2
Fore
SplineSet
121 70 m 1,0,-1
 121 121 l 1,1,-1
 70 121 l 1,2,-1
 70 70 l 1,3,-1
 121 70 l 1,0,-1
377 70 m 1,4,-1
 377 121 l 1,5,-1
 326 121 l 1,6,-1
 326 70 l 1,7,-1
 377 70 l 1,4,-1
121 134 m 1,8,-1
 121 185 l 1,9,-1
 70 185 l 1,10,-1
 70 134 l 1,11,-1
 121 134 l 1,8,-1
377 134 m 1,12,-1
 377 185 l 1,13,-1
 326 185 l 1,14,-1
 326 134 l 1,15,-1
 377 134 l 1,12,-1
121 198 m 1,16,-1
 121 249 l 1,17,-1
 70 249 l 1,18,-1
 70 198 l 1,19,-1
 121 198 l 1,16,-1
377 198 m 1,20,-1
 377 249 l 1,21,-1
 326 249 l 1,22,-1
 326 198 l 1,23,-1
 377 198 l 1,20,-1
121 262 m 1,24,-1
 121 313 l 1,25,-1
 70 313 l 1,26,-1
 70 262 l 1,27,-1
 121 262 l 1,24,-1
377 262 m 1,28,-1
 377 313 l 1,29,-1
 326 313 l 1,30,-1
 326 262 l 1,31,-1
 377 262 l 1,28,-1
121 326 m 1,32,-1
 121 377 l 1,33,-1
 70 377 l 1,34,-1
 70 326 l 1,35,-1
 121 326 l 1,32,-1
185 326 m 1,36,-1
 185 377 l 1,37,-1
 134 377 l 1,38,-1
 134 326 l 1,39,-1
 185 326 l 1,36,-1
249 326 m 1,40,-1
 249 377 l 1,41,-1
 198 377 l 1,42,-1
 198 326 l 1,43,-1
 249 326 l 1,40,-1
313 326 m 1,44,-1
 313 377 l 1,45,-1
 262 377 l 1,46,-1
 262 326 l 1,47,-1
 313 326 l 1,44,-1
0 0 m 1,48,-1
 0 576 l 1,49,-1
 448 576 l 1,50,-1
 448 0 l 1,51,-1
 0 0 l 1,48,-1
EndSplineSet
Validated: 1
EndChar

StartChar: o
Encoding: 111 111 82
Width: 452
GlyphClass: 1
Flags: W
LayerCount: 2
Fore
SplineSet
185 70 m 1,0,-1
 185 121 l 1,1,-1
 134 121 l 1,2,-1
 134 70 l 1,3,-1
 185 70 l 1,0,-1
249 70 m 1,4,-1
 249 121 l 1,5,-1
 198 121 l 1,6,-1
 198 70 l 1,7,-1
 249 70 l 1,4,-1
313 70 m 1,8,-1
 313 121 l 1,9,-1
 262 121 l 1,10,-1
 262 70 l 1,11,-1
 313 70 l 1,8,-1
121 134 m 1,12,-1
 121 185 l 1,13,-1
 70 185 l 1,14,-1
 70 134 l 1,15,-1
 121 134 l 1,12,-1
377 134 m 1,16,-1
 377 185 l 1,17,-1
 326 185 l 1,18,-1
 326 134 l 1,19,-1
 377 134 l 1,16,-1
121 198 m 1,20,-1
 121 249 l 1,21,-1
 70 249 l 1,22,-1
 70 198 l 1,23,-1
 121 198 l 1,20,-1
377 198 m 1,24,-1
 377 249 l 1,25,-1
 326 249 l 1,26,-1
 326 198 l 1,27,-1
 377 198 l 1,24,-1
121 262 m 1,28,-1
 121 313 l 1,29,-1
 70 313 l 1,30,-1
 70 262 l 1,31,-1
 121 262 l 1,28,-1
377 262 m 1,32,-1
 377 313 l 1,33,-1
 326 313 l 1,34,-1
 326 262 l 1,35,-1
 377 262 l 1,32,-1
185 326 m 1,36,-1
 185 377 l 1,37,-1
 134 377 l 1,38,-1
 134 326 l 1,39,-1
 185 326 l 1,36,-1
249 326 m 1,40,-1
 249 377 l 1,41,-1
 198 377 l 1,42,-1
 198 326 l 1,43,-1
 249 326 l 1,40,-1
313 326 m 1,44,-1
 313 377 l 1,45,-1
 262 377 l 1,46,-1
 262 326 l 1,47,-1
 313 326 l 1,44,-1
0 0 m 1,48,-1
 0 576 l 1,49,-1
 448 576 l 1,50,-1
 448 0 l 1,51,-1
 0 0 l 1,48,-1
EndSplineSet
Validated: 1
EndChar

StartChar: p
Encoding: 112 112 83
Width: 452
GlyphClass: 1
Flags: W
LayerCount: 2
Fore
SplineSet
121 70 m 1,0,-1
 121 121 l 1,1,-1
 70 121 l 1,2,-1
 70 70 l 1,3,-1
 121 70 l 1,0,-1
121 134 m 1,4,-1
 121 185 l 1,5,-1
 70 185 l 1,6,-1
 70 134 l 1,7,-1
 121 134 l 1,4,-1
121 198 m 1,8,-1
 121 249 l 1,9,-1
 70 249 l 1,10,-1
 70 198 l 1,11,-1
 121 198 l 1,8,-1
185 198 m 1,12,-1
 185 249 l 1,13,-1
 134 249 l 1,14,-1
 134 198 l 1,15,-1
 185 198 l 1,12,-1
249 198 m 1,16,-1
 249 249 l 1,17,-1
 198 249 l 1,18,-1
 198 198 l 1,19,-1
 249 198 l 1,16,-1
313 198 m 1,20,-1
 313 249 l 1,21,-1
 262 249 l 1,22,-1
 262 198 l 1,23,-1
 313 198 l 1,20,-1
121 262 m 1,24,-1
 121 313 l 1,25,-1
 70 313 l 1,26,-1
 70 262 l 1,27,-1
 121 262 l 1,24,-1
377 262 m 1,28,-1
 377 313 l 1,29,-1
 326 313 l 1,30,-1
 326 262 l 1,31,-1
 377 262 l 1,28,-1
121 326 m 1,32,-1
 121 377 l 1,33,-1
 70 377 l 1,34,-1
 70 326 l 1,35,-1
 121 326 l 1,32,-1
185 326 m 1,36,-1
 185 377 l 1,37,-1
 134 377 l 1,38,-1
 134 326 l 1,39,-1
 185 326 l 1,36,-1
249 326 m 1,40,-1
 249 377 l 1,41,-1
 198 377 l 1,42,-1
 198 326 l 1,43,-1
 249 326 l 1,40,-1
313 326 m 1,44,-1
 313 377 l 1,45,-1
 262 377 l 1,46,-1
 262 326 l 1,47,-1
 313 326 l 1,44,-1
0 0 m 1,48,-1
 0 576 l 1,49,-1
 448 576 l 1,50,-1
 448 0 l 1,51,-1
 0 0 l 1,48,-1
EndSplineSet
Validated: 1
EndChar

StartChar: q
Encoding: 113 113 84
Width: 452
GlyphClass: 1
Flags: W
LayerCount: 2
Fore
SplineSet
313 70 m 1,0,-1
 313 121 l 1,1,-1
 262 121 l 1,2,-1
 262 70 l 1,3,-1
 313 70 l 1,0,-1
377 70 m 1,4,-1
 377 121 l 1,5,-1
 326 121 l 1,6,-1
 326 70 l 1,7,-1
 377 70 l 1,4,-1
313 134 m 1,8,-1
 313 185 l 1,9,-1
 262 185 l 1,10,-1
 262 134 l 1,11,-1
 313 134 l 1,8,-1
185 198 m 1,12,-1
 185 249 l 1,13,-1
 134 249 l 1,14,-1
 134 198 l 1,15,-1
 185 198 l 1,12,-1
249 198 m 1,16,-1
 249 249 l 1,17,-1
 198 249 l 1,18,-1
 198 198 l 1,19,-1
 249 198 l 1,16,-1
313 198 m 1,20,-1
 313 249 l 1,21,-1
 262 249 l 1,22,-1
 262 198 l 1,23,-1
 313 198 l 1,20,-1
121 262 m 1,24,-1
 121 313 l 1,25,-1
 70 313 l 1,26,-1
 70 262 l 1,27,-1
 121 262 l 1,24,-1
313 262 m 1,28,-1
 313 313 l 1,29,-1
 262 313 l 1,30,-1
 262 262 l 1,31,-1
 313 262 l 1,28,-1
185 326 m 1,32,-1
 185 377 l 1,33,-1
 134 377 l 1,34,-1
 134 326 l 1,35,-1
 185 326 l 1,32,-1
249 326 m 1,36,-1
 249 377 l 1,37,-1
 198 377 l 1,38,-1
 198 326 l 1,39,-1
 249 326 l 1,36,-1
313 326 m 1,40,-1
 313 377 l 1,41,-1
 262 377 l 1,42,-1
 262 326 l 1,43,-1
 313 326 l 1,40,-1
0 0 m 1,44,-1
 0 576 l 1,45,-1
 448 576 l 1,46,-1
 448 0 l 1,47,-1
 0 0 l 1,44,-1
EndSplineSet
Validated: 1
EndChar

StartChar: r
Encoding: 114 114 85
Width: 452
GlyphClass: 1
Flags: W
LayerCount: 2
Fore
SplineSet
121 70 m 1,0,-1
 121 121 l 1,1,-1
 70 121 l 1,2,-1
 70 70 l 1,3,-1
 121 70 l 1,0,-1
121 134 m 1,4,-1
 121 185 l 1,5,-1
 70 185 l 1,6,-1
 70 134 l 1,7,-1
 121 134 l 1,4,-1
121 198 m 1,8,-1
 121 249 l 1,9,-1
 70 249 l 1,10,-1
 70 198 l 1,11,-1
 121 198 l 1,8,-1
121 262 m 1,12,-1
 121 313 l 1,13,-1
 70 313 l 1,14,-1
 70 262 l 1,15,-1
 121 262 l 1,12,-1
377 262 m 1,16,-1
 377 313 l 1,17,-1
 326 313 l 1,18,-1
 326 262 l 1,19,-1
 377 262 l 1,16,-1
121 326 m 1,20,-1
 121 377 l 1,21,-1
 70 377 l 1,22,-1
 70 326 l 1,23,-1
 121 326 l 1,20,-1
185 326 m 1,24,-1
 185 377 l 1,25,-1
 134 377 l 1,26,-1
 134 326 l 1,27,-1
 185 326 l 1,24,-1
249 326 m 1,28,-1
 249 377 l 1,29,-1
 198 377 l 1,30,-1
 198 326 l 1,31,-1
 249 326 l 1,28,-1
313 326 m 1,32,-1
 313 377 l 1,33,-1
 262 377 l 1,34,-1
 262 326 l 1,35,-1
 313 326 l 1,32,-1
0 0 m 1,36,-1
 0 576 l 1,37,-1
 448 576 l 1,38,-1
 448 0 l 1,39,-1
 0 0 l 1,36,-1
EndSplineSet
Validated: 1
EndChar

StartChar: s
Encoding: 115 115 86
Width: 452
GlyphClass: 1
Flags: W
LayerCount: 2
Fore
SplineSet
121 70 m 1,0,-1
 121 121 l 1,1,-1
 70 121 l 1,2,-1
 70 70 l 1,3,-1
 121 70 l 1,0,-1
185 70 m 1,4,-1
 185 121 l 1,5,-1
 134 121 l 1,6,-1
 134 70 l 1,7,-1
 185 70 l 1,4,-1
249 70 m 1,8,-1
 249 121 l 1,9,-1
 198 121 l 1,10,-1
 198 70 l 1,11,-1
 249 70 l 1,8,-1
313 70 m 1,12,-1
 313 121 l 1,13,-1
 262 121 l 1,14,-1
 262 70 l 1,15,-1
 313 70 l 1,12,-1
377 134 m 1,16,-1
 377 185 l 1,17,-1
 326 185 l 1,18,-1
 326 134 l 1,19,-1
 377 134 l 1,16,-1
185 198 m 1,20,-1
 185 249 l 1,21,-1
 134 249 l 1,22,-1
 134 198 l 1,23,-1
 185 198 l 1,20,-1
249 198 m 1,24,-1
 249 249 l 1,25,-1
 198 249 l 1,26,-1
 198 198 l 1,27,-1
 249 198 l 1,24,-1
313 198 m 1,28,-1
 313 249 l 1,29,-1
 262 249 l 1,30,-1
 262 198 l 1,31,-1
 313 198 l 1,28,-1
121 262 m 1,32,-1
 121 313 l 1,33,-1
 70 313 l 1,34,-1
 70 262 l 1,35,-1
 121 262 l 1,32,-1
185 326 m 1,36,-1
 185 377 l 1,37,-1
 134 377 l 1,38,-1
 134 326 l 1,39,-1
 185 326 l 1,36,-1
249 326 m 1,40,-1
 249 377 l 1,41,-1
 198 377 l 1,42,-1
 198 326 l 1,43,-1
 249 326 l 1,40,-1
313 326 m 1,44,-1
 313 377 l 1,45,-1
 262 377 l 1,46,-1
 262 326 l 1,47,-1
 313 326 l 1,44,-1
377 326 m 1,48,-1
 377 377 l 1,49,-1
 326 377 l 1,50,-1
 326 326 l 1,51,-1
 377 326 l 1,48,-1
0 0 m 1,52,-1
 0 576 l 1,53,-1
 448 576 l 1,54,-1
 448 0 l 1,55,-1
 0 0 l 1,52,-1
EndSplineSet
Validated: 1
EndChar

StartChar: t
Encoding: 116 116 87
Width: 452
GlyphClass: 1
Flags: W
LayerCount: 2
Fore
SplineSet
249 70 m 1,0,-1
 249 121 l 1,1,-1
 198 121 l 1,2,-1
 198 70 l 1,3,-1
 249 70 l 1,0,-1
313 70 m 1,4,-1
 313 121 l 1,5,-1
 262 121 l 1,6,-1
 262 70 l 1,7,-1
 313 70 l 1,4,-1
377 70 m 1,8,-1
 377 121 l 1,9,-1
 326 121 l 1,10,-1
 326 70 l 1,11,-1
 377 70 l 1,8,-1
249 134 m 1,12,-1
 249 185 l 1,13,-1
 198 185 l 1,14,-1
 198 134 l 1,15,-1
 249 134 l 1,12,-1
249 198 m 1,16,-1
 249 249 l 1,17,-1
 198 249 l 1,18,-1
 198 198 l 1,19,-1
 249 198 l 1,16,-1
249 262 m 1,20,-1
 249 313 l 1,21,-1
 198 313 l 1,22,-1
 198 262 l 1,23,-1
 249 262 l 1,20,-1
121 326 m 1,24,-1
 121 377 l 1,25,-1
 70 377 l 1,26,-1
 70 326 l 1,27,-1
 121 326 l 1,24,-1
185 326 m 1,28,-1
 185 377 l 1,29,-1
 134 377 l 1,30,-1
 134 326 l 1,31,-1
 185 326 l 1,28,-1
249 326 m 1,32,-1
 249 377 l 1,33,-1
 198 377 l 1,34,-1
 198 326 l 1,35,-1
 249 326 l 1,32,-1
313 326 m 1,36,-1
 313 377 l 1,37,-1
 262 377 l 1,38,-1
 262 326 l 1,39,-1
 313 326 l 1,36,-1
377 326 m 1,40,-1
 377 377 l 1,41,-1
 326 377 l 1,42,-1
 326 326 l 1,43,-1
 377 326 l 1,40,-1
249 390 m 1,44,-1
 249 441 l 1,45,-1
 198 441 l 1,46,-1
 198 390 l 1,47,-1
 249 390 l 1,44,-1
249 454 m 1,48,-1
 249 505 l 1,49,-1
 198 505 l 1,50,-1
 198 454 l 1,51,-1
 249 454 l 1,48,-1
0 0 m 1,52,-1
 0 576 l 1,53,-1
 448 576 l 1,54,-1
 448 0 l 1,55,-1
 0 0 l 1,52,-1
EndSplineSet
Validated: 1
EndChar

StartChar: u
Encoding: 117 117 88
Width: 452
GlyphClass: 1
Flags: W
LayerCount: 2
Fore
SplineSet
185 70 m 1,0,-1
 185 121 l 1,1,-1
 134 121 l 1,2,-1
 134 70 l 1,3,-1
 185 70 l 1,0,-1
249 70 m 1,4,-1
 249 121 l 1,5,-1
 198 121 l 1,6,-1
 198 70 l 1,7,-1
 249 70 l 1,4,-1
313 70 m 1,8,-1
 313 121 l 1,9,-1
 262 121 l 1,10,-1
 262 70 l 1,11,-1
 313 70 l 1,8,-1
377 70 m 1,12,-1
 377 121 l 1,13,-1
 326 121 l 1,14,-1
 326 70 l 1,15,-1
 377 70 l 1,12,-1
121 134 m 1,16,-1
 121 185 l 1,17,-1
 70 185 l 1,18,-1
 70 134 l 1,19,-1
 121 134 l 1,16,-1
377 134 m 1,20,-1
 377 185 l 1,21,-1
 326 185 l 1,22,-1
 326 134 l 1,23,-1
 377 134 l 1,20,-1
121 198 m 1,24,-1
 121 249 l 1,25,-1
 70 249 l 1,26,-1
 70 198 l 1,27,-1
 121 198 l 1,24,-1
377 198 m 1,28,-1
 377 249 l 1,29,-1
 326 249 l 1,30,-1
 326 198 l 1,31,-1
 377 198 l 1,28,-1
121 262 m 1,32,-1
 121 313 l 1,33,-1
 70 313 l 1,34,-1
 70 262 l 1,35,-1
 121 262 l 1,32,-1
377 262 m 1,36,-1
 377 313 l 1,37,-1
 326 313 l 1,38,-1
 326 262 l 1,39,-1
 377 262 l 1,36,-1
121 326 m 1,40,-1
 121 377 l 1,41,-1
 70 377 l 1,42,-1
 70 326 l 1,43,-1
 121 326 l 1,40,-1
377 326 m 1,44,-1
 377 377 l 1,45,-1
 326 377 l 1,46,-1
 326 326 l 1,47,-1
 377 326 l 1,44,-1
0 0 m 1,48,-1
 0 576 l 1,49,-1
 448 576 l 1,50,-1
 448 0 l 1,51,-1
 0 0 l 1,48,-1
EndSplineSet
Validated: 1
EndChar

StartChar: v
Encoding: 118 118 89
Width: 452
GlyphClass: 1
Flags: W
LayerCount: 2
Fore
SplineSet
249 70 m 1,0,-1
 249 121 l 1,1,-1
 198 121 l 1,2,-1
 198 70 l 1,3,-1
 249 70 l 1,0,-1
185 134 m 1,4,-1
 185 185 l 1,5,-1
 134 185 l 1,6,-1
 134 134 l 1,7,-1
 185 134 l 1,4,-1
313 134 m 1,8,-1
 313 185 l 1,9,-1
 262 185 l 1,10,-1
 262 134 l 1,11,-1
 313 134 l 1,8,-1
121 198 m 1,12,-1
 121 249 l 1,13,-1
 70 249 l 1,14,-1
 70 198 l 1,15,-1
 121 198 l 1,12,-1
377 198 m 1,16,-1
 377 249 l 1,17,-1
 326 249 l 1,18,-1
 326 198 l 1,19,-1
 377 198 l 1,16,-1
121 262 m 1,20,-1
 121 313 l 1,21,-1
 70 313 l 1,22,-1
 70 262 l 1,23,-1
 121 262 l 1,20,-1
377 262 m 1,24,-1
 377 313 l 1,25,-1
 326 313 l 1,26,-1
 326 262 l 1,27,-1
 377 262 l 1,24,-1
121 326 m 1,28,-1
 121 377 l 1,29,-1
 70 377 l 1,30,-1
 70 326 l 1,31,-1
 121 326 l 1,28,-1
377 326 m 1,32,-1
 377 377 l 1,33,-1
 326 377 l 1,34,-1
 326 326 l 1,35,-1
 377 326 l 1,32,-1
0 0 m 1,36,-1
 0 576 l 1,37,-1
 448 576 l 1,38,-1
 448 0 l 1,39,-1
 0 0 l 1,36,-1
EndSplineSet
Validated: 1
EndChar

StartChar: w
Encoding: 119 119 90
Width: 452
GlyphClass: 1
Flags: W
LayerCount: 2
Fore
SplineSet
121 70 m 1,0,-1
 121 121 l 1,1,-1
 70 121 l 1,2,-1
 70 70 l 1,3,-1
 121 70 l 1,0,-1
185 70 m 1,4,-1
 185 121 l 1,5,-1
 134 121 l 1,6,-1
 134 70 l 1,7,-1
 185 70 l 1,4,-1
313 70 m 1,8,-1
 313 121 l 1,9,-1
 262 121 l 1,10,-1
 262 70 l 1,11,-1
 313 70 l 1,8,-1
377 70 m 1,12,-1
 377 121 l 1,13,-1
 326 121 l 1,14,-1
 326 70 l 1,15,-1
 377 70 l 1,12,-1
121 134 m 1,16,-1
 121 185 l 1,17,-1
 70 185 l 1,18,-1
 70 134 l 1,19,-1
 121 134 l 1,16,-1
249 134 m 1,20,-1
 249 185 l 1,21,-1
 198 185 l 1,22,-1
 198 134 l 1,23,-1
 249 134 l 1,20,-1
377 134 m 1,24,-1
 377 185 l 1,25,-1
 326 185 l 1,26,-1
 326 134 l 1,27,-1
 377 134 l 1,24,-1
121 198 m 1,28,-1
 121 249 l 1,29,-1
 70 249 l 1,30,-1
 70 198 l 1,31,-1
 121 198 l 1,28,-1
249 198 m 1,32,-1
 249 249 l 1,33,-1
 198 249 l 1,34,-1
 198 198 l 1,35,-1
 249 198 l 1,32,-1
377 198 m 1,36,-1
 377 249 l 1,37,-1
 326 249 l 1,38,-1
 326 198 l 1,39,-1
 377 198 l 1,36,-1
121 262 m 1,40,-1
 121 313 l 1,41,-1
 70 313 l 1,42,-1
 70 262 l 1,43,-1
 121 262 l 1,40,-1
377 262 m 1,44,-1
 377 313 l 1,45,-1
 326 313 l 1,46,-1
 326 262 l 1,47,-1
 377 262 l 1,44,-1
121 326 m 1,48,-1
 121 377 l 1,49,-1
 70 377 l 1,50,-1
 70 326 l 1,51,-1
 121 326 l 1,48,-1
377 326 m 1,52,-1
 377 377 l 1,53,-1
 326 377 l 1,54,-1
 326 326 l 1,55,-1
 377 326 l 1,52,-1
0 0 m 1,56,-1
 0 576 l 1,57,-1
 448 576 l 1,58,-1
 448 0 l 1,59,-1
 0 0 l 1,56,-1
EndSplineSet
Validated: 1
EndChar

StartChar: x
Encoding: 120 120 91
Width: 452
GlyphClass: 1
Flags: W
LayerCount: 2
Fore
SplineSet
121 70 m 1,0,-1
 121 121 l 1,1,-1
 70 121 l 1,2,-1
 70 70 l 1,3,-1
 121 70 l 1,0,-1
377 70 m 1,4,-1
 377 121 l 1,5,-1
 326 121 l 1,6,-1
 326 70 l 1,7,-1
 377 70 l 1,4,-1
185 134 m 1,8,-1
 185 185 l 1,9,-1
 134 185 l 1,10,-1
 134 134 l 1,11,-1
 185 134 l 1,8,-1
313 134 m 1,12,-1
 313 185 l 1,13,-1
 262 185 l 1,14,-1
 262 134 l 1,15,-1
 313 134 l 1,12,-1
249 198 m 1,16,-1
 249 249 l 1,17,-1
 198 249 l 1,18,-1
 198 198 l 1,19,-1
 249 198 l 1,16,-1
185 262 m 1,20,-1
 185 313 l 1,21,-1
 134 313 l 1,22,-1
 134 262 l 1,23,-1
 185 262 l 1,20,-1
313 262 m 1,24,-1
 313 313 l 1,25,-1
 262 313 l 1,26,-1
 262 262 l 1,27,-1
 313 262 l 1,24,-1
121 326 m 1,28,-1
 121 377 l 1,29,-1
 70 377 l 1,30,-1
 70 326 l 1,31,-1
 121 326 l 1,28,-1
377 326 m 1,32,-1
 377 377 l 1,33,-1
 326 377 l 1,34,-1
 326 326 l 1,35,-1
 377 326 l 1,32,-1
0 0 m 1,36,-1
 0 576 l 1,37,-1
 448 576 l 1,38,-1
 448 0 l 1,39,-1
 0 0 l 1,36,-1
EndSplineSet
Validated: 1
EndChar

StartChar: y
Encoding: 121 121 92
Width: 452
GlyphClass: 1
Flags: W
LayerCount: 2
Fore
SplineSet
185 70 m 1,0,-1
 185 121 l 1,1,-1
 134 121 l 1,2,-1
 134 70 l 1,3,-1
 185 70 l 1,0,-1
249 70 m 1,4,-1
 249 121 l 1,5,-1
 198 121 l 1,6,-1
 198 70 l 1,7,-1
 249 70 l 1,4,-1
313 70 m 1,8,-1
 313 121 l 1,9,-1
 262 121 l 1,10,-1
 262 70 l 1,11,-1
 313 70 l 1,8,-1
377 134 m 1,12,-1
 377 185 l 1,13,-1
 326 185 l 1,14,-1
 326 134 l 1,15,-1
 377 134 l 1,12,-1
185 198 m 1,16,-1
 185 249 l 1,17,-1
 134 249 l 1,18,-1
 134 198 l 1,19,-1
 185 198 l 1,16,-1
249 198 m 1,20,-1
 249 249 l 1,21,-1
 198 249 l 1,22,-1
 198 198 l 1,23,-1
 249 198 l 1,20,-1
313 198 m 1,24,-1
 313 249 l 1,25,-1
 262 249 l 1,26,-1
 262 198 l 1,27,-1
 313 198 l 1,24,-1
377 198 m 1,28,-1
 377 249 l 1,29,-1
 326 249 l 1,30,-1
 326 198 l 1,31,-1
 377 198 l 1,28,-1
121 262 m 1,32,-1
 121 313 l 1,33,-1
 70 313 l 1,34,-1
 70 262 l 1,35,-1
 121 262 l 1,32,-1
377 262 m 1,36,-1
 377 313 l 1,37,-1
 326 313 l 1,38,-1
 326 262 l 1,39,-1
 377 262 l 1,36,-1
121 326 m 1,40,-1
 121 377 l 1,41,-1
 70 377 l 1,42,-1
 70 326 l 1,43,-1
 121 326 l 1,40,-1
377 326 m 1,44,-1
 377 377 l 1,45,-1
 326 377 l 1,46,-1
 326 326 l 1,47,-1
 377 326 l 1,44,-1
0 0 m 1,48,-1
 0 576 l 1,49,-1
 448 576 l 1,50,-1
 448 0 l 1,51,-1
 0 0 l 1,48,-1
EndSplineSet
Validated: 1
EndChar

StartChar: z
Encoding: 122 122 93
Width: 452
GlyphClass: 1
Flags: W
LayerCount: 2
Fore
SplineSet
121 70 m 1,0,-1
 121 121 l 1,1,-1
 70 121 l 1,2,-1
 70 70 l 1,3,-1
 121 70 l 1,0,-1
185 70 m 1,4,-1
 185 121 l 1,5,-1
 134 121 l 1,6,-1
 134 70 l 1,7,-1
 185 70 l 1,4,-1
249 70 m 1,8,-1
 249 121 l 1,9,-1
 198 121 l 1,10,-1
 198 70 l 1,11,-1
 249 70 l 1,8,-1
313 70 m 1,12,-1
 313 121 l 1,13,-1
 262 121 l 1,14,-1
 262 70 l 1,15,-1
 313 70 l 1,12,-1
377 70 m 1,16,-1
 377 121 l 1,17,-1
 326 121 l 1,18,-1
 326 70 l 1,19,-1
 377 70 l 1,16,-1
185 134 m 1,20,-1
 185 185 l 1,21,-1
 134 185 l 1,22,-1
 134 134 l 1,23,-1
 185 134 l 1,20,-1
249 198 m 1,24,-1
 249 249 l 1,25,-1
 198 249 l 1,26,-1
 198 198 l 1,27,-1
 249 198 l 1,24,-1
313 262 m 1,28,-1
 313 313 l 1,29,-1
 262 313 l 1,30,-1
 262 262 l 1,31,-1
 313 262 l 1,28,-1
121 326 m 1,32,-1
 121 377 l 1,33,-1
 70 377 l 1,34,-1
 70 326 l 1,35,-1
 121 326 l 1,32,-1
185 326 m 1,36,-1
 185 377 l 1,37,-1
 134 377 l 1,38,-1
 134 326 l 1,39,-1
 185 326 l 1,36,-1
249 326 m 1,40,-1
 249 377 l 1,41,-1
 198 377 l 1,42,-1
 198 326 l 1,43,-1
 249 326 l 1,40,-1
313 326 m 1,44,-1
 313 377 l 1,45,-1
 262 377 l 1,46,-1
 262 326 l 1,47,-1
 313 326 l 1,44,-1
377 326 m 1,48,-1
 377 377 l 1,49,-1
 326 377 l 1,50,-1
 326 326 l 1,51,-1
 377 326 l 1,48,-1
0 0 m 1,52,-1
 0 576 l 1,53,-1
 448 576 l 1,54,-1
 448 0 l 1,55,-1
 0 0 l 1,52,-1
EndSplineSet
Validated: 1
EndChar

StartChar: braceleft
Encoding: 123 123 94
Width: 452
GlyphClass: 1
Flags: W
LayerCount: 2
Fore
SplineSet
377 70 m 1,0,-1
 377 121 l 1,1,-1
 326 121 l 1,2,-1
 326 70 l 1,3,-1
 377 70 l 1,0,-1
313 134 m 1,4,-1
 313 185 l 1,5,-1
 262 185 l 1,6,-1
 262 134 l 1,7,-1
 313 134 l 1,4,-1
313 198 m 1,8,-1
 313 249 l 1,9,-1
 262 249 l 1,10,-1
 262 198 l 1,11,-1
 313 198 l 1,8,-1
249 262 m 1,12,-1
 249 313 l 1,13,-1
 198 313 l 1,14,-1
 198 262 l 1,15,-1
 249 262 l 1,12,-1
313 326 m 1,16,-1
 313 377 l 1,17,-1
 262 377 l 1,18,-1
 262 326 l 1,19,-1
 313 326 l 1,16,-1
313 390 m 1,20,-1
 313 441 l 1,21,-1
 262 441 l 1,22,-1
 262 390 l 1,23,-1
 313 390 l 1,20,-1
377 454 m 1,24,-1
 377 505 l 1,25,-1
 326 505 l 1,26,-1
 326 454 l 1,27,-1
 377 454 l 1,24,-1
0 0 m 1,28,-1
 0 576 l 1,29,-1
 448 576 l 1,30,-1
 448 0 l 1,31,-1
 0 0 l 1,28,-1
EndSplineSet
Validated: 1
EndChar

StartChar: bar
Encoding: 124 124 95
Width: 452
GlyphClass: 1
Flags: W
LayerCount: 2
Fore
SplineSet
249 134 m 1,0,-1
 249 185 l 1,1,-1
 198 185 l 1,2,-1
 198 134 l 1,3,-1
 249 134 l 1,0,-1
249 198 m 1,4,-1
 249 249 l 1,5,-1
 198 249 l 1,6,-1
 198 198 l 1,7,-1
 249 198 l 1,4,-1
249 262 m 1,8,-1
 249 313 l 1,9,-1
 198 313 l 1,10,-1
 198 262 l 1,11,-1
 249 262 l 1,8,-1
249 326 m 1,12,-1
 249 377 l 1,13,-1
 198 377 l 1,14,-1
 198 326 l 1,15,-1
 249 326 l 1,12,-1
249 390 m 1,16,-1
 249 441 l 1,17,-1
 198 441 l 1,18,-1
 198 390 l 1,19,-1
 249 390 l 1,16,-1
0 0 m 1,20,-1
 0 576 l 1,21,-1
 448 576 l 1,22,-1
 448 0 l 1,23,-1
 0 0 l 1,20,-1
EndSplineSet
Validated: 1
EndChar

StartChar: braceright
Encoding: 125 125 96
Width: 452
GlyphClass: 1
Flags: W
LayerCount: 2
Fore
SplineSet
121 70 m 1,0,-1
 121 121 l 1,1,-1
 70 121 l 1,2,-1
 70 70 l 1,3,-1
 121 70 l 1,0,-1
185 134 m 1,4,-1
 185 185 l 1,5,-1
 134 185 l 1,6,-1
 134 134 l 1,7,-1
 185 134 l 1,4,-1
185 198 m 1,8,-1
 185 249 l 1,9,-1
 134 249 l 1,10,-1
 134 198 l 1,11,-1
 185 198 l 1,8,-1
249 262 m 1,12,-1
 249 313 l 1,13,-1
 198 313 l 1,14,-1
 198 262 l 1,15,-1
 249 262 l 1,12,-1
185 326 m 1,16,-1
 185 377 l 1,17,-1
 134 377 l 1,18,-1
 134 326 l 1,19,-1
 185 326 l 1,16,-1
185 390 m 1,20,-1
 185 441 l 1,21,-1
 134 441 l 1,22,-1
 134 390 l 1,23,-1
 185 390 l 1,20,-1
121 454 m 1,24,-1
 121 505 l 1,25,-1
 70 505 l 1,26,-1
 70 454 l 1,27,-1
 121 454 l 1,24,-1
0 0 m 1,28,-1
 0 576 l 1,29,-1
 448 576 l 1,30,-1
 448 0 l 1,31,-1
 0 0 l 1,28,-1
EndSplineSet
Validated: 1
EndChar

StartChar: asciitilde
Encoding: 126 126 97
Width: 452
GlyphClass: 1
Flags: W
LayerCount: 2
Fore
SplineSet
313 198 m 1,0,-1
 313 249 l 1,1,-1
 262 249 l 1,2,-1
 262 198 l 1,3,-1
 313 198 l 1,0,-1
121 262 m 1,4,-1
 121 313 l 1,5,-1
 70 313 l 1,6,-1
 70 262 l 1,7,-1
 121 262 l 1,4,-1
249 262 m 1,8,-1
 249 313 l 1,9,-1
 198 313 l 1,10,-1
 198 262 l 1,11,-1
 249 262 l 1,8,-1
377 262 m 1,12,-1
 377 313 l 1,13,-1
 326 313 l 1,14,-1
 326 262 l 1,15,-1
 377 262 l 1,12,-1
185 326 m 1,16,-1
 185 377 l 1,17,-1
 134 377 l 1,18,-1
 134 326 l 1,19,-1
 185 326 l 1,16,-1
0 0 m 1,20,-1
 0 576 l 1,21,-1
 448 576 l 1,22,-1
 448 0 l 1,23,-1
 0 0 l 1,20,-1
EndSplineSet
Validated: 1
EndChar

StartChar: quoteleft
Encoding: 8216 8216 98
Width: 452
GlyphClass: 1
Flags: W
LayerCount: 2
Fore
SplineSet
377 390 m 1,0,-1
 377 441 l 1,1,-1
 326 441 l 1,2,-1
 326 390 l 1,3,-1
 377 390 l 1,0,-1
377 454 m 1,4,-1
 377 505 l 1,5,-1
 326 505 l 1,6,-1
 326 454 l 1,7,-1
 377 454 l 1,4,-1
0 0 m 1,8,-1
 0 576 l 1,9,-1
 448 576 l 1,10,-1
 448 0 l 1,11,-1
 0 0 l 1,8,-1
EndSplineSet
Validated: 1
EndChar

StartChar: quoteright
Encoding: 8217 8217 99
Width: 452
GlyphClass: 1
Flags: W
LayerCount: 2
Fore
SplineSet
121 390 m 1,0,-1
 121 441 l 1,1,-1
 70 441 l 1,2,-1
 70 390 l 1,3,-1
 121 390 l 1,0,-1
121 454 m 1,4,-1
 121 505 l 1,5,-1
 70 505 l 1,6,-1
 70 454 l 1,7,-1
 121 454 l 1,4,-1
0 0 m 1,8,-1
 0 576 l 1,9,-1
 448 576 l 1,10,-1
 448 0 l 1,11,-1
 0 0 l 1,8,-1
EndSplineSet
Validated: 1
EndChar

StartChar: quotedblleft
Encoding: 8220 8220 100
Width: 452
GlyphClass: 1
Flags: W
LayerCount: 2
Fore
SplineSet
249 390 m 1,0,-1
 249 441 l 1,1,-1
 198 441 l 1,2,-1
 198 390 l 1,3,-1
 249 390 l 1,0,-1
377 390 m 1,4,-1
 377 441 l 1,5,-1
 326 441 l 1,6,-1
 326 390 l 1,7,-1
 377 390 l 1,4,-1
249 454 m 1,8,-1
 249 505 l 1,9,-1
 198 505 l 1,10,-1
 198 454 l 1,11,-1
 249 454 l 1,8,-1
377 454 m 1,12,-1
 377 505 l 1,13,-1
 326 505 l 1,14,-1
 326 454 l 1,15,-1
 377 454 l 1,12,-1
0 0 m 1,16,-1
 0 576 l 1,17,-1
 448 576 l 1,18,-1
 448 0 l 1,19,-1
 0 0 l 1,16,-1
EndSplineSet
Validated: 1
EndChar

StartChar: quotedblright
Encoding: 8221 8221 101
Width: 452
GlyphClass: 1
Flags: W
LayerCount: 2
Fore
SplineSet
121 390 m 1,0,-1
 121 441 l 1,1,-1
 70 441 l 1,2,-1
 70 390 l 1,3,-1
 121 390 l 1,0,-1
249 390 m 1,4,-1
 249 441 l 1,5,-1
 198 441 l 1,6,-1
 198 390 l 1,7,-1
 249 390 l 1,4,-1
121 454 m 1,8,-1
 121 505 l 1,9,-1
 70 505 l 1,10,-1
 70 454 l 1,11,-1
 121 454 l 1,8,-1
249 454 m 1,12,-1
 249 505 l 1,13,-1
 198 505 l 1,14,-1
 198 454 l 1,15,-1
 249 454 l 1,12,-1
0 0 m 1,16,-1
 0 576 l 1,17,-1
 448 576 l 1,18,-1
 448 0 l 1,19,-1
 0 0 l 1,16,-1
EndSplineSet
Validated: 1
EndChar
